<svg width="673" height="138" viewBox="0 0 673 138" fill="none" xmlns="http://www.w3.org/2000/svg">
<path d="M53.4 73.2C49.5333 73.2 45.6333 72.7 41.7 71.7C37.7667 70.6333 34.2 69.3 31 67.7C29.9333 71.5 28.9333 75.6667 28 80.2C27.0667 84.7333 26.2 89.6 25.4 94.8C24.6667 98.5333 23.9333 100.967 23.2 102.1C22.4667 103.233 21.5333 103.8 20.4 103.8C19.2667 103.8 18.3667 103.267 17.7 102.2C17.0333 101.067 16.7 98.9667 16.7 95.9C16.7 95.3 16.8667 93.9 17.2 91.7C17.5333 89.5 17.9667 86.8 18.5 83.6C19.1 80.3333 19.7333 76.8333 20.4 73.1C21.0667 69.3 21.7333 65.5 22.4 61.7C20.8 59.9667 20 58.3333 20 56.8C20 56.0667 20.2 55.3667 20.6 54.7C21 53.9667 21.8333 53.6 23.1 53.6C23.3 53.6 23.5333 53.6333 23.8 53.7C24.5333 49.7 25.1333 46.1333 25.6 43C26.1333 39.8 26.4333 37.5 26.5 36.1C26.6333 33.7 27.1 32.0333 27.9 31.1C28.7 30.1 29.6333 29.6 30.7 29.6C31.5667 29.6 32.2667 29.9667 32.8 30.7C33.3333 31.3667 33.6 33.0667 33.6 35.8C33.6 37.5333 33.4667 39.8667 33.2 42.8C36.4667 36.1333 39.8667 31.4 43.4 28.6C47 25.8 51 24.4 55.4 24.4C59.4 24.4 62.8333 25.5 65.7 27.7C68.5667 29.8333 70.7667 32.8667 72.3 36.8C73.8333 40.7333 74.6 45.3667 74.6 50.7C74.6 58.2333 72.7667 63.8667 69.1 67.6C65.4333 71.3333 60.2 73.2 53.4 73.2ZM33.6 59.4C36.1333 60.8667 38.9667 62.2333 42.1 63.5C45.2333 64.7 48.4667 65.3 51.8 65.3C57.2 65.3 61.1333 64.1 63.6 61.7C66.1333 59.2333 67.4 55.2667 67.4 49.8C67.4 43.4667 66.4 38.9667 64.4 36.3C62.4 33.6333 59.6667 32.3 56.2 32.3C52.2667 32.3 48.3333 34.5 44.4 38.9C40.4667 43.2333 36.8667 50.0667 33.6 59.4ZM100.862 106C96.9284 106 93.8284 104.5 91.5617 101.5C89.2951 98.5 88.1617 94.6 88.1617 89.8C88.1617 88.0667 88.3951 86.2333 88.8617 84.3C89.3951 82.3 90.0617 80.5 90.8617 78.9C90.3951 78.4333 90.0284 77.8 89.7617 77C89.4951 76.1333 89.3617 75.0667 89.3617 73.8C89.3617 69.8667 90.0284 66.2667 91.3617 63C92.6951 59.7333 94.4617 56.9 96.6617 54.5C98.8617 52.0333 101.295 50.1333 103.962 48.8C106.695 47.4667 109.462 46.8 112.262 46.8C116.862 46.8 120.595 48.4667 123.462 51.8C126.328 55.0667 127.762 60.0667 127.762 66.8C127.762 70.3333 127.228 73.9333 126.162 77.6C125.162 81.2667 123.762 84.8 121.962 88.2C120.228 91.6 118.195 94.6333 115.862 97.3C113.595 99.9667 111.162 102.1 108.562 103.7C106.028 105.233 103.462 106 100.862 106ZM97.4617 75.5C97.8617 76.0333 98.0617 76.7333 98.0617 77.6C98.0617 78.6 97.8617 79.6 97.4617 80.6C97.1284 81.6 96.7617 82.9667 96.3617 84.7C95.9617 86.4333 95.7617 88.9 95.7617 92.1C95.7617 95.3 97.0284 96.9 99.5617 96.9C102.362 96.9 104.962 95.8 107.362 93.6C109.762 91.3333 111.895 88.4333 113.762 84.9C115.628 81.3667 117.062 77.6 118.062 73.6C119.128 69.5333 119.662 65.7 119.662 62.1C119.662 59.7667 119.228 58.1333 118.362 57.2C117.495 56.2 115.928 55.7 113.662 55.7C111.328 55.7 108.895 56.5 106.362 58.1C103.895 59.6333 101.828 61.7333 100.162 64.4C98.4951 67.0667 97.6617 70.0667 97.6617 73.4C97.6617 74.1333 97.5951 74.8333 97.4617 75.5ZM154.755 107.2C153.288 107.2 152.155 106.767 151.355 105.9C150.621 105.1 150.255 104.167 150.255 103.1C150.255 102.167 150.655 101.3 151.455 100.5C152.321 99.6333 153.488 98.8667 154.955 98.2C157.621 96.8 160.121 95.4 162.455 94C164.855 92.6 166.788 91.1 168.255 89.5C169.721 87.9 170.455 86.2 170.455 84.4C170.455 82.8667 169.955 81.7 168.955 80.9C167.955 80.0333 166.588 79.6 164.855 79.6C163.855 79.6 162.455 79.8 160.655 80.2C158.855 80.5333 156.888 80.9333 154.755 81.4C152.688 81.8 150.655 82.2 148.655 82.6C146.655 82.9333 144.955 83.1 143.555 83.1C141.021 83.1 139.121 82.5 137.855 81.3C136.588 80.0333 135.955 78.3333 135.955 76.2C135.955 75.1333 136.588 73.5333 137.855 71.4C139.121 69.2667 140.788 66.9 142.855 64.3C144.988 61.6333 147.321 58.9667 149.855 56.3C152.388 53.6333 154.955 51.1667 157.555 48.9C160.221 46.6333 162.688 44.8 164.955 43.4C167.288 42 169.221 41.3 170.755 41.3C172.288 41.3 173.455 41.8 174.255 42.8C175.055 43.8 175.455 45.0667 175.455 46.6C175.455 47.8 175.255 48.8333 174.855 49.7C174.455 50.5 173.621 51.1333 172.355 51.6C171.155 52.0667 169.288 52.3333 166.755 52.4C164.155 54.4667 161.388 56.8333 158.455 59.5C155.588 62.1 152.955 64.8 150.555 67.6C148.221 70.3333 146.521 72.9667 145.455 75.5C147.655 74.7667 150.321 74.1333 153.455 73.6C156.655 73 159.888 72.7 163.155 72.7C168.288 72.7 172.088 73.8667 174.555 76.2C177.088 78.4667 178.355 81.4667 178.355 85.2C178.355 87.6 177.588 90.1 176.055 92.7C174.588 95.2333 172.655 97.6 170.255 99.8C167.855 102 165.288 103.767 162.555 105.1C159.821 106.5 157.221 107.2 154.755 107.2ZM182.284 73C180.484 72.8667 179.651 71.7 179.784 69.5C179.851 68.9667 180.218 68.3333 180.884 67.6C181.551 66.8 182.318 66.3667 183.184 66.3C185.251 66.1 187.784 65.8 190.784 65.4C193.851 64.9333 197.218 64.4 200.884 63.8C201.551 60.5333 202.351 57.1 203.284 53.5C204.218 49.9 205.251 46.4 206.384 43C207.518 39.5333 208.718 36.4 209.984 33.6C211.251 30.8 212.584 28.6 213.984 27C214.718 26.2667 215.384 25.7667 215.984 25.5C216.584 25.1667 217.118 25 217.584 25C218.518 25 219.251 25.4 219.784 26.2C220.384 27 220.684 27.9 220.684 28.9C220.684 29.4333 220.584 29.9667 220.384 30.5C219.051 34.2333 217.618 38.8333 216.084 44.3C214.551 49.7667 212.918 55.7333 211.184 62.2C217.318 61.2 223.451 60.1333 229.584 59C235.718 57.8667 240.984 56.8333 245.384 55.9C246.651 55.3667 247.618 55.4667 248.284 56.2C249.018 56.9333 249.384 57.6667 249.384 58.4C249.384 59.3333 249.118 60.0333 248.584 60.5C248.118 60.9667 247.618 61.3667 247.084 61.7L246.984 61.8C245.651 62.3333 243.651 62.9667 240.984 63.7C238.318 64.3667 235.251 65.1 231.784 65.9C228.318 66.6333 224.618 67.3667 220.684 68.1C216.818 68.8333 212.984 69.5 209.184 70.1C207.651 75.9667 206.084 82 204.484 88.2C202.951 94.3333 201.418 100.367 199.884 106.3C199.218 108.7 198.451 110.2 197.584 110.8C196.784 111.467 195.918 111.8 194.984 111.8C193.918 111.8 192.984 111.4 192.184 110.6C191.451 109.8 191.351 108.167 191.884 105.7L199.184 71.6C195.184 72.2 191.651 72.6333 188.584 72.9C185.584 73.1667 183.484 73.2 182.284 73ZM315.902 100C315.835 101.067 315.402 101.933 314.602 102.6C313.802 103.267 312.868 103.6 311.802 103.6C310.602 103.6 309.602 103.2 308.802 102.4C308.002 101.6 307.602 100.367 307.602 98.7C307.602 94.3667 307.802 89.6667 308.202 84.6C308.602 79.4667 309.102 74.4 309.702 69.4C310.302 64.3333 310.902 59.6667 311.502 55.4C309.302 58.5333 306.902 62 304.302 65.8C301.768 69.6 299.168 73.3667 296.502 77.1C293.835 80.8333 291.235 84.2667 288.702 87.4C286.168 90.4667 283.868 92.9667 281.802 94.9C279.735 96.7667 278.035 97.7 276.702 97.7C274.235 97.7 272.102 96.7333 270.302 94.8C268.502 92.8 267.602 90.3 267.602 87.3C267.602 86.1 267.735 84.4667 268.002 82.4C268.268 80.2667 268.568 78.0333 268.902 75.7C269.235 73.3667 269.535 71.2 269.802 69.2C270.068 67.1333 270.202 65.6 270.202 64.6C270.202 63.6667 270.102 62.8667 269.902 62.2C269.768 61.4667 269.435 61.1 268.902 61.1C268.102 61.1 267.002 62 265.602 63.8C264.202 65.5333 262.635 67.7667 260.902 70.5C259.235 73.2333 257.502 76.1333 255.702 79.2C253.968 82.2667 252.335 85.1667 250.802 87.9C249.268 90.5667 247.968 92.6667 246.902 94.2C246.035 95.6667 245.235 96.7333 244.502 97.4C243.768 98.0667 242.868 98.4 241.802 98.4C240.535 98.4 239.368 97.7333 238.302 96.4C237.302 95.0667 236.802 93.4333 236.802 91.5C236.802 90.3667 237.002 88.6 237.402 86.2C237.802 83.7333 238.302 81.0333 238.902 78.1C239.568 75.1667 240.202 72.3 240.802 69.5C241.468 66.6333 242.035 64.2 242.502 62.2C243.035 59.9333 243.702 58.4 244.502 57.6C245.302 56.8 246.168 56.4 247.102 56.4C248.368 56.4 249.368 56.8667 250.102 57.8C250.902 58.6667 251.302 60.0333 251.302 61.9C251.302 62.2333 251.102 63.1333 250.702 64.6C250.302 66 249.802 67.7333 249.202 69.8C248.668 71.8 248.068 73.9 247.402 76.1C246.802 78.3 246.302 80.3333 245.902 82.2C247.368 79.7333 248.902 77.0667 250.502 74.2C252.168 71.3333 253.835 68.5 255.502 65.7C257.168 62.8333 258.835 60.2333 260.502 57.9C262.168 55.5 263.802 53.6 265.402 52.2C267.002 50.8 268.535 50.1 270.002 50.1C271.735 50.1 273.335 50.6333 274.802 51.7C276.335 52.7667 277.568 54.2 278.502 56C279.435 57.8 279.902 59.8 279.902 62C279.902 63.5333 279.635 65.7 279.102 68.5C278.568 71.2333 278.002 74.2 277.402 77.4C276.868 80.6 276.535 83.6333 276.402 86.5C276.402 87.1667 276.602 87.5 277.002 87.5C277.335 87.5 277.735 87.2667 278.202 86.8C280.135 84.6667 282.268 82.1 284.602 79.1C286.935 76.0333 289.302 72.8 291.702 69.4C294.168 66 296.602 62.6667 299.002 59.4C301.402 56.0667 303.635 53.0667 305.702 50.4C307.835 47.6667 309.702 45.5 311.302 43.9C312.968 42.3 314.268 41.5 315.202 41.5C317.202 41.5 318.735 42.0667 319.802 43.2C320.868 44.3333 321.402 46.2333 321.402 48.9C321.402 51.0333 321.235 53.8 320.902 57.2C320.635 60.6 320.268 64.3 319.802 68.3C319.402 72.3 318.935 76.3333 318.402 80.4C317.935 84.4 317.468 88.1333 317.002 91.6C316.535 95 316.168 97.8 315.902 100ZM340.27 107.6C337.736 107.6 335.636 106.433 333.97 104.1C332.37 101.7 331.57 98.6 331.57 94.8C331.57 91.2667 332.436 87.7667 334.17 84.3C335.97 80.8333 338.336 77.5 341.27 74.3C344.203 71.1 347.403 68.1667 350.87 65.5C354.336 62.7667 357.803 60.4 361.27 58.4C364.803 56.4 368.036 54.8333 370.97 53.7C373.903 52.5667 376.236 52 377.97 52C378.903 52 379.67 52.2 380.27 52.6C380.87 52.9333 381.17 53.5667 381.17 54.5C381.17 55.1 380.936 55.6667 380.47 56.2C380.536 56.2 380.603 56.2 380.67 56.2C382.136 56.2 382.87 57.0667 382.87 58.8C382.87 59.4 382.636 60.6333 382.17 62.5C381.703 64.3 381.17 66.5667 380.57 69.3C379.97 72.0333 379.436 75.0667 378.97 78.4C378.503 81.6667 378.27 85 378.27 88.4C378.27 91.2667 379.37 92.7 381.57 92.7C384.036 92.7 386.536 92.1333 389.07 91C391.603 89.8667 394.07 88.5 396.47 86.9C398.87 85.2333 401.07 83.6 403.07 82C405.07 80.3333 406.77 78.9333 408.17 77.8C409.57 76.6667 410.57 76.1 411.17 76.1C411.703 76.1 412.17 76.2667 412.57 76.6C412.97 76.9333 413.17 77.4667 413.17 78.2C413.17 78.8667 412.503 80.0667 411.17 81.8C409.836 83.5333 408.07 85.5 405.87 87.7C403.67 89.9 401.203 92.0333 398.47 94.1C395.736 96.1667 392.936 97.8667 390.07 99.2C387.203 100.533 384.47 101.2 381.87 101.2C379.87 101.2 378.036 100.6 376.37 99.4C374.77 98.1333 373.47 96 372.47 93C371.536 90 371.07 85.8667 371.07 80.6V78.1C367.803 83.5 364.37 88.4333 360.77 92.9C357.236 97.3667 353.703 100.933 350.17 103.6C346.703 106.267 343.403 107.6 340.27 107.6ZM376.07 59.2C375.736 59.3333 375.27 59.5333 374.67 59.8C371.603 61.2 368.403 62.9333 365.07 65C361.803 67.0667 358.603 69.3667 355.47 71.9C352.403 74.4333 349.636 77.0667 347.17 79.8C344.703 82.5333 342.736 85.3 341.27 88.1C339.803 90.9 339.07 93.6333 339.07 96.3C339.07 97.1667 339.236 97.8333 339.57 98.3C339.97 98.7667 340.636 99 341.57 99C342.903 99 344.636 98.1667 346.77 96.5C348.903 94.7667 351.236 92.5 353.77 89.7C356.37 86.9 358.97 83.8 361.57 80.4C364.17 77 366.636 73.5667 368.97 70.1C371.37 66.6333 373.436 63.4333 375.17 60.5C375.436 60.0333 375.736 59.6 376.07 59.2ZM411.112 106.9C410.045 106.9 409.145 106.467 408.412 105.6C407.678 104.733 407.312 103.533 407.312 102C407.312 100.867 407.545 99 408.012 96.4C408.545 93.7333 409.112 90.6333 409.712 87.1C410.378 83.5667 410.945 79.9 411.412 76.1C411.878 72.2333 412.112 68.5333 412.112 65C412.112 63.2667 412.545 62 413.412 61.2C414.345 60.3333 415.378 59.9 416.512 59.9C417.578 59.9 418.378 60.5667 418.912 61.9C419.445 63.2333 419.545 65.9 419.212 69.9C422.278 63.1 425.645 57.6333 429.312 53.5C433.045 49.3 436.745 46.3 440.412 44.5C444.078 42.6333 447.378 41.7 450.312 41.7C452.245 41.7 453.645 42.1 454.512 42.9C455.445 43.6333 455.912 44.4667 455.912 45.4C455.912 46.6667 455.378 47.6667 454.312 48.4C453.312 49.0667 451.545 49.8667 449.012 50.8C446.078 51.9333 443.378 53.2667 440.912 54.8C438.512 56.2667 436.212 58.2 434.012 60.6C431.878 63 429.778 66.0667 427.712 69.8C425.645 73.4667 423.578 78 421.512 83.4C419.445 88.8 417.245 95.3 414.912 102.9C414.512 104.367 413.978 105.4 413.312 106C412.712 106.6 411.978 106.9 411.112 106.9ZM502.975 110.3C498.642 110.3 494.642 109.267 490.975 107.2C487.375 105.133 484.108 102.467 481.175 99.2C478.308 95.9333 475.742 92.4333 473.475 88.7C471.275 84.9 469.375 81.3333 467.775 78C466.642 83.4 465.742 87.7667 465.075 91.1C464.475 94.4333 463.975 96.9667 463.575 98.7C463.242 100.433 462.908 101.6 462.575 102.2C462.242 102.8 461.808 103.1 461.275 103.1C459.808 103.1 458.408 102.3 457.075 100.7C455.742 99.1 455.075 97.0333 455.075 94.5C455.075 91.8333 455.542 88.3 456.475 83.9C457.408 79.4333 458.642 74.5 460.175 69.1C461.775 63.6333 463.608 58 465.675 52.2C467.742 46.3333 469.875 40.6333 472.075 35.1C474.342 29.5 476.608 24.4 478.875 19.8C480.008 17.5333 480.975 16.0667 481.775 15.4C482.642 14.7333 483.675 14.4 484.875 14.4C486.808 14.4 487.775 15.3 487.775 17.1C487.775 17.7667 487.575 18.5 487.175 19.3C486.842 20.1 486.475 21 486.075 22C484.875 24.9333 483.542 28.2333 482.075 31.9C480.675 35.5667 479.242 39.4 477.775 43.4C476.375 47.4 475.042 51.3667 473.775 55.3C472.508 59.2333 471.408 62.8667 470.475 66.2C473.342 64.2 476.708 62.2 480.575 60.2C484.442 58.2 488.442 56.4 492.575 54.8C496.708 53.1333 500.608 51.8 504.275 50.8C507.942 49.8 510.975 49.3 513.375 49.3C514.642 49.3 515.608 49.7 516.275 50.5C517.008 51.2333 517.375 52.0667 517.375 53C517.375 53.7333 517.142 54.4667 516.675 55.2C516.275 55.8667 515.408 56.4667 514.075 57C509.675 58.5333 505.308 60.1 500.975 61.7C496.642 63.2333 492.108 64.9 487.375 66.7C482.708 68.4333 477.608 70.5 472.075 72.9C473.808 75.8333 475.842 79 478.175 82.4C480.508 85.7333 483.008 88.9 485.675 91.9C488.342 94.8333 491.075 97.2667 493.875 99.2C496.675 101.067 499.475 102 502.275 102C505.942 102 509.475 101.233 512.875 99.7C516.275 98.1667 519.408 96.3 522.275 94.1C525.208 91.9 527.775 89.7667 529.975 87.7C532.175 85.5667 533.908 83.9 535.175 82.7C535.842 82.1 536.442 81.7 536.975 81.5C537.575 81.2333 538.108 81.1 538.575 81.1C539.508 81.1 540.142 81.6 540.475 82.6C540.875 83.5333 540.542 84.5667 539.475 85.7C538.675 86.6333 537.442 88.0667 535.775 90C534.108 91.9333 532.075 94.0667 529.675 96.4C527.342 98.6667 524.742 100.867 521.875 103C519.075 105.133 516.042 106.867 512.775 108.2C509.575 109.6 506.308 110.3 502.975 110.3ZM574.212 61.9C574.212 64.0333 573.545 66.1333 572.212 68.2C570.878 70.2 569.112 72.1333 566.912 74C564.712 75.8 562.278 77.5 559.612 79.1C556.945 80.7 554.278 82.1 551.612 83.3C548.945 84.5 546.512 85.4667 544.312 86.2C543.778 88.8 543.512 91.1 543.512 93.1C543.512 94.3667 543.812 95.2667 544.412 95.8C545.012 96.3333 545.945 96.6 547.212 96.6C550.012 96.6 552.978 96.1 556.112 95.1C559.245 94.1 562.445 92.8 565.712 91.2C568.978 89.6 572.112 87.9 575.112 86.1C578.112 84.3 580.845 82.6 583.312 81C585.845 79.4 587.945 78.1 589.612 77.1C591.278 76.1 592.378 75.6 592.912 75.6C593.712 75.6 594.312 75.8667 594.712 76.4C595.178 76.8667 595.412 77.4333 595.412 78.1C595.412 78.6333 594.578 79.6667 592.912 81.2C591.312 82.7333 589.145 84.5333 586.412 86.6C583.678 88.6 580.612 90.6667 577.212 92.8C573.812 94.9333 570.278 96.9333 566.612 98.8C563.012 100.667 559.512 102.167 556.112 103.3C552.778 104.433 549.778 105 547.112 105C543.645 105 540.945 103.7 539.012 101.1C537.078 98.5 536.112 94.4667 536.112 89C536.112 85.3333 536.578 81.6333 537.512 77.9C538.512 74.1667 539.845 70.6 541.512 67.2C543.245 63.7333 545.145 60.6667 547.212 58C549.345 55.2667 551.578 53.1333 553.912 51.6C556.245 50 558.512 49.2 560.712 49.2C564.912 49.2 568.212 50.3667 570.612 52.7C573.012 55.0333 574.212 58.1 574.212 61.9ZM546.412 78.5C548.478 77.2333 550.612 75.9 552.812 74.5C555.012 73.1 557.045 71.6667 558.912 70.2C560.778 68.7333 562.278 67.2 563.412 65.6C564.612 63.9333 565.212 62.2333 565.212 60.5C565.212 58.0333 563.878 56.8 561.212 56.8C559.545 56.8 557.778 57.8667 555.912 60C554.112 62.0667 552.378 64.7667 550.712 68.1C549.045 71.4333 547.612 74.9 546.412 78.5ZM629.122 54.7C630.922 50.3667 632.622 45.9 634.222 41.3C635.889 36.7 637.389 32 638.722 27.2C639.122 25.8667 639.722 24.8 640.522 24C641.389 23.1333 642.389 22.7 643.522 22.7C644.322 22.7 644.989 23 645.522 23.6C646.122 24.2 646.422 25 646.422 26C646.422 27.2667 645.922 29.4667 644.922 32.6C643.989 35.7333 642.789 39.7 641.322 44.5C639.922 49.3 638.489 54.8333 637.022 61.1C635.622 67.3 634.422 74.1667 633.422 81.7C632.489 89.2333 632.022 97.2667 632.022 105.8C632.022 107.667 631.622 109.2 630.822 110.4C630.022 111.667 629.055 112.3 627.922 112.3C627.255 112.3 626.622 112.133 626.022 111.8C625.422 111.467 624.889 110.667 624.422 109.4C624.022 108.2 623.689 106.3 623.422 103.7C623.155 101.033 623.022 97.4333 623.022 92.9C623.022 89.4333 623.222 85.6667 623.622 81.6C620.555 87.1333 617.222 91.9667 613.622 96.1C610.089 100.167 606.655 103.3 603.322 105.5C600.055 107.7 597.255 108.8 594.922 108.8C592.055 108.8 589.722 107.833 587.922 105.9C586.189 104.033 585.322 101.233 585.322 97.5C585.322 94.2333 586.089 90.8667 587.622 87.4C589.155 83.9333 591.189 80.5333 593.722 77.2C596.255 73.8 599.055 70.6 602.122 67.6C605.189 64.6 608.255 61.9667 611.322 59.7C614.455 57.3667 617.355 55.5667 620.022 54.3C622.689 52.9667 624.855 52.3 626.522 52.3C627.189 52.3 627.789 52.5333 628.322 53C628.855 53.4667 629.122 54.0333 629.122 54.7ZM627.822 57.8C627.355 58.2667 626.789 58.7333 626.122 59.2C625.455 59.6667 624.722 60.1667 623.922 60.7C620.989 62.7667 617.755 65.1667 614.222 67.9C610.755 70.5667 607.422 73.5 604.222 76.7C601.089 79.8333 598.522 83.1333 596.522 86.6C594.522 90.0667 593.522 93.6333 593.522 97.3C593.522 98.9 594.322 99.7 595.922 99.7C598.122 99.7 600.522 98.6667 603.122 96.6C605.789 94.4667 608.522 91.5333 611.322 87.8C614.122 84 616.922 79.5667 619.722 74.5C622.522 69.3667 625.222 63.8 627.822 57.8ZM654.475 106.5C653.008 106.5 651.575 106.033 650.175 105.1C648.842 104.167 648.175 102.633 648.175 100.5C648.175 98.7667 648.608 97.3667 649.475 96.3C650.342 95.2333 651.342 94.4667 652.475 94C653.608 93.4667 654.608 93.2 655.475 93.2C656.342 93.2 657.308 93.4 658.375 93.8C659.508 94.2 660.475 94.9 661.275 95.9C662.075 96.8333 662.475 98.2333 662.475 100.1C662.475 101.967 661.675 103.5 660.075 104.7C658.475 105.9 656.608 106.5 654.475 106.5Z" fill="white"/>
<path fill-rule="evenodd" clip-rule="evenodd" d="M100.706 14.5302C100.914 11.7337 101.921 9.05652 103.606 6.81982C105.291 4.58312 107.581 2.88195 110.203 1.92043C112.825 0.958915 115.667 0.777901 118.388 1.39911C121.109 2.02031 123.593 3.41735 125.542 5.42259C127.491 7.42783 128.823 9.95609 129.377 12.704C129.931 15.4519 129.684 18.3027 128.666 20.9144C127.648 23.526 125.902 25.7876 123.638 27.4277C121.373 29.0678 118.686 30.0167 115.899 30.1607L114.403 50.2542C114.367 50.736 114.142 51.1838 113.778 51.4992C113.413 51.8146 112.939 51.9718 112.46 51.9361C111.981 51.9003 111.535 51.6747 111.221 51.3088C110.908 50.9429 110.752 50.4667 110.788 49.985L112.284 29.8951C108.821 29.1921 105.734 27.2426 103.602 24.4127C101.47 21.5828 100.44 18.0673 100.706 14.5266L100.706 14.5302Z" fill="white"/>
</svg>
