<svg width="885" height="145" viewBox="0 0 885 145" fill="none" xmlns="http://www.w3.org/2000/svg">
<path d="M433.875 5.75H422.375V11.5H416.625V17.25H410.875V34.5H416.625V40.25H422.375V46H428.125V51.75H433.875V57.5H439.625V63.25H445.375V57.5H451.125V51.75H456.875V46H462.625V40.25H468.375V34.5H474.125V17.25H468.375V11.5H462.625V5.75H451.125V11.5H445.375V17.25H439.625V11.5H433.875V5.75ZM433.875 11.5V17.25H439.625V23H445.375V17.25H451.125V11.5H462.625V17.25H468.375V34.5H462.625V40.25H456.875V46H451.125V51.75H445.375V57.5H439.625V51.75H433.875V46H428.125V40.25H422.375V34.5H416.625V17.25H422.375V11.5H433.875Z" fill="#C52929"/>
<path d="M15.54 128.988C16.1187 128.988 16.5293 129.147 16.772 129.464C17.0147 129.763 17.136 130.08 17.136 130.416C17.136 130.883 16.9027 131.377 16.436 131.9C15.9693 132.423 15.3627 132.908 14.616 133.356C13.888 133.785 13.104 134.14 12.264 134.42C11.424 134.7 10.6213 134.84 9.856 134.84C8.71733 134.84 7.62533 134.532 6.58 133.916C5.55333 133.281 4.71333 132.395 4.06 131.256C3.42533 130.117 3.108 128.764 3.108 127.196C3.108 125.908 3.35067 124.629 3.836 123.36C4.34 122.091 5.00267 120.868 5.824 119.692C6.664 118.516 7.57867 117.424 8.568 116.416C9.576 115.408 10.584 114.531 11.592 113.784C12.6187 113.037 13.5613 112.459 14.42 112.048C15.2787 111.619 15.9693 111.404 16.492 111.404C17.1453 111.404 17.6307 111.572 17.948 111.908C18.284 112.225 18.452 112.673 18.452 113.252C18.452 113.719 18.3587 114.083 18.172 114.344C18.004 114.587 17.7333 114.801 17.36 114.988C16.1653 115.604 14.952 116.351 13.72 117.228C12.5067 118.105 11.396 119.076 10.388 120.14C9.38 121.185 8.568 122.287 7.952 123.444C7.336 124.601 7.028 125.777 7.028 126.972C7.028 128.279 7.28933 129.268 7.812 129.94C8.33467 130.612 9.044 130.948 9.94 130.948C10.388 130.948 10.8733 130.855 11.396 130.668C11.9187 130.463 12.432 130.229 12.936 129.968C13.4587 129.707 13.944 129.483 14.392 129.296C14.8587 129.091 15.2413 128.988 15.54 128.988ZM25.6834 134.924C24.3581 134.924 23.2941 134.457 22.4914 133.524C21.6888 132.572 21.2874 131.303 21.2874 129.716C21.2874 129.212 21.3528 128.699 21.4834 128.176C21.6328 127.653 21.8101 127.168 22.0154 126.72C21.9034 126.552 21.8101 126.337 21.7354 126.076C21.6794 125.796 21.6514 125.469 21.6514 125.096C21.6514 123.883 21.8661 122.772 22.2954 121.764C22.7248 120.737 23.3034 119.851 24.0314 119.104C24.7594 118.357 25.5621 117.779 26.4394 117.368C27.3168 116.957 28.2034 116.752 29.0994 116.752C30.6301 116.752 31.8808 117.265 32.8514 118.292C33.8408 119.319 34.3354 120.915 34.3354 123.08C34.3354 124.163 34.1674 125.264 33.8314 126.384C33.4954 127.504 33.0381 128.577 32.4594 129.604C31.8994 130.612 31.2461 131.517 30.4994 132.32C29.7714 133.123 28.9874 133.757 28.1474 134.224C27.3261 134.691 26.5048 134.924 25.6834 134.924ZM25.2354 125.46C25.3288 125.665 25.3754 125.908 25.3754 126.188C25.3754 126.468 25.3194 126.757 25.2074 127.056C25.0954 127.355 24.9834 127.756 24.8714 128.26C24.7594 128.745 24.7034 129.445 24.7034 130.36C24.7034 130.603 24.7314 130.808 24.7874 130.976C24.8621 131.125 25.0208 131.2 25.2634 131.2C25.8981 131.2 26.4954 130.995 27.0554 130.584C27.6341 130.173 28.1474 129.632 28.5954 128.96C29.0621 128.288 29.4541 127.541 29.7714 126.72C30.1074 125.88 30.3594 125.031 30.5274 124.172C30.7141 123.295 30.8074 122.483 30.8074 121.736C30.8074 121.251 30.7141 120.915 30.5274 120.728C30.3408 120.541 30.0141 120.448 29.5474 120.448C28.9128 120.448 28.2594 120.653 27.5874 121.064C26.9341 121.456 26.3834 121.997 25.9354 122.688C25.4874 123.36 25.2634 124.125 25.2634 124.984C25.2634 125.152 25.2541 125.311 25.2354 125.46ZM43.4781 135.4C41.7981 135.4 40.4728 134.887 39.5021 133.86C38.5501 132.815 38.0741 131.331 38.0741 129.408C38.0741 128.363 38.2141 127.14 38.4941 125.74C38.7741 124.321 39.1381 122.828 39.5861 121.26C40.0528 119.673 40.5474 118.105 41.0701 116.556C41.6114 115.007 42.1434 113.569 42.6661 112.244C43.1888 110.919 43.6461 109.808 44.0381 108.912C44.3741 108.221 44.8501 107.876 45.4661 107.876C45.8581 107.876 46.1754 107.997 46.4181 108.24C46.6794 108.483 46.8101 108.875 46.8101 109.416C46.8101 109.677 46.6794 110.247 46.4181 111.124C46.1568 112.001 45.8114 113.084 45.3821 114.372C44.9714 115.641 44.5234 117.013 44.0381 118.488C43.5714 119.963 43.1234 121.447 42.6941 122.94C42.2834 124.433 41.9474 125.843 41.6861 127.168C41.4248 128.475 41.2941 129.585 41.2941 130.5C41.2941 130.873 41.3968 131.172 41.6021 131.396C41.8261 131.62 42.1154 131.732 42.4701 131.732C43.2354 131.732 44.0194 131.592 44.8221 131.312C45.6434 131.032 46.4461 130.677 47.2301 130.248C48.0328 129.819 48.7888 129.361 49.4981 128.876C50.2074 128.391 50.8421 127.933 51.4021 127.504C51.9808 127.056 52.4474 126.701 52.8021 126.44C53.2688 126.085 53.5861 125.908 53.7541 125.908C54.3888 125.908 54.7061 126.216 54.7061 126.832C54.7061 126.981 54.5194 127.289 54.1461 127.756C53.8288 128.167 53.3808 128.689 52.8021 129.324C52.2234 129.959 51.5514 130.631 50.7861 131.34C50.0394 132.031 49.2368 132.684 48.3781 133.3C47.5381 133.916 46.6981 134.42 45.8581 134.812C45.0181 135.204 44.2248 135.4 43.4781 135.4ZM58.5172 135.4C56.8372 135.4 55.5118 134.887 54.5412 133.86C53.5892 132.815 53.1132 131.331 53.1132 129.408C53.1132 128.363 53.2532 127.14 53.5332 125.74C53.8132 124.321 54.1772 122.828 54.6252 121.26C55.0918 119.673 55.5865 118.105 56.1092 116.556C56.6505 115.007 57.1825 113.569 57.7052 112.244C58.2278 110.919 58.6852 109.808 59.0772 108.912C59.4132 108.221 59.8892 107.876 60.5052 107.876C60.8972 107.876 61.2145 107.997 61.4572 108.24C61.7185 108.483 61.8492 108.875 61.8492 109.416C61.8492 109.677 61.7185 110.247 61.4572 111.124C61.1958 112.001 60.8505 113.084 60.4212 114.372C60.0105 115.641 59.5625 117.013 59.0772 118.488C58.6105 119.963 58.1625 121.447 57.7332 122.94C57.3225 124.433 56.9865 125.843 56.7252 127.168C56.4638 128.475 56.3332 129.585 56.3332 130.5C56.3332 130.873 56.4358 131.172 56.6412 131.396C56.8652 131.62 57.1545 131.732 57.5092 131.732C58.2745 131.732 59.0585 131.592 59.8612 131.312C60.6825 131.032 61.4852 130.677 62.2692 130.248C63.0718 129.819 63.8278 129.361 64.5372 128.876C65.2465 128.391 65.8812 127.933 66.4412 127.504C67.0198 127.056 67.4865 126.701 67.8412 126.44C68.3078 126.085 68.6252 125.908 68.7932 125.908C69.4278 125.908 69.7452 126.216 69.7452 126.832C69.7452 126.981 69.5585 127.289 69.1852 127.756C68.8678 128.167 68.4198 128.689 67.8412 129.324C67.2625 129.959 66.5905 130.631 65.8252 131.34C65.0785 132.031 64.2758 132.684 63.4172 133.3C62.5772 133.916 61.7372 134.42 60.8972 134.812C60.0572 135.204 59.2638 135.4 58.5172 135.4ZM71.7955 134.952C70.6382 134.952 69.7048 134.551 68.9955 133.748C68.2862 132.927 67.9315 131.611 67.9315 129.8C67.9315 128.643 68.0622 127.485 68.3235 126.328C68.6035 125.152 68.9862 124.041 69.4715 122.996C69.9755 121.932 70.5542 120.989 71.2075 120.168C71.8795 119.347 72.6168 118.703 73.4195 118.236C74.2222 117.751 75.0528 117.508 75.9115 117.508C77.3675 117.508 78.5062 117.9 79.3275 118.684C80.1488 119.468 80.5595 120.467 80.5595 121.68C80.5595 122.613 80.2982 123.463 79.7755 124.228C79.2715 124.975 78.5808 125.647 77.7035 126.244C76.8262 126.841 75.8462 127.383 74.7635 127.868C73.6808 128.353 72.5702 128.792 71.4315 129.184C71.3382 129.856 71.2915 130.453 71.2915 130.976C71.2915 131.293 71.4688 131.452 71.8235 131.452C72.6635 131.452 73.5595 131.321 74.5115 131.06C75.4822 130.78 76.4622 130.425 77.4515 129.996C78.4408 129.548 79.3928 129.091 80.3075 128.624C81.2222 128.139 82.0528 127.681 82.7995 127.252C83.5648 126.804 84.1902 126.449 84.6755 126.188C85.1795 125.908 85.5062 125.768 85.6555 125.768C86.0662 125.768 86.3648 125.889 86.5515 126.132C86.7382 126.375 86.8315 126.636 86.8315 126.916C86.8315 127.047 86.5795 127.336 86.0755 127.784C85.5902 128.232 84.9182 128.764 84.0595 129.38C83.2195 129.977 82.2675 130.603 81.2035 131.256C80.1582 131.891 79.0662 132.497 77.9275 133.076C76.8075 133.636 75.7155 134.084 74.6515 134.42C73.6062 134.775 72.6542 134.952 71.7955 134.952ZM71.9075 126.692C72.6728 126.244 73.4288 125.777 74.1755 125.292C74.9408 124.788 75.5755 124.228 76.0795 123.612C76.5835 122.977 76.8355 122.24 76.8355 121.4C76.8355 121.157 76.7702 120.999 76.6395 120.924C76.5088 120.831 76.3222 120.784 76.0795 120.784C75.4262 120.784 74.8288 121.073 74.2875 121.652C73.7648 122.231 73.2982 122.977 72.8875 123.892C72.4955 124.788 72.1688 125.721 71.9075 126.692ZM89.6479 134.784C88.6026 134.784 87.6972 134.541 86.9319 134.056C86.1666 133.589 85.5786 132.983 85.1679 132.236C84.7572 131.471 84.5519 130.687 84.5519 129.884C84.5519 128.54 84.7572 127.299 85.1679 126.16C85.5786 125.003 86.1199 123.957 86.7919 123.024C87.4639 122.072 88.1919 121.232 88.9759 120.504C89.7786 119.776 90.5532 119.169 91.2999 118.684C92.0652 118.18 92.7466 117.807 93.3439 117.564C93.9412 117.303 94.3799 117.172 94.6599 117.172C95.1639 117.172 95.5186 117.284 95.7239 117.508C95.9479 117.713 96.0599 118.059 96.0599 118.544C96.0599 118.824 95.8546 119.16 95.4439 119.552C95.0519 119.944 94.5292 120.392 93.8759 120.896C93.2412 121.4 92.5692 121.969 91.8599 122.604C91.1506 123.239 90.4692 123.948 89.8159 124.732C89.1812 125.516 88.6586 126.375 88.2479 127.308C87.8559 128.241 87.6599 129.259 87.6599 130.36C87.6599 130.771 87.7346 131.088 87.8839 131.312C88.0519 131.536 88.3226 131.648 88.6959 131.648C89.7599 131.648 90.8986 131.461 92.1119 131.088C93.3439 130.696 94.5666 130.211 95.7799 129.632C97.0119 129.035 98.1692 128.419 99.2519 127.784C100.353 127.149 101.296 126.58 102.08 126.076C102.397 125.852 102.668 125.675 102.892 125.544C103.116 125.413 103.275 125.348 103.368 125.348C103.928 125.348 104.208 125.637 104.208 126.216C104.208 126.515 103.984 126.916 103.536 127.42C103.013 128.073 102.304 128.745 101.408 129.436C100.531 130.127 99.5506 130.789 98.4679 131.424C97.4039 132.059 96.3119 132.628 95.1919 133.132C94.0906 133.636 93.0546 134.037 92.0839 134.336C91.1132 134.635 90.3012 134.784 89.6479 134.784ZM122.342 119.888C122.342 120.112 122.267 120.308 122.118 120.476C121.969 120.644 121.782 120.775 121.558 120.868C121.241 120.999 120.69 121.167 119.906 121.372C119.122 121.577 118.17 121.811 117.05 122.072C115.949 122.333 114.763 122.604 113.494 122.884C112.225 123.145 110.955 123.397 109.686 123.64C109.201 125.432 108.706 127.28 108.202 129.184C107.698 131.069 107.194 132.927 106.69 134.756C106.503 135.409 106.279 135.904 106.018 136.24C105.757 136.595 105.309 136.772 104.674 136.772C103.983 136.772 103.517 136.548 103.274 136.1C103.05 135.671 103.022 135.083 103.19 134.336C103.675 132.301 104.123 130.407 104.534 128.652C104.963 126.897 105.309 125.479 105.57 124.396C104.45 124.583 103.47 124.732 102.63 124.844C101.79 124.937 101.193 124.975 100.838 124.956C100.446 124.919 100.119 124.76 99.8578 124.48C99.5965 124.2 99.4752 123.855 99.4938 123.444C99.5312 123.071 99.6992 122.753 99.9978 122.492C100.297 122.212 100.651 122.044 101.062 121.988C101.641 121.932 102.387 121.848 103.302 121.736C104.217 121.624 105.225 121.493 106.326 121.344C106.569 120.392 106.849 119.412 107.166 118.404C107.483 117.377 107.81 116.397 108.146 115.464C108.501 114.512 108.837 113.681 109.154 112.972C109.471 112.263 109.761 111.749 110.022 111.432C110.227 111.189 110.479 111.003 110.778 110.872C111.095 110.741 111.403 110.676 111.702 110.676C112.094 110.676 112.411 110.816 112.654 111.096C112.897 111.376 113.018 111.703 113.018 112.076C113.018 112.225 113.009 112.384 112.99 112.552C112.971 112.701 112.934 112.851 112.878 113C112.523 113.933 112.141 115.063 111.73 116.388C111.338 117.713 110.927 119.169 110.498 120.756C111.898 120.551 113.27 120.345 114.614 120.14C115.977 119.916 117.209 119.711 118.31 119.524C119.43 119.319 120.326 119.141 120.998 118.992C121.371 118.861 121.689 118.889 121.95 119.076C122.211 119.244 122.342 119.515 122.342 119.888ZM122.956 134.952C121.798 134.952 120.865 134.551 120.156 133.748C119.446 132.927 119.092 131.611 119.092 129.8C119.092 128.643 119.222 127.485 119.484 126.328C119.764 125.152 120.146 124.041 120.632 122.996C121.136 121.932 121.714 120.989 122.368 120.168C123.04 119.347 123.777 118.703 124.58 118.236C125.382 117.751 126.213 117.508 127.072 117.508C128.528 117.508 129.666 117.9 130.488 118.684C131.309 119.468 131.72 120.467 131.72 121.68C131.72 122.613 131.458 123.463 130.936 124.228C130.432 124.975 129.741 125.647 128.864 126.244C127.986 126.841 127.006 127.383 125.924 127.868C124.841 128.353 123.73 128.792 122.592 129.184C122.498 129.856 122.452 130.453 122.452 130.976C122.452 131.293 122.629 131.452 122.984 131.452C123.824 131.452 124.72 131.321 125.672 131.06C126.642 130.78 127.622 130.425 128.612 129.996C129.601 129.548 130.553 129.091 131.468 128.624C132.382 128.139 133.213 127.681 133.96 127.252C134.725 126.804 135.35 126.449 135.836 126.188C136.34 125.908 136.666 125.768 136.816 125.768C137.226 125.768 137.525 125.889 137.712 126.132C137.898 126.375 137.992 126.636 137.992 126.916C137.992 127.047 137.74 127.336 137.236 127.784C136.75 128.232 136.078 128.764 135.22 129.38C134.38 129.977 133.428 130.603 132.364 131.256C131.318 131.891 130.226 132.497 129.088 133.076C127.968 133.636 126.876 134.084 125.812 134.42C124.766 134.775 123.814 134.952 122.956 134.952ZM123.068 126.692C123.833 126.244 124.589 125.777 125.336 125.292C126.101 124.788 126.736 124.228 127.24 123.612C127.744 122.977 127.996 122.24 127.996 121.4C127.996 121.157 127.93 120.999 127.8 120.924C127.669 120.831 127.482 120.784 127.24 120.784C126.586 120.784 125.989 121.073 125.448 121.652C124.925 122.231 124.458 122.977 124.048 123.892C123.656 124.788 123.329 125.721 123.068 126.692ZM148.043 119.02C149.07 116.575 149.975 114.055 150.759 111.46C150.908 110.937 151.123 110.536 151.403 110.256C151.702 109.976 152.112 109.836 152.635 109.836C153.064 109.836 153.391 109.967 153.615 110.228C153.839 110.471 153.951 110.807 153.951 111.236C153.951 111.591 153.802 112.225 153.503 113.14C153.204 114.036 152.84 115.175 152.411 116.556C151.982 117.937 151.552 119.533 151.123 121.344C150.694 123.155 150.33 125.143 150.031 127.308C149.732 129.473 149.583 131.788 149.583 134.252C149.583 134.924 149.452 135.475 149.191 135.904C148.948 136.352 148.519 136.576 147.903 136.576C147.231 136.576 146.736 136.343 146.419 135.876C146.12 135.409 145.971 134.812 145.971 134.084C145.971 132.647 146.018 131.452 146.111 130.5C146.223 129.529 146.335 128.699 146.447 128.008C145.532 129.576 144.562 130.929 143.535 132.068C142.527 133.188 141.556 134.047 140.623 134.644C139.69 135.26 138.887 135.568 138.215 135.568C137.114 135.568 136.218 135.26 135.527 134.644C134.836 134.028 134.491 133.095 134.491 131.844C134.491 130.873 134.724 129.875 135.191 128.848C135.658 127.803 136.274 126.776 137.039 125.768C137.804 124.76 138.644 123.817 139.559 122.94C140.492 122.044 141.426 121.26 142.359 120.588C143.292 119.897 144.16 119.356 144.963 118.964C145.766 118.572 146.419 118.376 146.923 118.376C147.483 118.376 147.856 118.591 148.043 119.02ZM147.399 120.532C147.287 120.607 147.166 120.681 147.035 120.756C146.923 120.812 146.811 120.877 146.699 120.952C145.99 121.4 145.234 121.941 144.431 122.576C143.628 123.192 142.835 123.883 142.051 124.648C141.267 125.395 140.548 126.179 139.895 127C139.26 127.803 138.747 128.605 138.355 129.408C137.982 130.192 137.795 130.948 137.795 131.676C137.795 131.807 137.851 131.9 137.963 131.956C138.075 132.012 138.178 132.04 138.271 132.04C138.924 132.04 139.624 131.751 140.371 131.172C141.136 130.593 141.911 129.791 142.695 128.764C143.498 127.719 144.291 126.496 145.075 125.096C145.878 123.696 146.652 122.175 147.399 120.532ZM153.541 143.38C151.861 143.828 151.021 143.539 151.021 142.512C151.021 141.971 151.338 141.523 151.973 141.168C152.906 140.589 153.662 139.74 154.241 138.62C154.801 137.5 155.24 136.231 155.557 134.812C155.893 133.393 156.154 131.956 156.341 130.5C156.434 129.903 156.612 129.511 156.873 129.324C157.134 129.119 157.414 129.016 157.713 129.016C158.292 129.016 158.833 129.249 159.337 129.716C159.841 130.164 160.093 130.911 160.093 131.956C160.093 133.375 159.878 134.728 159.449 136.016C159.038 137.304 158.497 138.461 157.825 139.488C157.172 140.533 156.462 141.392 155.697 142.064C154.932 142.736 154.213 143.175 153.541 143.38ZM190.945 119.02C191.972 116.575 192.877 114.055 193.661 111.46C193.811 110.937 194.025 110.536 194.305 110.256C194.604 109.976 195.015 109.836 195.537 109.836C195.967 109.836 196.293 109.967 196.517 110.228C196.741 110.471 196.853 110.807 196.853 111.236C196.853 111.591 196.704 112.225 196.405 113.14C196.107 114.036 195.743 115.175 195.313 116.556C194.884 117.937 194.455 119.533 194.025 121.344C193.596 123.155 193.232 125.143 192.933 127.308C192.635 129.473 192.485 131.788 192.485 134.252C192.485 134.924 192.355 135.475 192.093 135.904C191.851 136.352 191.421 136.576 190.805 136.576C190.133 136.576 189.639 136.343 189.321 135.876C189.023 135.409 188.873 134.812 188.873 134.084C188.873 132.647 188.92 131.452 189.013 130.5C189.125 129.529 189.237 128.699 189.349 128.008C188.435 129.576 187.464 130.929 186.437 132.068C185.429 133.188 184.459 134.047 183.525 134.644C182.592 135.26 181.789 135.568 181.117 135.568C180.016 135.568 179.12 135.26 178.429 134.644C177.739 134.028 177.393 133.095 177.393 131.844C177.393 130.873 177.627 129.875 178.093 128.848C178.56 127.803 179.176 126.776 179.941 125.768C180.707 124.76 181.547 123.817 182.461 122.94C183.395 122.044 184.328 121.26 185.261 120.588C186.195 119.897 187.063 119.356 187.865 118.964C188.668 118.572 189.321 118.376 189.825 118.376C190.385 118.376 190.759 118.591 190.945 119.02ZM190.301 120.532C190.189 120.607 190.068 120.681 189.937 120.756C189.825 120.812 189.713 120.877 189.601 120.952C188.892 121.4 188.136 121.941 187.333 122.576C186.531 123.192 185.737 123.883 184.953 124.648C184.169 125.395 183.451 126.179 182.797 127C182.163 127.803 181.649 128.605 181.257 129.408C180.884 130.192 180.697 130.948 180.697 131.676C180.697 131.807 180.753 131.9 180.865 131.956C180.977 132.012 181.08 132.04 181.173 132.04C181.827 132.04 182.527 131.751 183.273 131.172C184.039 130.593 184.813 129.791 185.597 128.764C186.4 127.719 187.193 126.496 187.977 125.096C188.78 123.696 189.555 122.175 190.301 120.532ZM202.171 134.952C201.013 134.952 200.08 134.551 199.371 133.748C198.661 132.927 198.307 131.611 198.307 129.8C198.307 128.643 198.437 127.485 198.699 126.328C198.979 125.152 199.361 124.041 199.847 122.996C200.351 121.932 200.929 120.989 201.583 120.168C202.255 119.347 202.992 118.703 203.794 118.236C204.597 117.751 205.428 117.508 206.287 117.508C207.743 117.508 208.881 117.9 209.702 118.684C210.524 119.468 210.935 120.467 210.935 121.68C210.935 122.613 210.673 123.463 210.151 124.228C209.647 124.975 208.956 125.647 208.079 126.244C207.201 126.841 206.221 127.383 205.139 127.868C204.056 128.353 202.945 128.792 201.807 129.184C201.713 129.856 201.667 130.453 201.667 130.976C201.667 131.293 201.844 131.452 202.199 131.452C203.039 131.452 203.935 131.321 204.887 131.06C205.857 130.78 206.837 130.425 207.827 129.996C208.816 129.548 209.768 129.091 210.683 128.624C211.597 128.139 212.428 127.681 213.175 127.252C213.94 126.804 214.565 126.449 215.051 126.188C215.555 125.908 215.881 125.768 216.031 125.768C216.441 125.768 216.74 125.889 216.927 126.132C217.113 126.375 217.207 126.636 217.207 126.916C217.207 127.047 216.955 127.336 216.451 127.784C215.965 128.232 215.293 128.764 214.435 129.38C213.595 129.977 212.643 130.603 211.579 131.256C210.533 131.891 209.441 132.497 208.303 133.076C207.183 133.636 206.091 134.084 205.027 134.42C203.981 134.775 203.029 134.952 202.171 134.952ZM202.283 126.692C203.048 126.244 203.804 125.777 204.551 125.292C205.316 124.788 205.951 124.228 206.455 123.612C206.959 122.977 207.211 122.24 207.211 121.4C207.211 121.157 207.145 120.999 207.015 120.924C206.884 120.831 206.697 120.784 206.455 120.784C205.801 120.784 205.204 121.073 204.663 121.652C204.14 122.231 203.673 122.977 203.263 123.892C202.871 124.788 202.544 125.721 202.283 126.692ZM218.112 135.428C217.31 135.428 216.74 135.316 216.404 135.092C216.087 134.868 215.928 134.541 215.928 134.112C215.928 133.739 216.059 133.421 216.32 133.16C216.582 132.88 217.16 132.6 218.056 132.32C219.102 132.003 220.091 131.639 221.024 131.228C221.976 130.799 222.751 130.332 223.348 129.828C223.964 129.324 224.272 128.792 224.272 128.232C224.272 127.859 224.142 127.588 223.88 127.42C223.638 127.252 223.348 127.168 223.012 127.168C222.732 127.168 222.322 127.215 221.78 127.308C221.258 127.383 220.679 127.485 220.044 127.616C219.41 127.728 218.794 127.831 218.196 127.924C217.618 127.999 217.123 128.036 216.712 128.036C215.742 128.036 215.023 127.821 214.556 127.392C214.09 126.944 213.856 126.375 213.856 125.684C213.856 125.311 214.052 124.797 214.444 124.144C214.836 123.491 215.359 122.772 216.012 121.988C216.666 121.204 217.394 120.42 218.196 119.636C218.999 118.852 219.811 118.133 220.632 117.48C221.472 116.808 222.266 116.276 223.012 115.884C223.759 115.473 224.394 115.268 224.916 115.268C225.514 115.268 225.99 115.455 226.344 115.828C226.718 116.201 226.904 116.705 226.904 117.34C226.904 117.639 226.876 117.965 226.82 118.32C226.764 118.656 226.624 118.964 226.4 119.244C226.176 119.505 225.831 119.692 225.364 119.804C224.898 119.916 224.263 119.897 223.46 119.748C222.826 120.215 222.163 120.728 221.472 121.288C220.8 121.829 220.166 122.399 219.568 122.996C218.971 123.575 218.476 124.144 218.084 124.704C218.775 124.48 219.559 124.303 220.436 124.172C221.314 124.023 222.2 123.948 223.096 123.948C224.179 123.948 225.056 124.144 225.728 124.536C226.419 124.909 226.923 125.413 227.24 126.048C227.576 126.683 227.744 127.383 227.744 128.148C227.744 129.007 227.464 129.865 226.904 130.724C226.344 131.583 225.598 132.367 224.664 133.076C223.731 133.785 222.695 134.355 221.556 134.784C220.418 135.213 219.27 135.428 218.112 135.428ZM232.363 134.42C231.841 134.42 231.374 134.243 230.963 133.888C230.571 133.533 230.375 132.955 230.375 132.152C230.375 131.723 230.431 131.116 230.543 130.332C230.674 129.548 230.842 128.699 231.047 127.784C231.253 126.851 231.477 125.927 231.719 125.012C231.981 124.097 232.233 123.285 232.475 122.576C232.718 121.848 232.933 121.307 233.119 120.952C233.362 120.523 233.586 120.261 233.791 120.168C234.015 120.056 234.23 120 234.435 120C234.809 120 235.154 120.112 235.471 120.336C235.807 120.56 235.975 121.055 235.975 121.82C235.975 122.119 235.919 122.604 235.807 123.276C235.695 123.929 235.555 124.695 235.387 125.572C235.219 126.449 235.033 127.355 234.827 128.288C234.641 129.221 234.454 130.108 234.267 130.948C234.099 131.769 233.959 132.46 233.847 133.02C233.754 133.487 233.558 133.832 233.259 134.056C232.979 134.299 232.681 134.42 232.363 134.42ZM235.583 117.228C234.967 117.228 234.398 117.051 233.875 116.696C233.353 116.323 233.091 115.753 233.091 114.988C233.091 114.353 233.25 113.84 233.567 113.448C233.885 113.056 234.258 112.776 234.687 112.608C235.135 112.421 235.527 112.328 235.863 112.328C236.199 112.328 236.573 112.403 236.983 112.552C237.394 112.683 237.749 112.935 238.047 113.308C238.365 113.663 238.523 114.176 238.523 114.848C238.523 115.296 238.365 115.707 238.047 116.08C237.73 116.435 237.338 116.715 236.871 116.92C236.423 117.125 235.994 117.228 235.583 117.228ZM241.886 142.064C240.486 142.064 239.422 141.961 238.694 141.756C237.984 141.551 237.499 141.28 237.238 140.944C236.976 140.627 236.846 140.3 236.846 139.964C236.846 139.497 236.995 139.115 237.294 138.816C237.611 138.517 238.022 138.368 238.526 138.368C238.862 138.368 239.347 138.415 239.982 138.508C240.616 138.601 241.251 138.648 241.886 138.648C243.752 138.648 245.292 138.2 246.506 137.304C247.719 136.427 248.671 135.092 249.362 133.3C250.052 131.489 250.528 129.212 250.79 126.468C249.502 128.577 248.074 130.267 246.506 131.536C244.956 132.805 243.342 133.44 241.662 133.44C239.683 133.44 238.694 132.469 238.694 130.528C238.694 129.595 238.946 128.615 239.45 127.588C239.954 126.561 240.626 125.544 241.466 124.536C242.306 123.528 243.23 122.576 244.238 121.68C245.246 120.765 246.254 119.963 247.262 119.272C248.288 118.581 249.24 118.04 250.118 117.648C250.995 117.237 251.704 117.032 252.246 117.032C252.675 117.032 253.048 117.107 253.366 117.256C253.702 117.405 253.963 117.704 254.15 118.152C254.336 118.581 254.43 119.216 254.43 120.056C254.43 122.389 254.346 124.648 254.178 126.832C254.01 128.997 253.683 131.004 253.198 132.852C252.712 134.7 252.003 136.315 251.07 137.696C250.155 139.077 248.951 140.151 247.458 140.916C245.964 141.681 244.107 142.064 241.886 142.064ZM242.278 129.968C242.278 130.099 242.334 130.164 242.446 130.164C242.819 130.164 243.323 129.968 243.958 129.576C244.592 129.165 245.274 128.624 246.002 127.952C246.748 127.261 247.476 126.496 248.186 125.656C248.895 124.797 249.52 123.911 250.062 122.996C250.622 122.081 251.023 121.195 251.266 120.336C250.295 120.896 249.287 121.549 248.242 122.296C247.215 123.024 246.244 123.808 245.33 124.648C244.434 125.488 243.696 126.365 243.118 127.28C242.558 128.176 242.278 129.072 242.278 129.968ZM261.924 134C261.476 134 261.028 133.851 260.58 133.552C260.151 133.235 259.796 132.787 259.516 132.208C259.236 131.611 259.096 130.892 259.096 130.052C259.096 128.932 259.245 127.737 259.544 126.468C259.861 125.199 260.244 123.929 260.692 122.66C261.14 121.391 261.579 120.196 262.008 119.076C262.213 118.535 262.465 118.171 262.764 117.984C263.063 117.779 263.455 117.676 263.94 117.676C265.041 117.676 265.592 118.227 265.592 119.328C265.592 119.515 265.508 119.879 265.34 120.42C265.172 120.943 264.948 121.587 264.668 122.352C264.407 123.117 264.127 123.948 263.828 124.844C263.548 125.721 263.287 126.617 263.044 127.532C262.82 128.428 262.643 129.277 262.512 130.08C262.941 129.427 263.417 128.615 263.94 127.644C264.481 126.655 265.051 125.619 265.648 124.536C266.264 123.453 266.88 122.445 267.496 121.512C268.112 120.56 268.719 119.785 269.316 119.188C269.913 118.591 270.483 118.292 271.024 118.292C271.491 118.292 271.929 118.385 272.34 118.572C272.769 118.74 273.143 119.076 273.46 119.58C273.777 120.065 274.02 120.765 274.188 121.68C274.375 122.595 274.468 123.799 274.468 125.292C274.468 126.039 274.533 126.767 274.664 127.476C274.813 128.167 275.056 128.745 275.392 129.212C275.728 129.66 276.204 129.884 276.82 129.884C277.884 129.884 278.836 129.688 279.676 129.296C280.516 128.904 281.253 128.447 281.888 127.924C282.523 127.401 283.055 126.944 283.484 126.552C283.745 126.291 283.969 126.085 284.156 125.936C284.361 125.787 284.529 125.712 284.66 125.712C285.052 125.712 285.332 125.815 285.5 126.02C285.687 126.225 285.78 126.505 285.78 126.86C285.78 127.047 285.621 127.392 285.304 127.896C284.987 128.4 284.539 128.979 283.96 129.632C283.4 130.267 282.756 130.883 282.028 131.48C281.3 132.077 280.516 132.572 279.676 132.964C278.836 133.356 277.977 133.552 277.1 133.552C275.625 133.552 274.403 133.291 273.432 132.768C272.48 132.227 271.771 131.331 271.304 130.08C270.837 128.811 270.604 127.084 270.604 124.9C270.604 124.844 270.604 124.751 270.604 124.62C270.604 124.041 270.595 123.528 270.576 123.08C270.576 122.632 270.548 122.268 270.492 121.988C270.175 122.567 269.792 123.257 269.344 124.06C268.915 124.863 268.448 125.721 267.944 126.636C267.44 127.532 266.917 128.419 266.376 129.296C265.835 130.155 265.293 130.939 264.752 131.648C264.229 132.357 263.725 132.927 263.24 133.356C262.755 133.785 262.316 134 261.924 134ZM287.237 134.952C286.08 134.952 285.146 134.551 284.437 133.748C283.728 132.927 283.373 131.611 283.373 129.8C283.373 128.643 283.504 127.485 283.765 126.328C284.045 125.152 284.428 124.041 284.913 122.996C285.417 121.932 285.996 120.989 286.649 120.168C287.321 119.347 288.058 118.703 288.861 118.236C289.664 117.751 290.494 117.508 291.353 117.508C292.809 117.508 293.948 117.9 294.769 118.684C295.59 119.468 296.001 120.467 296.001 121.68C296.001 122.613 295.74 123.463 295.217 124.228C294.713 124.975 294.022 125.647 293.145 126.244C292.268 126.841 291.288 127.383 290.205 127.868C289.122 128.353 288.012 128.792 286.873 129.184C286.78 129.856 286.733 130.453 286.733 130.976C286.733 131.293 286.91 131.452 287.265 131.452C288.105 131.452 289.001 131.321 289.953 131.06C290.924 130.78 291.904 130.425 292.893 129.996C293.882 129.548 294.834 129.091 295.749 128.624C296.664 128.139 297.494 127.681 298.241 127.252C299.006 126.804 299.632 126.449 300.117 126.188C300.621 125.908 300.948 125.768 301.097 125.768C301.508 125.768 301.806 125.889 301.993 126.132C302.18 126.375 302.273 126.636 302.273 126.916C302.273 127.047 302.021 127.336 301.517 127.784C301.032 128.232 300.36 128.764 299.501 129.38C298.661 129.977 297.709 130.603 296.645 131.256C295.6 131.891 294.508 132.497 293.369 133.076C292.249 133.636 291.157 134.084 290.093 134.42C289.048 134.775 288.096 134.952 287.237 134.952ZM287.349 126.692C288.114 126.244 288.87 125.777 289.617 125.292C290.382 124.788 291.017 124.228 291.521 123.612C292.025 122.977 292.277 122.24 292.277 121.4C292.277 121.157 292.212 120.999 292.081 120.924C291.95 120.831 291.764 120.784 291.521 120.784C290.868 120.784 290.27 121.073 289.729 121.652C289.206 122.231 288.74 122.977 288.329 123.892C287.937 124.788 287.61 125.721 287.349 126.692ZM312.324 119.02C313.351 116.575 314.256 114.055 315.04 111.46C315.19 110.937 315.404 110.536 315.684 110.256C315.983 109.976 316.394 109.836 316.916 109.836C317.346 109.836 317.672 109.967 317.896 110.228C318.12 110.471 318.232 110.807 318.232 111.236C318.232 111.591 318.083 112.225 317.784 113.14C317.486 114.036 317.122 115.175 316.692 116.556C316.263 117.937 315.834 119.533 315.404 121.344C314.975 123.155 314.611 125.143 314.312 127.308C314.014 129.473 313.864 131.788 313.864 134.252C313.864 134.924 313.734 135.475 313.472 135.904C313.23 136.352 312.8 136.576 312.184 136.576C311.512 136.576 311.018 136.343 310.7 135.876C310.402 135.409 310.252 134.812 310.252 134.084C310.252 132.647 310.299 131.452 310.392 130.5C310.504 129.529 310.616 128.699 310.728 128.008C309.814 129.576 308.843 130.929 307.816 132.068C306.808 133.188 305.838 134.047 304.904 134.644C303.971 135.26 303.168 135.568 302.496 135.568C301.395 135.568 300.499 135.26 299.808 134.644C299.118 134.028 298.772 133.095 298.772 131.844C298.772 130.873 299.006 129.875 299.472 128.848C299.939 127.803 300.555 126.776 301.32 125.768C302.086 124.76 302.926 123.817 303.84 122.94C304.774 122.044 305.707 121.26 306.64 120.588C307.574 119.897 308.442 119.356 309.244 118.964C310.047 118.572 310.7 118.376 311.204 118.376C311.764 118.376 312.138 118.591 312.324 119.02ZM311.68 120.532C311.568 120.607 311.447 120.681 311.316 120.756C311.204 120.812 311.092 120.877 310.98 120.952C310.271 121.4 309.515 121.941 308.712 122.576C307.91 123.192 307.116 123.883 306.332 124.648C305.548 125.395 304.83 126.179 304.176 127C303.542 127.803 303.028 128.605 302.636 129.408C302.263 130.192 302.076 130.948 302.076 131.676C302.076 131.807 302.132 131.9 302.244 131.956C302.356 132.012 302.459 132.04 302.552 132.04C303.206 132.04 303.906 131.751 304.652 131.172C305.418 130.593 306.192 129.791 306.976 128.764C307.779 127.719 308.572 126.496 309.356 125.096C310.159 123.696 310.934 122.175 311.68 120.532ZM340.466 137.332C340.111 137.332 339.803 137.136 339.542 136.744C339.28 136.371 339.159 135.82 339.178 135.092C339.178 134.943 339.196 134.747 339.234 134.504C338.076 134.467 336.994 134.196 335.986 133.692C334.978 133.169 334.166 132.488 333.55 131.648C332.934 130.808 332.626 129.903 332.626 128.932C332.626 128.26 332.878 127.635 333.382 127.056C333.886 126.459 334.558 125.917 335.398 125.432C336.238 124.928 337.162 124.48 338.17 124.088C337.554 123.677 337.04 123.22 336.63 122.716C336.238 122.193 336.042 121.624 336.042 121.008C336.042 120.373 336.266 119.72 336.714 119.048C337.162 118.376 337.759 117.723 338.506 117.088C339.252 116.435 340.092 115.828 341.026 115.268C341.978 114.708 342.939 114.213 343.91 113.784C344.134 112.944 344.348 112.151 344.554 111.404C344.778 110.639 344.992 109.92 345.198 109.248C345.328 108.8 345.543 108.417 345.842 108.1C346.14 107.764 346.495 107.596 346.906 107.596C347.26 107.596 347.531 107.755 347.718 108.072C347.904 108.389 347.988 108.763 347.97 109.192C347.951 109.379 347.886 109.78 347.774 110.396C347.662 110.993 347.503 111.74 347.298 112.636C348.007 112.487 348.642 112.412 349.202 112.412C350.284 112.412 351.068 112.599 351.554 112.972C352.039 113.327 352.282 113.84 352.282 114.512C352.282 114.867 352.16 115.184 351.918 115.464C351.694 115.725 351.199 115.931 350.434 116.08C349.762 116.192 349.071 116.323 348.362 116.472C347.671 116.603 346.99 116.752 346.318 116.92C346.131 117.76 345.926 118.637 345.702 119.552C345.496 120.448 345.282 121.372 345.058 122.324C345.86 122.212 346.542 122.156 347.102 122.156C347.774 122.156 348.399 122.268 348.978 122.492C349.556 122.716 349.846 123.117 349.846 123.696C349.846 124.013 349.696 124.349 349.398 124.704C349.099 125.04 348.539 125.329 347.718 125.572C346.915 125.815 345.748 125.945 344.218 125.964C344.05 126.711 343.872 127.457 343.686 128.204C343.518 128.932 343.359 129.66 343.21 130.388C344.479 130.164 345.636 129.884 346.682 129.548C347.746 129.193 348.67 128.839 349.454 128.484C350.256 128.129 350.91 127.84 351.414 127.616C351.918 127.373 352.254 127.252 352.422 127.252C352.739 127.252 353 127.364 353.206 127.588C353.411 127.793 353.514 128.055 353.514 128.372C353.514 128.652 353.28 129.081 352.814 129.66C352.347 130.22 351.647 130.827 350.714 131.48C349.799 132.115 348.632 132.703 347.214 133.244C345.814 133.767 344.18 134.131 342.314 134.336C342.239 134.691 342.164 135.036 342.09 135.372C341.903 136.119 341.67 136.632 341.39 136.912C341.11 137.192 340.802 137.332 340.466 137.332ZM339.934 130.724C340.214 129.305 340.55 127.719 340.942 125.964C340.139 126.244 339.355 126.552 338.59 126.888C337.843 127.224 337.227 127.616 336.742 128.064C336.256 128.512 336.014 129.053 336.014 129.688C336.014 129.949 336.163 130.164 336.462 130.332C336.76 130.481 337.143 130.593 337.61 130.668C338.076 130.724 338.562 130.752 339.066 130.752C339.346 130.752 339.635 130.743 339.934 130.724ZM341.642 122.996C341.828 122.175 342.015 121.344 342.202 120.504C342.407 119.664 342.612 118.833 342.818 118.012C341.828 118.404 341.016 118.843 340.382 119.328C339.747 119.795 339.43 120.308 339.43 120.868C339.43 121.279 339.626 121.671 340.018 122.044C340.41 122.417 340.904 122.744 341.502 123.024C341.539 123.024 341.586 123.015 341.642 122.996ZM373.765 134.868C372.645 134.868 371.87 134.644 371.441 134.196C371.03 133.767 370.825 133.169 370.825 132.404C370.825 129.156 371.431 125.768 372.645 122.24C373.877 118.693 375.603 115.137 377.825 111.572C378.198 110.956 378.506 110.592 378.749 110.48C378.991 110.368 379.262 110.312 379.561 110.312C379.99 110.312 380.363 110.461 380.681 110.76C381.017 111.059 381.185 111.451 381.185 111.936C381.185 112.085 381.026 112.496 380.709 113.168C380.391 113.84 379.971 114.699 379.449 115.744C378.945 116.789 378.394 117.975 377.797 119.3C377.199 120.607 376.611 121.988 376.033 123.444C375.473 124.9 374.987 126.365 374.577 127.84C375.211 127.037 375.93 126.216 376.733 125.376C377.554 124.517 378.403 123.733 379.281 123.024C380.158 122.296 381.007 121.717 381.829 121.288C382.65 120.84 383.387 120.616 384.041 120.616C384.657 120.616 385.226 120.765 385.749 121.064C386.29 121.363 386.729 121.829 387.065 122.464C387.401 123.099 387.569 123.92 387.569 124.928C387.569 126.029 387.251 127.159 386.617 128.316C386.001 129.473 385.095 130.547 383.901 131.536C382.725 132.525 381.278 133.328 379.561 133.944C377.862 134.56 375.93 134.868 373.765 134.868ZM374.941 131.676C376.378 131.564 377.675 131.256 378.833 130.752C380.009 130.248 381.017 129.623 381.857 128.876C382.697 128.129 383.341 127.345 383.789 126.524C384.237 125.684 384.461 124.891 384.461 124.144C384.461 123.976 384.414 123.892 384.321 123.892C383.929 123.892 383.434 124.069 382.837 124.424C382.239 124.76 381.586 125.217 380.877 125.796C380.167 126.375 379.449 127.009 378.721 127.7C377.993 128.391 377.302 129.081 376.649 129.772C375.995 130.463 375.426 131.097 374.941 131.676ZM400.566 135.26C400.136 135.26 399.744 135.083 399.39 134.728C399.054 134.392 398.886 133.823 398.886 133.02C398.886 132.423 398.932 131.592 399.026 130.528C399.138 129.445 399.343 128.055 399.642 126.356C398.988 127.7 398.307 128.895 397.598 129.94C396.888 130.985 396.188 131.807 395.498 132.404C394.826 132.983 394.182 133.272 393.566 133.272C392.576 133.272 391.792 132.973 391.214 132.376C390.635 131.76 390.346 130.612 390.346 128.932C390.346 128.129 390.411 127.224 390.542 126.216C390.691 125.208 390.878 124.2 391.102 123.192C391.326 122.184 391.55 121.288 391.774 120.504C392.016 119.701 392.231 119.104 392.418 118.712C392.567 118.376 392.754 118.115 392.978 117.928C393.22 117.741 393.528 117.648 393.902 117.648C394.499 117.648 394.956 117.844 395.274 118.236C395.591 118.628 395.75 119.029 395.75 119.44C395.75 119.757 395.675 120.215 395.526 120.812C395.395 121.409 395.227 122.072 395.022 122.8C394.835 123.528 394.639 124.275 394.434 125.04C394.228 125.805 394.051 126.524 393.902 127.196C393.771 127.868 393.706 128.437 393.706 128.904C393.706 129.483 393.93 129.772 394.378 129.772C394.639 129.772 394.975 129.52 395.386 129.016C395.815 128.512 396.263 127.84 396.73 127C397.215 126.141 397.7 125.208 398.186 124.2C398.69 123.173 399.147 122.137 399.558 121.092C399.987 120.028 400.351 119.048 400.65 118.152C400.836 117.592 401.088 117.2 401.406 116.976C401.723 116.752 402.087 116.64 402.498 116.64C403.132 116.64 403.618 116.817 403.954 117.172C404.308 117.527 404.486 118.031 404.486 118.684C404.486 118.983 404.439 119.487 404.346 120.196C404.252 120.905 404.131 121.736 403.982 122.688C403.851 123.64 403.692 124.648 403.506 125.712C403.319 126.776 403.132 127.821 402.946 128.848C402.778 129.875 402.61 130.817 402.442 131.676C402.274 132.516 402.134 133.188 402.022 133.692C401.835 134.439 401.611 134.887 401.35 135.036C401.088 135.185 400.827 135.26 400.566 135.26ZM409.523 134.42C409.001 134.42 408.534 134.243 408.123 133.888C407.731 133.533 407.535 132.955 407.535 132.152C407.535 131.723 407.591 131.116 407.703 130.332C407.834 129.548 408.002 128.699 408.207 127.784C408.413 126.851 408.637 125.927 408.879 125.012C409.141 124.097 409.393 123.285 409.635 122.576C409.878 121.848 410.093 121.307 410.279 120.952C410.522 120.523 410.746 120.261 410.951 120.168C411.175 120.056 411.39 120 411.595 120C411.969 120 412.314 120.112 412.631 120.336C412.967 120.56 413.135 121.055 413.135 121.82C413.135 122.119 413.079 122.604 412.967 123.276C412.855 123.929 412.715 124.695 412.547 125.572C412.379 126.449 412.193 127.355 411.987 128.288C411.801 129.221 411.614 130.108 411.427 130.948C411.259 131.769 411.119 132.46 411.007 133.02C410.914 133.487 410.718 133.832 410.419 134.056C410.139 134.299 409.841 134.42 409.523 134.42ZM412.743 117.228C412.127 117.228 411.558 117.051 411.035 116.696C410.513 116.323 410.251 115.753 410.251 114.988C410.251 114.353 410.41 113.84 410.727 113.448C411.045 113.056 411.418 112.776 411.847 112.608C412.295 112.421 412.687 112.328 413.023 112.328C413.359 112.328 413.733 112.403 414.143 112.552C414.554 112.683 414.909 112.935 415.207 113.308C415.525 113.663 415.683 114.176 415.683 114.848C415.683 115.296 415.525 115.707 415.207 116.08C414.89 116.435 414.498 116.715 414.031 116.92C413.583 117.125 413.154 117.228 412.743 117.228ZM422.763 135.4C421.083 135.4 419.758 134.887 418.787 133.86C417.835 132.815 417.359 131.331 417.359 129.408C417.359 128.363 417.499 127.14 417.779 125.74C418.059 124.321 418.423 122.828 418.871 121.26C419.338 119.673 419.833 118.105 420.355 116.556C420.897 115.007 421.429 113.569 421.951 112.244C422.474 110.919 422.931 109.808 423.323 108.912C423.659 108.221 424.135 107.876 424.751 107.876C425.143 107.876 425.461 107.997 425.703 108.24C425.965 108.483 426.095 108.875 426.095 109.416C426.095 109.677 425.965 110.247 425.703 111.124C425.442 112.001 425.097 113.084 424.667 114.372C424.257 115.641 423.809 117.013 423.323 118.488C422.857 119.963 422.409 121.447 421.979 122.94C421.569 124.433 421.233 125.843 420.971 127.168C420.71 128.475 420.579 129.585 420.579 130.5C420.579 130.873 420.682 131.172 420.887 131.396C421.111 131.62 421.401 131.732 421.755 131.732C422.521 131.732 423.305 131.592 424.107 131.312C424.929 131.032 425.731 130.677 426.515 130.248C427.318 129.819 428.074 129.361 428.783 128.876C429.493 128.391 430.127 127.933 430.687 127.504C431.266 127.056 431.733 126.701 432.087 126.44C432.554 126.085 432.871 125.908 433.039 125.908C433.674 125.908 433.991 126.216 433.991 126.832C433.991 126.981 433.805 127.289 433.431 127.756C433.114 128.167 432.666 128.689 432.087 129.324C431.509 129.959 430.837 130.631 430.071 131.34C429.325 132.031 428.522 132.684 427.663 133.3C426.823 133.916 425.983 134.42 425.143 134.812C424.303 135.204 423.51 135.4 422.763 135.4ZM452.217 119.888C452.217 120.112 452.142 120.308 451.993 120.476C451.844 120.644 451.657 120.775 451.433 120.868C451.116 120.999 450.565 121.167 449.781 121.372C448.997 121.577 448.045 121.811 446.925 122.072C445.824 122.333 444.638 122.604 443.369 122.884C442.1 123.145 440.83 123.397 439.561 123.64C439.076 125.432 438.581 127.28 438.077 129.184C437.573 131.069 437.069 132.927 436.565 134.756C436.378 135.409 436.154 135.904 435.893 136.24C435.632 136.595 435.184 136.772 434.549 136.772C433.858 136.772 433.392 136.548 433.149 136.1C432.925 135.671 432.897 135.083 433.065 134.336C433.55 132.301 433.998 130.407 434.409 128.652C434.838 126.897 435.184 125.479 435.445 124.396C434.325 124.583 433.345 124.732 432.505 124.844C431.665 124.937 431.068 124.975 430.713 124.956C430.321 124.919 429.994 124.76 429.733 124.48C429.472 124.2 429.35 123.855 429.369 123.444C429.406 123.071 429.574 122.753 429.873 122.492C430.172 122.212 430.526 122.044 430.937 121.988C431.516 121.932 432.262 121.848 433.177 121.736C434.092 121.624 435.1 121.493 436.201 121.344C436.444 120.392 436.724 119.412 437.041 118.404C437.358 117.377 437.685 116.397 438.021 115.464C438.376 114.512 438.712 113.681 439.029 112.972C439.346 112.263 439.636 111.749 439.897 111.432C440.102 111.189 440.354 111.003 440.653 110.872C440.97 110.741 441.278 110.676 441.577 110.676C441.969 110.676 442.286 110.816 442.529 111.096C442.772 111.376 442.893 111.703 442.893 112.076C442.893 112.225 442.884 112.384 442.865 112.552C442.846 112.701 442.809 112.851 442.753 113C442.398 113.933 442.016 115.063 441.605 116.388C441.213 117.713 440.802 119.169 440.373 120.756C441.773 120.551 443.145 120.345 444.489 120.14C445.852 119.916 447.084 119.711 448.185 119.524C449.305 119.319 450.201 119.141 450.873 118.992C451.246 118.861 451.564 118.889 451.825 119.076C452.086 119.244 452.217 119.515 452.217 119.888ZM465.913 134.868C464.793 134.868 464.019 134.644 463.589 134.196C463.179 133.767 462.973 133.169 462.973 132.404C462.973 129.156 463.58 125.768 464.793 122.24C466.025 118.693 467.752 115.137 469.973 111.572C470.347 110.956 470.655 110.592 470.897 110.48C471.14 110.368 471.411 110.312 471.709 110.312C472.139 110.312 472.512 110.461 472.829 110.76C473.165 111.059 473.333 111.451 473.333 111.936C473.333 112.085 473.175 112.496 472.857 113.168C472.54 113.84 472.12 114.699 471.597 115.744C471.093 116.789 470.543 117.975 469.945 119.3C469.348 120.607 468.76 121.988 468.181 123.444C467.621 124.9 467.136 126.365 466.725 127.84C467.36 127.037 468.079 126.216 468.881 125.376C469.703 124.517 470.552 123.733 471.429 123.024C472.307 122.296 473.156 121.717 473.977 121.288C474.799 120.84 475.536 120.616 476.189 120.616C476.805 120.616 477.375 120.765 477.897 121.064C478.439 121.363 478.877 121.829 479.213 122.464C479.549 123.099 479.717 123.92 479.717 124.928C479.717 126.029 479.4 127.159 478.765 128.316C478.149 129.473 477.244 130.547 476.049 131.536C474.873 132.525 473.427 133.328 471.709 133.944C470.011 134.56 468.079 134.868 465.913 134.868ZM467.089 131.676C468.527 131.564 469.824 131.256 470.981 130.752C472.157 130.248 473.165 129.623 474.005 128.876C474.845 128.129 475.489 127.345 475.937 126.524C476.385 125.684 476.609 124.891 476.609 124.144C476.609 123.976 476.563 123.892 476.469 123.892C476.077 123.892 475.583 124.069 474.985 124.424C474.388 124.76 473.735 125.217 473.025 125.796C472.316 126.375 471.597 127.009 470.869 127.7C470.141 128.391 469.451 129.081 468.797 129.772C468.144 130.463 467.575 131.097 467.089 131.676ZM486.463 141.7C485.418 141.7 484.466 141.635 483.607 141.504C482.749 141.392 481.909 141.205 481.087 140.944C480.266 140.683 479.379 140.337 478.427 139.908C478.035 139.721 477.709 139.525 477.447 139.32C477.186 139.115 477.055 138.807 477.055 138.396C477.055 137.799 477.242 137.341 477.615 137.024C477.97 136.725 478.465 136.576 479.099 136.576C479.435 136.576 479.865 136.688 480.387 136.912C480.91 137.155 481.507 137.425 482.179 137.724C482.87 138.041 483.635 138.312 484.475 138.536C485.315 138.779 486.221 138.9 487.191 138.9C488.181 138.9 489.105 138.489 489.963 137.668C490.822 136.847 491.513 135.689 492.035 134.196C492.577 132.721 492.847 130.976 492.847 128.96C492.847 128.493 492.838 127.989 492.819 127.448C492.801 126.888 492.782 126.3 492.763 125.684C492.091 126.953 491.363 128.139 490.579 129.24C489.795 130.341 488.983 131.237 488.143 131.928C487.322 132.6 486.491 132.936 485.651 132.936C484.625 132.936 483.878 132.693 483.411 132.208C482.963 131.704 482.739 130.911 482.739 129.828C482.739 128.913 482.805 127.915 482.935 126.832C483.085 125.731 483.281 124.62 483.523 123.5C483.766 122.38 484.046 121.316 484.363 120.308C484.699 119.281 485.054 118.395 485.427 117.648C485.707 117.107 486.137 116.836 486.715 116.836C487.089 116.836 487.462 117.013 487.835 117.368C488.227 117.723 488.423 118.199 488.423 118.796C488.423 119.132 488.339 119.617 488.171 120.252C488.003 120.887 487.798 121.605 487.555 122.408C487.331 123.192 487.098 124.023 486.855 124.9C486.613 125.759 486.407 126.608 486.239 127.448C486.071 128.269 485.987 129.016 485.987 129.688C485.987 129.763 486.043 129.8 486.155 129.8C486.379 129.8 486.678 129.613 487.051 129.24C487.443 128.848 487.873 128.344 488.339 127.728C488.825 127.093 489.31 126.403 489.795 125.656C490.299 124.891 490.785 124.135 491.251 123.388C491.718 122.641 492.138 121.96 492.511 121.344C492.455 121.045 492.418 120.784 492.399 120.56C492.399 120.317 492.399 120.112 492.399 119.944C492.399 119.179 492.53 118.544 492.791 118.04C493.071 117.536 493.613 117.284 494.415 117.284C494.938 117.284 495.339 117.48 495.619 117.872C495.899 118.245 496.039 118.777 496.039 119.468C496.039 119.767 495.993 120.112 495.899 120.504C495.806 120.877 495.619 121.475 495.339 122.296L495.647 121.428C495.815 123.108 495.955 124.601 496.067 125.908C496.198 127.215 496.263 128.512 496.263 129.8C496.263 132.227 495.853 134.327 495.031 136.1C494.229 137.892 493.09 139.273 491.615 140.244C490.159 141.215 488.442 141.7 486.463 141.7ZM518.121 135.092C517.374 135.092 516.814 134.887 516.441 134.476C516.067 134.065 515.881 133.645 515.881 133.216C515.881 132.712 515.974 132.329 516.161 132.068C516.347 131.807 516.711 131.611 517.253 131.48C517.962 131.331 518.699 131.144 519.465 130.92C520.249 130.696 520.995 130.463 521.705 130.22C522.433 129.959 523.067 129.697 523.609 129.436C524.15 129.156 524.542 128.895 524.785 128.652C524.486 128.484 524.01 128.288 523.357 128.064C522.703 127.821 521.975 127.541 521.173 127.224C520.389 126.888 519.633 126.496 518.905 126.048C518.177 125.6 517.579 125.077 517.113 124.48C516.646 123.883 516.413 123.201 516.413 122.436C516.413 121.372 516.683 120.373 517.225 119.44C517.766 118.507 518.485 117.639 519.381 116.836C520.277 116.033 521.247 115.296 522.293 114.624C523.357 113.952 524.411 113.345 525.457 112.804C526.521 112.244 527.473 111.749 528.313 111.32C528.63 111.133 528.929 111.012 529.209 110.956C529.507 110.881 529.778 110.844 530.021 110.844C530.861 110.844 531.439 111.049 531.757 111.46C532.074 111.871 532.233 112.291 532.233 112.72C532.233 113.019 532.093 113.373 531.813 113.784C531.533 114.176 531.085 114.54 530.469 114.876C529.871 115.212 529.078 115.455 528.089 115.604C527.921 115.623 527.771 115.641 527.641 115.66C526.894 116.033 526.091 116.481 525.233 117.004C524.374 117.527 523.562 118.077 522.797 118.656C522.05 119.216 521.434 119.776 520.949 120.336C520.463 120.896 520.221 121.4 520.221 121.848C520.221 122.352 520.426 122.809 520.837 123.22C521.247 123.612 521.77 123.976 522.405 124.312C523.058 124.629 523.739 124.937 524.449 125.236C525.177 125.535 525.858 125.843 526.493 126.16C527.146 126.459 527.678 126.795 528.089 127.168C528.499 127.541 528.705 127.961 528.705 128.428C528.705 129.063 528.49 129.669 528.061 130.248C527.631 130.827 527.071 131.368 526.381 131.872C525.69 132.357 524.934 132.796 524.113 133.188C523.291 133.58 522.479 133.916 521.677 134.196C520.893 134.495 520.183 134.719 519.549 134.868C518.914 135.017 518.438 135.092 518.121 135.092ZM535.852 135.064C535.254 135.064 534.713 134.896 534.228 134.56C533.742 134.243 533.36 133.823 533.08 133.3C532.8 132.759 532.66 132.18 532.66 131.564C532.66 130.407 532.912 129.277 533.416 128.176C533.938 127.075 534.62 126.029 535.46 125.04C536.3 124.051 537.214 123.145 538.204 122.324C539.212 121.484 540.21 120.765 541.2 120.168C542.208 119.571 543.122 119.104 543.944 118.768C544.784 118.432 545.437 118.264 545.904 118.264C546.445 118.264 546.884 118.385 547.22 118.628C547.574 118.852 547.752 119.207 547.752 119.692C547.752 119.841 547.714 119.963 547.64 120.056C547.882 120.112 548.078 120.252 548.228 120.476C548.377 120.7 548.452 121.036 548.452 121.484C548.452 121.671 548.405 122.156 548.312 122.94C548.218 123.724 548.116 124.676 548.004 125.796C547.91 126.916 547.864 128.083 547.864 129.296C547.864 129.483 547.892 129.651 547.948 129.8C548.004 129.931 548.125 129.996 548.312 129.996C549.058 129.996 549.814 129.847 550.58 129.548C551.364 129.231 552.12 128.848 552.848 128.4C553.594 127.933 554.266 127.476 554.864 127.028C555.48 126.561 555.993 126.179 556.404 125.88C556.833 125.563 557.113 125.404 557.244 125.404C557.878 125.404 558.196 125.721 558.196 126.356C558.196 126.524 557.99 126.879 557.58 127.42C557.188 127.943 556.646 128.549 555.956 129.24C555.265 129.912 554.49 130.584 553.632 131.256C552.792 131.909 551.914 132.451 551 132.88C550.104 133.309 549.236 133.524 548.396 133.524C547.369 133.524 546.585 133.281 546.044 132.796C545.521 132.311 545.148 131.657 544.924 130.836C544.718 129.996 544.606 129.053 544.588 128.008C543.636 129.371 542.646 130.584 541.62 131.648C540.612 132.693 539.613 133.524 538.624 134.14C537.634 134.756 536.71 135.064 535.852 135.064ZM545.764 121.036C543.934 121.913 542.292 122.921 540.836 124.06C539.38 125.18 538.222 126.356 537.364 127.588C536.524 128.82 536.104 130.005 536.104 131.144C536.104 131.461 536.253 131.62 536.552 131.62C536.906 131.62 537.373 131.415 537.952 131.004C538.549 130.593 539.193 130.052 539.884 129.38C540.574 128.689 541.265 127.924 541.956 127.084C542.646 126.225 543.29 125.348 543.888 124.452C544.485 123.556 544.961 122.697 545.316 121.876C545.446 121.577 545.596 121.297 545.764 121.036ZM580.55 133.356C580.438 134.364 579.841 134.868 578.758 134.868C578.198 134.868 577.75 134.7 577.414 134.364C577.097 134.028 576.938 133.543 576.938 132.908C576.938 131.825 576.985 130.668 577.078 129.436C577.19 128.185 577.321 126.925 577.47 125.656C577.638 124.387 577.797 123.173 577.946 122.016C577.274 122.987 576.565 123.985 575.818 125.012C575.071 126.039 574.325 127.037 573.578 128.008C572.831 128.979 572.113 129.856 571.422 130.64C570.75 131.405 570.134 132.021 569.574 132.488C569.014 132.936 568.547 133.16 568.174 133.16C567.278 133.16 566.503 132.833 565.85 132.18C565.197 131.508 564.87 130.659 564.87 129.632C564.87 129.277 564.907 128.801 564.982 128.204C565.057 127.588 565.15 126.935 565.262 126.244C565.374 125.553 565.467 124.9 565.542 124.284C565.617 123.668 565.654 123.183 565.654 122.828C565.654 122.828 565.654 122.809 565.654 122.772C565.673 122.679 565.654 122.632 565.598 122.632C565.523 122.632 565.318 122.884 564.982 123.388C564.646 123.873 564.235 124.508 563.75 125.292C563.265 126.076 562.751 126.897 562.21 127.756C561.687 128.615 561.193 129.417 560.726 130.164C560.278 130.911 559.905 131.489 559.606 131.9C559.195 132.535 558.813 132.936 558.458 133.104C558.103 133.272 557.693 133.356 557.226 133.356C556.573 133.356 556.059 133.141 555.686 132.712C555.331 132.264 555.154 131.639 555.154 130.836C555.154 130.5 555.21 129.977 555.322 129.268C555.453 128.559 555.611 127.775 555.798 126.916C555.985 126.039 556.171 125.189 556.358 124.368C556.563 123.528 556.741 122.819 556.89 122.24C557.058 121.475 557.291 120.943 557.59 120.644C557.907 120.327 558.309 120.168 558.794 120.168C559.933 120.168 560.502 120.728 560.502 121.848C560.502 122.053 560.437 122.389 560.306 122.856C560.175 123.323 560.017 123.864 559.83 124.48C559.643 125.096 559.447 125.731 559.242 126.384C559.037 127.019 558.869 127.616 558.738 128.176C559.186 127.392 559.671 126.552 560.194 125.656C560.717 124.76 561.249 123.883 561.79 123.024C562.35 122.165 562.901 121.381 563.442 120.672C564.002 119.963 564.553 119.403 565.094 118.992C565.635 118.563 566.149 118.348 566.634 118.348C567.119 118.348 567.595 118.525 568.062 118.88C568.529 119.216 568.911 119.655 569.21 120.196C569.527 120.719 569.686 121.279 569.686 121.876C569.686 122.436 569.611 123.108 569.462 123.892C569.313 124.676 569.145 125.497 568.958 126.356C568.771 127.215 568.641 128.055 568.566 128.876C569.201 128.167 569.873 127.364 570.582 126.468C571.291 125.553 572.019 124.611 572.766 123.64C573.513 122.669 574.241 121.727 574.95 120.812C575.678 119.897 576.35 119.067 576.966 118.32C577.601 117.573 578.161 116.985 578.646 116.556C579.131 116.108 579.505 115.884 579.766 115.884C580.531 115.884 581.129 116.089 581.558 116.5C582.006 116.892 582.23 117.583 582.23 118.572C582.23 119.188 582.183 119.991 582.09 120.98C582.015 121.969 581.903 123.043 581.754 124.2C581.623 125.339 581.474 126.496 581.306 127.672C581.157 128.829 581.017 129.903 580.886 130.892C580.755 131.881 580.643 132.703 580.55 133.356ZM588.133 135.064C587.536 135.064 586.994 134.896 586.509 134.56C586.024 134.243 585.641 133.823 585.361 133.3C585.081 132.759 584.941 132.18 584.941 131.564C584.941 130.407 585.193 129.277 585.697 128.176C586.22 127.075 586.901 126.029 587.741 125.04C588.581 124.051 589.496 123.145 590.485 122.324C591.493 121.484 592.492 120.765 593.481 120.168C594.489 119.571 595.404 119.104 596.225 118.768C597.065 118.432 597.718 118.264 598.185 118.264C598.726 118.264 599.165 118.385 599.501 118.628C599.856 118.852 600.033 119.207 600.033 119.692C600.033 119.841 599.996 119.963 599.921 120.056C600.164 120.112 600.36 120.252 600.509 120.476C600.658 120.7 600.733 121.036 600.733 121.484C600.733 121.671 600.686 122.156 600.593 122.94C600.5 123.724 600.397 124.676 600.285 125.796C600.192 126.916 600.145 128.083 600.145 129.296C600.145 129.483 600.173 129.651 600.229 129.8C600.285 129.931 600.406 129.996 600.593 129.996C601.34 129.996 602.096 129.847 602.861 129.548C603.645 129.231 604.401 128.848 605.129 128.4C605.876 127.933 606.548 127.476 607.145 127.028C607.761 126.561 608.274 126.179 608.685 125.88C609.114 125.563 609.394 125.404 609.525 125.404C610.16 125.404 610.477 125.721 610.477 126.356C610.477 126.524 610.272 126.879 609.861 127.42C609.469 127.943 608.928 128.549 608.237 129.24C607.546 129.912 606.772 130.584 605.913 131.256C605.073 131.909 604.196 132.451 603.281 132.88C602.385 133.309 601.517 133.524 600.677 133.524C599.65 133.524 598.866 133.281 598.325 132.796C597.802 132.311 597.429 131.657 597.205 130.836C597 129.996 596.888 129.053 596.869 128.008C595.917 129.371 594.928 130.584 593.901 131.648C592.893 132.693 591.894 133.524 590.905 134.14C589.916 134.756 588.992 135.064 588.133 135.064ZM598.045 121.036C596.216 121.913 594.573 122.921 593.117 124.06C591.661 125.18 590.504 126.356 589.645 127.588C588.805 128.82 588.385 130.005 588.385 131.144C588.385 131.461 588.534 131.62 588.833 131.62C589.188 131.62 589.654 131.415 590.233 131.004C590.83 130.593 591.474 130.052 592.165 129.38C592.856 128.689 593.546 127.924 594.237 127.084C594.928 126.225 595.572 125.348 596.169 124.452C596.766 123.556 597.242 122.697 597.597 121.876C597.728 121.577 597.877 121.297 598.045 121.036ZM609.505 135.232C609.038 135.232 608.637 135.064 608.301 134.728C607.984 134.392 607.825 133.907 607.825 133.272C607.825 132.992 607.862 132.535 607.937 131.9C608.03 131.247 608.142 130.5 608.273 129.66C608.422 128.82 608.562 127.943 608.693 127.028C608.842 126.113 608.964 125.245 609.057 124.424C609.169 123.603 609.244 122.903 609.281 122.324C609.318 121.615 609.505 121.111 609.841 120.812C610.177 120.495 610.578 120.336 611.045 120.336C611.418 120.336 611.754 120.429 612.053 120.616C612.37 120.784 612.566 121.148 612.641 121.708C612.734 122.249 612.744 123.033 612.669 124.06C613.49 122.567 614.321 121.232 615.161 120.056C616.02 118.88 616.916 117.947 617.849 117.256C619.398 116.08 620.798 115.492 622.049 115.492C622.758 115.492 623.225 115.651 623.449 115.968C623.673 116.285 623.785 116.612 623.785 116.948C623.785 117.172 623.729 117.377 623.617 117.564C623.524 117.751 623.318 117.947 623.001 118.152C622.684 118.357 622.198 118.628 621.545 118.964C620.668 119.412 619.8 120 618.941 120.728C618.101 121.456 617.261 122.389 616.421 123.528C615.581 124.667 614.732 126.067 613.873 127.728C613.014 129.389 612.128 131.368 611.213 133.664C611.045 134.299 610.802 134.719 610.485 134.924C610.186 135.129 609.86 135.232 609.505 135.232ZM642.119 119.888C642.119 120.112 642.045 120.308 641.895 120.476C641.746 120.644 641.559 120.775 641.335 120.868C641.018 120.999 640.467 121.167 639.683 121.372C638.899 121.577 637.947 121.811 636.827 122.072C635.726 122.333 634.541 122.604 633.271 122.884C632.002 123.145 630.733 123.397 629.463 123.64C628.978 125.432 628.483 127.28 627.979 129.184C627.475 131.069 626.971 132.927 626.467 134.756C626.281 135.409 626.057 135.904 625.795 136.24C625.534 136.595 625.086 136.772 624.451 136.772C623.761 136.772 623.294 136.548 623.051 136.1C622.827 135.671 622.799 135.083 622.967 134.336C623.453 132.301 623.901 130.407 624.311 128.652C624.741 126.897 625.086 125.479 625.347 124.396C624.227 124.583 623.247 124.732 622.407 124.844C621.567 124.937 620.97 124.975 620.615 124.956C620.223 124.919 619.897 124.76 619.635 124.48C619.374 124.2 619.253 123.855 619.271 123.444C619.309 123.071 619.477 122.753 619.775 122.492C620.074 122.212 620.429 122.044 620.839 121.988C621.418 121.932 622.165 121.848 623.079 121.736C623.994 121.624 625.002 121.493 626.103 121.344C626.346 120.392 626.626 119.412 626.943 118.404C627.261 117.377 627.587 116.397 627.923 115.464C628.278 114.512 628.614 113.681 628.931 112.972C629.249 112.263 629.538 111.749 629.799 111.432C630.005 111.189 630.257 111.003 630.555 110.872C630.873 110.741 631.181 110.676 631.479 110.676C631.871 110.676 632.189 110.816 632.431 111.096C632.674 111.376 632.795 111.703 632.795 112.076C632.795 112.225 632.786 112.384 632.767 112.552C632.749 112.701 632.711 112.851 632.655 113C632.301 113.933 631.918 115.063 631.507 116.388C631.115 117.713 630.705 119.169 630.275 120.756C631.675 120.551 633.047 120.345 634.391 120.14C635.754 119.916 636.986 119.711 638.087 119.524C639.207 119.319 640.103 119.141 640.775 118.992C641.149 118.861 641.466 118.889 641.727 119.076C641.989 119.244 642.119 119.515 642.119 119.888ZM640.038 136.184C639.18 136.184 638.564 135.941 638.19 135.456C637.817 134.971 637.63 134.261 637.63 133.328C637.63 132.469 637.789 131.349 638.106 129.968C638.442 128.568 638.881 127.009 639.422 125.292C639.982 123.556 640.608 121.773 641.298 119.944C641.989 118.096 642.708 116.285 643.454 114.512C644.201 112.72 644.929 111.077 645.638 109.584C645.974 108.931 646.329 108.483 646.702 108.24C647.076 107.997 647.486 107.876 647.934 107.876C648.364 107.876 648.728 107.997 649.026 108.24C649.325 108.464 649.474 108.828 649.474 109.332C649.474 109.444 649.325 109.873 649.026 110.62C648.728 111.348 648.336 112.3 647.85 113.476C647.365 114.633 646.833 115.94 646.254 117.396C645.676 118.833 645.097 120.336 644.518 121.904C643.94 123.453 643.417 124.984 642.95 126.496C642.484 128.008 642.11 129.408 641.83 130.696C642.484 129.819 643.184 128.848 643.93 127.784C644.696 126.701 645.47 125.628 646.254 124.564C647.057 123.481 647.841 122.492 648.606 121.596C649.39 120.7 650.118 119.981 650.79 119.44C651.462 118.899 652.05 118.628 652.554 118.628C653.488 118.628 654.234 118.889 654.794 119.412C655.373 119.916 655.662 120.793 655.662 122.044C655.662 122.623 655.55 123.323 655.326 124.144C655.102 124.947 654.832 125.796 654.514 126.692C654.216 127.569 653.954 128.419 653.73 129.24C653.506 130.061 653.394 130.78 653.394 131.396C653.394 131.732 653.553 131.9 653.87 131.9C654.785 131.9 655.709 131.704 656.642 131.312C657.594 130.92 658.5 130.435 659.358 129.856C660.236 129.259 661.029 128.671 661.738 128.092C662.466 127.495 663.054 127 663.502 126.608C663.82 126.309 664.109 126.113 664.37 126.02C664.632 125.908 664.874 125.852 665.098 125.852C665.864 125.852 666.246 126.235 666.246 127C666.246 127.149 666.218 127.336 666.162 127.56C666.106 127.765 665.929 128.027 665.63 128.344C665.332 128.661 664.884 129.109 664.286 129.688C663.689 130.267 662.989 130.883 662.186 131.536C661.402 132.189 660.544 132.815 659.61 133.412C658.696 133.991 657.753 134.467 656.782 134.84C655.812 135.213 654.869 135.4 653.954 135.4C652.573 135.4 651.509 135.008 650.762 134.224C650.016 133.459 649.642 132.413 649.642 131.088C649.642 130.173 649.829 129.025 650.202 127.644C650.576 126.244 650.996 124.816 651.462 123.36C650.809 123.995 650.128 124.751 649.418 125.628C648.709 126.487 647.99 127.401 647.262 128.372C646.534 129.324 645.816 130.267 645.106 131.2C644.416 132.115 643.753 132.955 643.118 133.72C642.484 134.467 641.905 135.064 641.382 135.512C640.86 135.96 640.412 136.184 640.038 136.184ZM679.694 135.708C679.153 135.708 678.724 135.559 678.406 135.26C678.108 134.98 677.958 134.579 677.958 134.056C677.958 133.571 678.089 133.16 678.35 132.824C678.612 132.469 679.116 132.133 679.862 131.816C679.918 131.797 679.974 131.779 680.03 131.76C679.564 131.667 679.237 131.405 679.05 130.976C678.882 130.547 678.798 130.052 678.798 129.492C678.798 129.175 678.854 128.661 678.966 127.952C679.078 127.243 679.218 126.431 679.386 125.516C679.554 124.601 679.732 123.696 679.918 122.8C680.105 121.885 680.264 121.083 680.394 120.392C680.749 118.805 681.206 117.405 681.766 116.192C682.326 114.979 683.082 114.036 684.034 113.364C684.986 112.673 686.209 112.328 687.702 112.328C688.841 112.328 689.961 112.571 691.062 113.056C692.182 113.523 693.2 114.185 694.114 115.044C695.029 115.903 695.757 116.911 696.298 118.068C696.858 119.225 697.138 120.495 697.138 121.876C697.138 123.444 696.522 125.021 695.29 126.608C694.058 128.195 692.332 129.716 690.11 131.172C687.908 132.609 685.332 133.907 682.382 135.064C681.897 135.251 681.458 135.4 681.066 135.512C680.693 135.643 680.236 135.708 679.694 135.708ZM682.102 130.948C684.809 129.865 686.993 128.829 688.654 127.84C690.316 126.851 691.52 125.805 692.266 124.704C693.032 123.603 693.414 122.352 693.414 120.952C693.414 120.168 693.153 119.421 692.63 118.712C692.108 118.003 691.436 117.433 690.614 117.004C689.793 116.556 688.925 116.332 688.01 116.332C687.021 116.332 686.228 116.733 685.63 117.536C685.033 118.32 684.557 119.664 684.202 121.568C684.034 122.333 683.857 123.164 683.67 124.06C683.502 124.937 683.334 125.787 683.166 126.608C683.017 127.411 682.886 128.083 682.774 128.624C682.681 129.165 682.625 129.483 682.606 129.576C682.513 130.136 682.345 130.593 682.102 130.948ZM702.437 136.184C701.578 136.184 700.962 135.941 700.589 135.456C700.216 134.971 700.029 134.261 700.029 133.328C700.029 132.469 700.188 131.349 700.505 129.968C700.841 128.568 701.28 127.009 701.821 125.292C702.381 123.556 703.006 121.773 703.697 119.944C704.388 118.096 705.106 116.285 705.853 114.512C706.6 112.72 707.328 111.077 708.037 109.584C708.373 108.931 708.728 108.483 709.101 108.24C709.474 107.997 709.885 107.876 710.333 107.876C710.762 107.876 711.126 107.997 711.425 108.24C711.724 108.464 711.873 108.828 711.873 109.332C711.873 109.444 711.724 109.873 711.425 110.62C711.126 111.348 710.734 112.3 710.249 113.476C709.764 114.633 709.232 115.94 708.653 117.396C708.074 118.833 707.496 120.336 706.917 121.904C706.338 123.453 705.816 124.984 705.349 126.496C704.882 128.008 704.509 129.408 704.229 130.696C704.882 129.819 705.582 128.848 706.329 127.784C707.094 126.701 707.869 125.628 708.653 124.564C709.456 123.481 710.24 122.492 711.005 121.596C711.789 120.7 712.517 119.981 713.189 119.44C713.861 118.899 714.449 118.628 714.953 118.628C715.886 118.628 716.633 118.889 717.193 119.412C717.772 119.916 718.061 120.793 718.061 122.044C718.061 122.623 717.949 123.323 717.725 124.144C717.501 124.947 717.23 125.796 716.913 126.692C716.614 127.569 716.353 128.419 716.129 129.24C715.905 130.061 715.793 130.78 715.793 131.396C715.793 131.732 715.952 131.9 716.269 131.9C717.184 131.9 718.108 131.704 719.041 131.312C719.993 130.92 720.898 130.435 721.757 129.856C722.634 129.259 723.428 128.671 724.137 128.092C724.865 127.495 725.453 127 725.901 126.608C726.218 126.309 726.508 126.113 726.769 126.02C727.03 125.908 727.273 125.852 727.497 125.852C728.262 125.852 728.645 126.235 728.645 127C728.645 127.149 728.617 127.336 728.561 127.56C728.505 127.765 728.328 128.027 728.029 128.344C727.73 128.661 727.282 129.109 726.685 129.688C726.088 130.267 725.388 130.883 724.585 131.536C723.801 132.189 722.942 132.815 722.009 133.412C721.094 133.991 720.152 134.467 719.181 134.84C718.21 135.213 717.268 135.4 716.353 135.4C714.972 135.4 713.908 135.008 713.161 134.224C712.414 133.459 712.041 132.413 712.041 131.088C712.041 130.173 712.228 129.025 712.601 127.644C712.974 126.244 713.394 124.816 713.861 123.36C713.208 123.995 712.526 124.751 711.817 125.628C711.108 126.487 710.389 127.401 709.661 128.372C708.933 129.324 708.214 130.267 707.505 131.2C706.814 132.115 706.152 132.955 705.517 133.72C704.882 134.467 704.304 135.064 703.781 135.512C703.258 135.96 702.81 136.184 702.437 136.184ZM727.75 135.064C727.153 135.064 726.612 134.896 726.126 134.56C725.641 134.243 725.258 133.823 724.978 133.3C724.698 132.759 724.558 132.18 724.558 131.564C724.558 130.407 724.81 129.277 725.314 128.176C725.837 127.075 726.518 126.029 727.358 125.04C728.198 124.051 729.113 123.145 730.102 122.324C731.11 121.484 732.109 120.765 733.098 120.168C734.106 119.571 735.021 119.104 735.842 118.768C736.682 118.432 737.336 118.264 737.802 118.264C738.344 118.264 738.782 118.385 739.118 118.628C739.473 118.852 739.65 119.207 739.65 119.692C739.65 119.841 739.613 119.963 739.538 120.056C739.781 120.112 739.977 120.252 740.126 120.476C740.276 120.7 740.35 121.036 740.35 121.484C740.35 121.671 740.304 122.156 740.21 122.94C740.117 123.724 740.014 124.676 739.902 125.796C739.809 126.916 739.762 128.083 739.762 129.296C739.762 129.483 739.79 129.651 739.846 129.8C739.902 129.931 740.024 129.996 740.21 129.996C740.957 129.996 741.713 129.847 742.478 129.548C743.262 129.231 744.018 128.848 744.746 128.4C745.493 127.933 746.165 127.476 746.762 127.028C747.378 126.561 747.892 126.179 748.302 125.88C748.732 125.563 749.012 125.404 749.142 125.404C749.777 125.404 750.094 125.721 750.094 126.356C750.094 126.524 749.889 126.879 749.478 127.42C749.086 127.943 748.545 128.549 747.854 129.24C747.164 129.912 746.389 130.584 745.53 131.256C744.69 131.909 743.813 132.451 742.898 132.88C742.002 133.309 741.134 133.524 740.294 133.524C739.268 133.524 738.484 133.281 737.942 132.796C737.42 132.311 737.046 131.657 736.822 130.836C736.617 129.996 736.505 129.053 736.486 128.008C735.534 129.371 734.545 130.584 733.518 131.648C732.51 132.693 731.512 133.524 730.522 134.14C729.533 134.756 728.609 135.064 727.75 135.064ZM737.662 121.036C735.833 121.913 734.19 122.921 732.734 124.06C731.278 125.18 730.121 126.356 729.262 127.588C728.422 128.82 728.002 130.005 728.002 131.144C728.002 131.461 728.152 131.62 728.45 131.62C728.805 131.62 729.272 131.415 729.85 131.004C730.448 130.593 731.092 130.052 731.782 129.38C732.473 128.689 733.164 127.924 733.854 127.084C734.545 126.225 735.189 125.348 735.786 124.452C736.384 123.556 736.86 122.697 737.214 121.876C737.345 121.577 737.494 121.297 737.662 121.036ZM751.267 135.232C750.875 135.232 750.502 135.148 750.147 134.98C749.793 134.812 749.475 134.485 749.195 134C748.915 133.533 748.691 132.843 748.523 131.928C748.355 130.995 748.271 129.763 748.271 128.232C748.271 126.795 748.346 125.423 748.495 124.116C748.645 122.791 748.859 121.615 749.139 120.588C749.419 119.543 749.755 118.721 750.147 118.124C750.539 117.508 750.978 117.2 751.463 117.2C751.893 117.2 752.247 117.405 752.527 117.816C752.807 118.227 752.947 118.815 752.947 119.58C752.947 120.177 752.873 120.961 752.723 121.932C752.593 122.903 752.434 123.948 752.247 125.068C752.061 126.169 751.893 127.243 751.743 128.288C751.613 129.315 751.547 130.192 751.547 130.92C751.547 131.051 751.566 131.181 751.603 131.312C751.641 131.424 751.697 131.48 751.771 131.48C751.883 131.48 752.07 131.209 752.331 130.668C752.593 130.127 752.91 129.417 753.283 128.54C753.675 127.644 754.095 126.673 754.543 125.628C755.01 124.583 755.495 123.556 755.999 122.548C756.522 121.521 757.045 120.607 757.567 119.804C758.015 119.113 758.547 118.581 759.163 118.208C759.779 117.835 760.349 117.648 760.871 117.648C761.338 117.648 761.795 117.769 762.243 118.012C762.71 118.255 763.093 118.619 763.391 119.104C763.69 119.589 763.839 120.196 763.839 120.924C763.839 121.204 763.802 121.671 763.727 122.324C763.671 122.959 763.597 123.687 763.503 124.508C763.41 125.311 763.317 126.123 763.223 126.944C763.13 127.747 763.046 128.465 762.971 129.1C762.915 129.735 762.887 130.183 762.887 130.444C762.887 130.481 762.887 130.528 762.887 130.584C762.887 130.789 762.897 130.995 762.915 131.2C762.934 131.387 762.99 131.48 763.083 131.48C763.289 131.48 763.55 131.247 763.867 130.78C764.203 130.295 764.577 129.651 764.987 128.848C765.417 128.045 765.865 127.149 766.331 126.16C766.798 125.171 767.274 124.153 767.759 123.108C768.263 122.044 768.758 121.036 769.243 120.084C769.617 119.281 769.934 118.777 770.195 118.572C770.457 118.348 770.709 118.236 770.951 118.236C771.287 118.236 771.642 118.404 772.015 118.74C772.389 119.076 772.575 119.599 772.575 120.308C772.575 120.551 772.566 120.793 772.547 121.036C772.529 121.279 772.463 121.531 772.351 121.792C771.605 123.677 770.83 125.423 770.027 127.028C769.243 128.615 768.459 129.996 767.675 131.172C766.891 132.348 766.135 133.263 765.407 133.916C764.679 134.569 763.998 134.896 763.363 134.896C762.057 134.896 761.049 134.551 760.339 133.86C759.649 133.151 759.303 132.199 759.303 131.004C759.303 130.556 759.331 129.987 759.387 129.296C759.443 128.587 759.509 127.821 759.583 127C759.677 126.16 759.77 125.329 759.863 124.508C759.957 123.687 760.05 122.931 760.143 122.24C760.181 121.979 760.134 121.811 760.003 121.736C759.891 121.661 759.789 121.745 759.695 121.988C759.453 122.623 759.191 123.313 758.911 124.06C758.631 124.807 758.37 125.46 758.127 126.02C757.735 126.953 757.278 127.952 756.755 129.016C756.251 130.08 755.701 131.088 755.103 132.04C754.506 132.973 753.881 133.739 753.227 134.336C752.574 134.933 751.921 135.232 751.267 135.232ZM778.119 134.112C776.943 134.112 776.084 133.757 775.543 133.048C775.02 132.32 774.759 131.396 774.759 130.276C774.759 129.212 774.992 128.185 775.459 127.196C775.925 126.188 776.551 125.227 777.335 124.312C778.119 123.397 778.996 122.548 779.967 121.764C780.937 120.961 781.917 120.243 782.907 119.608C783.915 118.955 784.876 118.404 785.791 117.956C786.705 117.489 787.499 117.135 788.171 116.892C788.843 116.649 789.328 116.528 789.627 116.528C789.944 116.528 790.205 116.612 790.411 116.78C790.635 116.929 790.747 117.228 790.747 117.676C790.747 118.143 790.56 118.563 790.187 118.936C789.813 119.309 789.356 119.627 788.815 119.888C788.049 120.261 787.181 120.719 786.211 121.26C785.259 121.783 784.297 122.38 783.327 123.052C782.356 123.724 781.46 124.443 780.639 125.208C779.836 125.973 779.183 126.776 778.679 127.616C778.175 128.437 777.923 129.277 777.923 130.136C777.923 130.323 777.96 130.472 778.035 130.584C778.109 130.696 778.268 130.752 778.511 130.752C778.828 130.752 779.248 130.603 779.771 130.304C780.293 129.987 780.863 129.576 781.479 129.072C782.095 128.549 782.711 127.98 783.327 127.364C783.943 126.729 784.512 126.095 785.035 125.46C785.576 124.807 786.024 124.2 786.379 123.64C786.64 123.211 786.948 122.856 787.303 122.576C787.676 122.296 788.059 122.156 788.451 122.156C788.768 122.156 789.029 122.249 789.235 122.436C789.459 122.604 789.571 122.912 789.571 123.36C789.571 123.509 789.561 123.864 789.543 124.424C789.524 124.965 789.496 125.628 789.459 126.412C789.44 127.177 789.431 127.98 789.431 128.82C789.431 129.548 789.496 130.183 789.627 130.724C789.776 131.247 790.084 131.508 790.551 131.508C791.111 131.508 791.689 131.312 792.287 130.92C792.884 130.509 793.463 129.996 794.023 129.38C794.601 128.745 795.133 128.073 795.619 127.364C796.104 126.655 796.515 125.983 796.851 125.348C797.205 124.695 797.457 124.172 797.607 123.78C797.849 122.137 798.167 120.849 798.559 119.916C798.951 118.964 799.38 118.292 799.847 117.9C800.332 117.508 800.799 117.312 801.247 117.312C801.751 117.312 802.171 117.433 802.507 117.676C802.861 117.919 803.039 118.488 803.039 119.384C803.039 119.851 802.843 120.551 802.451 121.484C802.059 122.417 801.536 123.444 800.883 124.564C800.733 125.404 800.64 126.272 800.603 127.168C800.565 128.064 800.621 128.904 800.771 129.688C801.275 129.333 801.788 128.811 802.311 128.12C802.833 127.411 803.356 126.627 803.879 125.768C804.401 124.891 804.924 124.013 805.447 123.136C805.969 122.24 806.483 121.419 806.987 120.672C807.509 119.925 808.013 119.328 808.499 118.88C809.003 118.413 809.497 118.18 809.983 118.18C810.487 118.18 810.944 118.273 811.355 118.46C811.784 118.628 812.139 118.964 812.419 119.468C812.717 119.953 812.941 120.653 813.091 121.568C813.259 122.464 813.343 123.64 813.343 125.096C813.343 125.861 813.417 126.608 813.567 127.336C813.716 128.045 813.968 128.633 814.323 129.1C814.677 129.548 815.172 129.772 815.807 129.772C816.833 129.772 817.748 129.604 818.551 129.268C819.353 128.913 820.053 128.503 820.651 128.036C821.248 127.569 821.743 127.168 822.135 126.832C822.545 126.477 822.863 126.3 823.087 126.3C823.46 126.3 823.74 126.412 823.927 126.636C824.132 126.841 824.235 127.103 824.235 127.42C824.235 127.607 824.076 127.933 823.759 128.4C823.46 128.848 823.04 129.352 822.499 129.912C821.976 130.453 821.36 130.985 820.651 131.508C819.96 132.012 819.223 132.432 818.439 132.768C817.655 133.104 816.861 133.272 816.059 133.272C814.603 133.272 813.399 133.011 812.447 132.488C811.513 131.947 810.813 131.051 810.347 129.8C809.899 128.531 809.675 126.823 809.675 124.676C809.675 124.545 809.675 124.424 809.675 124.312C809.675 124.2 809.675 124.088 809.675 123.976C809.675 123.509 809.665 123.108 809.647 122.772C809.647 122.436 809.6 122.175 809.507 121.988C809.208 122.492 808.844 123.127 808.415 123.892C808.004 124.657 807.547 125.479 807.043 126.356C806.539 127.233 805.997 128.101 805.419 128.96C804.859 129.819 804.289 130.603 803.711 131.312C803.132 132.021 802.553 132.591 801.975 133.02C801.415 133.449 800.883 133.664 800.379 133.664C800.005 133.664 799.595 133.477 799.147 133.104C798.717 132.731 798.353 132.227 798.055 131.592C797.756 130.939 797.607 130.201 797.607 129.38C796.804 130.388 795.973 131.312 795.115 132.152C794.256 132.973 793.407 133.627 792.567 134.112C791.745 134.616 790.961 134.868 790.215 134.868C789.599 134.868 789.001 134.691 788.423 134.336C787.863 133.981 787.377 133.347 786.967 132.432C786.556 131.517 786.295 130.22 786.183 128.54C785.305 129.641 784.391 130.612 783.439 131.452C782.505 132.292 781.581 132.945 780.667 133.412C779.771 133.879 778.921 134.112 778.119 134.112Z" fill="black"/>
<path d="M865.435 132.718C866.105 132.011 866.965 131.297 867.579 130.413C868.858 128.574 870.034 126.662 871.201 124.749C873.417 121.115 875.596 117.459 877.976 113.504C874.882 114.513 872.585 117.124 868.949 116.512C869.271 115.944 869.366 115.495 869.605 115.398C873.265 113.912 876.423 111.655 879.453 109.188C881.917 107.181 883.22 107.727 883.519 110.756C883.833 113.936 884.508 117.08 884.98 120.246C885.056 120.762 884.896 121.312 884.835 121.948C883.487 121.324 882.257 118.7 881.146 114.076C880.751 114.703 880.443 115.158 880.169 115.632C877.396 120.414 874.681 125.229 871.831 129.965C870.916 131.487 869.78 132.931 868.518 134.183C866.257 136.425 863.776 136.345 861.679 133.933C860.62 132.715 859.815 131.229 859.12 129.759C858.325 128.077 857.826 126.26 857.11 124.538C856.602 123.318 855.947 122.158 855.337 120.928C853.895 121.48 853.302 122.551 852.656 123.518C849.899 127.644 847.816 132.097 846.283 136.808C846.098 137.374 845.985 137.992 845.671 138.479C845.48 138.775 844.969 138.994 844.597 139C844.396 139.003 844.02 138.494 844.011 138.206C843.984 137.394 843.994 136.549 844.189 135.766C845.518 130.432 847.684 125.453 850.824 120.921C851.455 120.01 852.226 119.15 853.081 118.446C854.624 117.175 856.192 117.236 857.432 118.792C858.44 120.056 859.209 121.549 859.874 123.033C860.848 125.21 861.581 127.492 862.523 129.684C863.048 130.907 863.695 132.121 865.435 132.718Z" fill="black"/>
</svg>
