<svg width="41" height="31" viewBox="0 0 41 31" fill="none" xmlns="http://www.w3.org/2000/svg">
<path d="M21.4352 24.7176C22.1049 24.0106 22.9654 23.2966 23.5793 22.4131C24.8577 20.5737 26.0343 18.6619 27.2009 16.7487C29.4166 13.115 31.596 9.45928 33.9761 5.50436C30.8815 6.51328 28.5854 9.12373 24.9492 8.51223C25.2711 7.94422 25.3656 7.49494 25.6047 7.39785C29.2645 5.91215 32.4233 3.65464 35.4526 1.18757C37.9167 -0.819293 39.2198 -0.273478 39.5188 2.75556C39.8326 5.93569 40.5081 9.07968 40.9796 12.2462C41.0564 12.7618 40.8955 13.3124 40.8349 13.9479C39.4868 13.3238 38.2572 10.6998 37.1462 6.07595C36.7512 6.70266 36.4434 7.1579 36.1685 7.63198C33.3962 12.4139 30.6807 17.2294 27.8313 21.9653C26.9155 23.4874 25.7804 24.9309 24.5177 26.1834C22.2573 28.4255 19.7761 28.3446 17.679 25.933C16.6196 24.7146 15.8149 23.2287 15.1199 21.7588C14.3248 20.0773 13.826 18.2601 13.1098 16.5382C12.6021 15.3176 11.9471 14.1576 11.3369 12.9283C9.89473 13.4804 9.30166 14.5514 8.65609 15.5176C5.89897 19.6442 3.81582 24.0972 2.2825 28.8076C2.09803 29.3743 1.98534 29.9918 1.67133 30.4787C1.47993 30.7753 0.968948 30.9937 0.597376 31C0.395819 31.0033 0.0198948 30.4937 0.0106289 30.2063C-0.0155777 29.394 -0.00608015 28.5491 0.189019 27.7663C1.51811 22.4324 3.68419 17.453 6.82383 12.9209C7.45508 12.0097 8.22569 11.1501 9.08115 10.4456C10.6242 9.17495 12.1919 9.23626 13.4323 10.7916C14.4403 12.0555 15.209 13.5486 15.8736 15.0331C16.848 17.2096 17.581 19.4918 18.5226 21.684C19.0478 22.9068 19.6954 24.1209 21.4352 24.7176Z" fill="black"/>
</svg>
