<svg width="69" height="69" viewBox="0 0 69 69" fill="none" xmlns="http://www.w3.org/2000/svg">
<path d="M25.875 5.75H14.375V11.5H8.625V17.25H2.875V34.5H8.625V40.25H14.375V46H20.125V51.75H25.875V57.5H31.625V63.25H37.375V57.5H43.125V51.75H48.875V46H54.625V40.25H60.375V34.5H66.125V17.25H60.375V11.5H54.625V5.75H43.125V11.5H37.375V17.25H31.625V11.5H25.875V5.75ZM25.875 11.5V17.25H31.625V23H37.375V17.25H43.125V11.5H54.625V17.25H60.375V34.5H54.625V40.25H48.875V46H43.125V51.75H37.375V57.5H31.625V51.75H25.875V46H20.125V40.25H14.375V34.5H8.625V17.25H14.375V11.5H25.875Z" fill="#C52929"/>
</svg>
