<svg fill="none" height="100%" width="100%" viewBox="0 0 700 300" xmlns:xlink="http://www.w3.org/1999/xlink" xmlns="http://www.w3.org/2000/svg"><defs><linearGradient id="i0" gradientUnits="userSpaceOnUse" spreadMethod="pad" x2="-83" y2="0" x1="392" y1="0"><stop offset="0%" stop-color="#ef9b4e" /><stop offset="50%" stop-color="#ee7574" /><stop offset="100%" stop-color="#ed4e9a" /></linearGradient><linearGradient id="i1" gradientUnits="userSpaceOnUse" spreadMethod="pad" x2="-83" y2="0" x1="392" y1="0"><stop offset="0%" stop-color="#ef9b4e" /><stop offset="50%" stop-color="#ee7574" /><stop offset="100%" stop-color="#ed4e9a" /></linearGradient><linearGradient id="i2" gradientUnits="userSpaceOnUse" spreadMethod="pad" x2="-83" y2="0" x1="392" y1="0"><stop offset="0%" stop-color="#331121" /><stop offset="50%" stop-color="#331121" /><stop offset="100%" stop-color="#331121" /></linearGradient><linearGradient id="i3" gradientUnits="userSpaceOnUse" spreadMethod="pad" x2="-83" y2="0" x1="392" y1="0"><stop offset="0%" stop-color="#ed4e9a" /><stop offset="50%" stop-color="#874472" /><stop offset="100%" stop-color="#22394b" /></linearGradient><linearGradient id="i4" gradientUnits="userSpaceOnUse" spreadMethod="pad" x2="-83" y2="0" x1="392" y1="0"><stop offset="0%" stop-color="#ed4e9a" /><stop offset="50%" stop-color="#874472" /><stop offset="100%" stop-color="#22394b" /></linearGradient><linearGradient id="i5" gradientUnits="userSpaceOnUse" spreadMethod="pad" x2="-83" y2="0" x1="392" y1="0"><stop offset="0%" stop-color="#ef9b4e" /><stop offset="50%" stop-color="#ee7574" /><stop offset="100%" stop-color="#ed4e9a" /></linearGradient></defs><g opacity="0" id="i6"><animate repeatCount="indefinite" attributeName="opacity" dur="10s" begin="0s" fill="freeze" values="0; 1; 1; 0; 0" keyTimes="0; 0.033334; 0.946667; 0.973333; 1" keySplines="0 0 1 1; 0 0 1 1; 0 0 1 1; 0 0 1 1" calcMode="spline" /><g transform="translate(349.831,148.229) scale(1,1) translate(-238.36,-22.81)"><g id="i7" transform="matrix(1,0,0,1,238.36,22.81)" fill="url(#i0)"><path fill-rule="evenodd" d="M-215.551,22.559C-227.962,22.559,-238.11,12.412,-238.11,0.001C-238.11,-12.411,-227.962,-22.559,-215.551,-22.559C-215.551,-22.559,215.551,-22.559,215.551,-22.559C227.962,-22.559,238.111,-12.411,238.111,0.001C238.111,12.412,227.962,22.559,215.551,22.559C215.551,22.559,-215.551,22.559,-215.551,22.559ZM-215.551,20.669C-215.551,20.669,215.551,20.669,215.551,20.669C226.919,20.669,236.22,11.369,236.22,0.001C236.22,-11.368,226.919,-20.67,215.551,-20.67C215.551,-20.67,-215.551,-20.67,-215.551,-20.67C-226.919,-20.67,-236.22,-11.368,-236.22,0.001C-236.22,11.369,-226.919,20.669,-215.551,20.669Z" /></g></g></g><g opacity="0" id="i8"><animate repeatCount="indefinite" attributeName="opacity" dur="10s" begin="0s" fill="freeze" values="0; 1; 1; 0; 0" keyTimes="0; 0.033334; 0.946667; 0.973333; 1" keySplines="0 0 1 1; 0 0 1 1; 0 0 1 1; 0 0 1 1" calcMode="spline" /><g transform="translate(349.831,148.229) scale(1,1) translate(-238.36,-22.81)"><g id="i7" transform="matrix(1,0,0,1,238.36,22.81)" fill="url(#i1)"><path fill-rule="evenodd" d="M-215.551,22.559C-227.962,22.559,-238.11,12.412,-238.11,0.001C-238.11,-12.411,-227.962,-22.559,-215.551,-22.559C-215.551,-22.559,215.551,-22.559,215.551,-22.559C227.962,-22.559,238.111,-12.411,238.111,0.001C238.111,12.412,227.962,22.559,215.551,22.559C215.551,22.559,-215.551,22.559,-215.551,22.559ZM-215.551,20.669C-215.551,20.669,215.551,20.669,215.551,20.669C226.919,20.669,236.22,11.369,236.22,0.001C236.22,-11.368,226.919,-20.67,215.551,-20.67C215.551,-20.67,-215.551,-20.67,-215.551,-20.67C-226.919,-20.67,-236.22,-11.368,-236.22,0.001C-236.22,11.369,-226.919,20.669,-215.551,20.669Z" /></g></g></g><g opacity="0" id="i9"><animate repeatCount="indefinite" attributeName="opacity" dur="10s" begin="0s" fill="freeze" values="0; 1; 1; 0; 0" keyTimes="0; 0.033334; 0.946667; 0.973333; 1" keySplines="0 0 1 1; 0 0 1 1; 0 0 1 1; 0 0 1 1" calcMode="spline" /><g transform="translate(350.086,148.23) scale(1,1) translate(-231.433,-17.139)"><g id="i7" transform="matrix(1,0,0,1,231.198,17.14)" fill="url(#i2)"><path fill-rule="evenodd" d="M-213.886,-16.89C-225.458,-16.89,-230.948,-9.283,-230.948,-0.001C-230.948,9.281,-225.461,16.889,-213.886,16.889C-213.886,16.889,212.887,16.889,212.887,16.889C224.461,16.889,230.949,9.281,230.949,-0.001C230.949,-9.283,224.457,-16.89,212.887,-16.89C212.887,-16.89,-213.886,-16.89,-213.886,-16.89Z" /></g></g></g><g opacity="0" id="i10"><animate repeatCount="indefinite" attributeName="opacity" dur="10s" begin="0s" fill="freeze" values="0; 1; 1; 0; 0" keyTimes="0; 0.033334; 0.946667; 0.973333; 1" keySplines="0 0 1 1; 0 0 1 1; 0 0 1 1; 0 0 1 1" calcMode="spline" /><g transform="translate(350.086,148.23) scale(1,1) translate(-231.433,-17.139)"><g id="i7" transform="matrix(1,0,0,1,231.198,17.14)" fill="url(#i3)"><path fill-rule="evenodd" d="M-213.886,-16.89C-225.458,-16.89,-230.948,-9.283,-230.948,-0.001C-230.948,9.281,-225.461,16.889,-213.886,16.889C-213.886,16.889,-215.113,16.869,-215.113,16.869C-203.539,16.869,-197.051,9.261,-197.051,-0.021C-197.051,-9.303,-203.543,-16.91,-215.113,-16.91C-215.113,-16.91,-213.886,-16.89,-213.886,-16.89Z"><animate repeatCount="indefinite" attributeName="d" dur="10s" begin="0s" calcMode="spline" values="M-213.886,-16.89C-225.458,-16.89,-230.948,-9.283,-230.948,-0.001C-230.948,9.281,-225.461,16.889,-213.886,16.889C-213.886,16.889,-215.113,16.869,-215.113,16.869C-203.539,16.869,-197.051,9.261,-197.051,-0.021C-197.051,-9.303,-203.543,-16.91,-215.113,-16.91C-215.113,-16.91,-213.886,-16.89,-213.886,-16.89Z; M-213.886,-16.89C-225.458,-16.89,-230.948,-9.283,-230.948,-0.001C-230.948,9.281,-225.461,16.889,-213.886,16.889C-213.886,16.889,-215.113,16.869,-215.113,16.869C-203.539,16.869,-197.051,9.261,-197.051,-0.021C-197.051,-9.303,-203.543,-16.91,-215.113,-16.91C-215.113,-16.91,-213.886,-16.89,-213.886,-16.89Z; M-213.886,-16.89C-225.458,-16.89,-230.948,-9.283,-230.948,-0.001C-230.948,9.281,-225.461,16.889,-213.886,16.889C-213.886,16.889,212.887,16.889,212.887,16.889C224.461,16.889,230.949,9.281,230.949,-0.001C230.949,-9.283,224.457,-16.89,212.887,-16.89C212.887,-16.89,-213.886,-16.89,-213.886,-16.89Z; M-213.886,-16.89C-225.458,-16.89,-230.948,-9.283,-230.948,-0.001C-230.948,9.281,-225.461,16.889,-213.886,16.889C-213.886,16.889,212.887,16.889,212.887,16.889C224.461,16.889,230.949,9.281,230.949,-0.001C230.949,-9.283,224.457,-16.89,212.887,-16.89C212.887,-16.89,-213.886,-16.89,-213.886,-16.89Z" keyTimes="0; 0.033333; 0.946667; 1" keySplines="0 0 1 1; 0.627 0 0.517 1; 0 0 1 1" fill="freeze" /></path></g></g></g><g opacity="0" id="i11"><animate repeatCount="indefinite" attributeName="opacity" dur="10s" begin="0s" fill="freeze" values="0; 1; 1; 0; 0" keyTimes="0; 0.033334; 0.946667; 0.973333; 1" keySplines="0 0 1 1; 0 0 1 1; 0 0 1 1; 0 0 1 1" calcMode="spline" /><g transform="translate(350.086,148.23) scale(1,1) translate(-231.433,-17.139)"><g id="i7" transform="matrix(1,0,0,1,231.198,17.14)" fill="url(#i4)"><path fill-rule="evenodd" d="M-213.886,-16.89C-225.458,-16.89,-230.948,-9.283,-230.948,-0.001C-230.948,9.281,-225.461,16.889,-213.886,16.889C-213.886,16.889,-215.113,16.869,-215.113,16.869C-203.539,16.869,-197.051,9.261,-197.051,-0.021C-197.051,-9.303,-203.543,-16.91,-215.113,-16.91C-215.113,-16.91,-213.886,-16.89,-213.886,-16.89Z"><animate repeatCount="indefinite" attributeName="d" dur="10s" begin="0s" calcMode="spline" values="M-213.886,-16.89C-225.458,-16.89,-230.948,-9.283,-230.948,-0.001C-230.948,9.281,-225.461,16.889,-213.886,16.889C-213.886,16.889,-215.113,16.869,-215.113,16.869C-203.539,16.869,-197.051,9.261,-197.051,-0.021C-197.051,-9.303,-203.543,-16.91,-215.113,-16.91C-215.113,-16.91,-213.886,-16.89,-213.886,-16.89Z; M-213.886,-16.89C-225.458,-16.89,-230.948,-9.283,-230.948,-0.001C-230.948,9.281,-225.461,16.889,-213.886,16.889C-213.886,16.889,-215.113,16.869,-215.113,16.869C-203.539,16.869,-197.051,9.261,-197.051,-0.021C-197.051,-9.303,-203.543,-16.91,-215.113,-16.91C-215.113,-16.91,-213.886,-16.89,-213.886,-16.89Z; M-213.886,-16.89C-225.458,-16.89,-230.948,-9.283,-230.948,-0.001C-230.948,9.281,-225.461,16.889,-213.886,16.889C-213.886,16.889,212.887,16.889,212.887,16.889C224.461,16.889,230.949,9.281,230.949,-0.001C230.949,-9.283,224.457,-16.89,212.887,-16.89C212.887,-16.89,-213.886,-16.89,-213.886,-16.89Z; M-213.886,-16.89C-225.458,-16.89,-230.948,-9.283,-230.948,-0.001C-230.948,9.281,-225.461,16.889,-213.886,16.889C-213.886,16.889,212.887,16.889,212.887,16.889C224.461,16.889,230.949,9.281,230.949,-0.001C230.949,-9.283,224.457,-16.89,212.887,-16.89C212.887,-16.89,-213.886,-16.89,-213.886,-16.89Z" keyTimes="0; 0.033333; 0.946667; 1" keySplines="0 0 1 1; 0.627 0 0.517 1; 0 0 1 1" fill="freeze" /></path></g></g></g><g opacity="0" id="i12"><animate repeatCount="indefinite" attributeName="opacity" dur="10s" begin="0s" fill="freeze" values="0; 1; 1; 0; 0" keyTimes="0; 0.033334; 0.946667; 0.973333; 1" keySplines="0 0 1 1; 0 0 1 1; 0 0 1 1; 0 0 1 1" calcMode="spline" /><g transform="translate(350.086,148.23) scale(1,1) translate(-231.433,-17.139)"><g id="i7" transform="matrix(1,0,0,1,231.198,17.14)" fill="url(#i5)"><path fill-rule="evenodd" d="M-213.886,-16.89C-225.458,-16.89,-230.948,-9.283,-230.948,-0.001C-230.948,9.281,-225.461,16.889,-213.886,16.889C-213.886,16.889,-215.113,16.869,-215.113,16.869C-203.539,16.869,-197.051,9.261,-197.051,-0.021C-197.051,-9.303,-203.543,-16.91,-215.113,-16.91C-215.113,-16.91,-213.886,-16.89,-213.886,-16.89Z"><animate repeatCount="indefinite" attributeName="d" dur="10s" begin="0s" calcMode="spline" values="M-213.886,-16.89C-225.458,-16.89,-230.948,-9.283,-230.948,-0.001C-230.948,9.281,-225.461,16.889,-213.886,16.889C-213.886,16.889,-215.113,16.869,-215.113,16.869C-203.539,16.869,-197.051,9.261,-197.051,-0.021C-197.051,-9.303,-203.543,-16.91,-215.113,-16.91C-215.113,-16.91,-213.886,-16.89,-213.886,-16.89Z; M-213.886,-16.89C-225.458,-16.89,-230.948,-9.283,-230.948,-0.001C-230.948,9.281,-225.461,16.889,-213.886,16.889C-213.886,16.889,-215.113,16.869,-215.113,16.869C-203.539,16.869,-197.051,9.261,-197.051,-0.021C-197.051,-9.303,-203.543,-16.91,-215.113,-16.91C-215.113,-16.91,-213.886,-16.89,-213.886,-16.89Z; M-213.886,-16.89C-225.458,-16.89,-230.948,-9.283,-230.948,-0.001C-230.948,9.281,-225.461,16.889,-213.886,16.889C-213.886,16.889,212.887,16.889,212.887,16.889C224.461,16.889,230.949,9.281,230.949,-0.001C230.949,-9.283,224.457,-16.89,212.887,-16.89C212.887,-16.89,-213.886,-16.89,-213.886,-16.89Z; M-213.886,-16.89C-225.458,-16.89,-230.948,-9.283,-230.948,-0.001C-230.948,9.281,-225.461,16.889,-213.886,16.889C-213.886,16.889,212.887,16.889,212.887,16.889C224.461,16.889,230.949,9.281,230.949,-0.001C230.949,-9.283,224.457,-16.89,212.887,-16.89C212.887,-16.89,-213.886,-16.89,-213.886,-16.89Z" keyTimes="0; 0.033333; 0.946667; 1" keySplines="0 0 1 1; 0.627 0 0.517 1; 0 0 1 1" fill="freeze" /></path></g></g></g><g opacity="0" id="i13"><animate repeatCount="indefinite" attributeName="opacity" dur="10s" begin="0s" fill="freeze" values="0; 1; 1; 0; 0" keyTimes="0; 0.033333; 0.946667; 0.953333; 1" keySplines="0 0 1 1; 0 0 1 1; 0 0 1 1; 0 0 1 1" calcMode="spline" /><g transform="translate(135.894,148.229)"><animateTransform repeatCount="indefinite" type="translate" attributeName="transform" dur="10s" begin="0s" calcMode="spline" values="135.894 148.229; 135.894 148.229; 563.894 148.229; 563.894 148.229" keyTimes="0; 0.033333; 0.946667; 1" keySplines="0 0 1 1; 0.627 0 0.517 1; 0 0 1 1" fill="freeze" /><g transform="scale(1.001,1.001) translate(-17.141,-17.14)"><g id="i7" transform="matrix(1,0,0,1,17.141,17.141)"><path fill="#ef9b4e" d="M0,16.89C9.303,16.89,16.891,9.304,16.891,0.001C16.891,-9.302,9.303,-16.89,0,-16.89C-9.303,-16.89,-16.891,-9.302,-16.891,0.001C-16.891,9.304,-9.303,16.89,0,16.89Z" /></g></g></g></g><g opacity="0" id="i14"><animate repeatCount="indefinite" attributeName="opacity" dur="10s" begin="0s" fill="freeze" values="0; 1; 1; 0; 0" keyTimes="0; 0.033333; 0.946667; 0.971667; 1" keySplines="0 0 1 1; 0 0 1 1; 0 0 1 1; 0 0 1 1" calcMode="spline" /><g transform="translate(349.564,194.908) scale(0.6,0.6) translate(41.162,13.294)"><text letter-spacing="0.76px" fill="#ef9b4e" dominant-baseline="middle" text-anchor="end" font-weight="700" font-size="38" font-family="TTNorms-Bold, Arial, sans-serif">0%</text></g></g><g opacity="0" id="i15"><animate repeatCount="indefinite" attributeName="opacity" dur="10s" begin="0s" fill="freeze" values="0; 1; 1; 0; 0" keyTimes="0; 0.033333; 0.946667; 0.971667; 1" keySplines="0 0 1 1; 0 0 1 1; 0 0 1 1; 0 0 1 1" calcMode="spline" /><g transform="translate(349.564,194.908) scale(0.6,0.6) translate(41.162,13.294)"><text letter-spacing="0.76px" fill="#ef9b4e" dominant-baseline="middle" text-anchor="end" font-weight="700" font-size="38" font-family="TTNorms-Bold, Arial, sans-serif">0%</text></g></g><g opacity="0" id="i16"><animate repeatCount="indefinite" attributeName="opacity" dur="10s" begin="0s" fill="freeze" values="0; 1; 1; 0; 0" keyTimes="0; 0.033334; 0.946667; 0.973333; 1" keySplines="0 0 1 1; 0 0 1 1; 0 0 1 1; 0 0 1 1" calcMode="spline" /><g transform="translate(348.5,110.5) scale(0.6,0.6) translate(0,0)"><text letter-spacing="0.76px" fill="#ef9b4e" dominant-baseline="middle" text-anchor="middle" font-weight="700" font-size="38" font-family="TTNorms-Bold, Arial, sans-serif">Loading...</text></g></g><g opacity="0" id="i17"><animate repeatCount="indefinite" attributeName="opacity" dur="10s" begin="0s" fill="freeze" values="0; 1; 1; 0; 0" keyTimes="0; 0.033334; 0.946667; 0.973333; 1" keySplines="0 0 1 1; 0 0 1 1; 0 0 1 1; 0 0 1 1" calcMode="spline" /><g transform="translate(348.5,110.5) scale(0.6,0.6) translate(0,0)"><text letter-spacing="0.76px" fill="#ef9b4e" dominant-baseline="middle" text-anchor="middle" font-weight="700" font-size="38" font-family="TTNorms-Bold, Arial, sans-serif">Loading...</text></g></g></svg>