<svg width="329" height="253" viewBox="0 0 329 253" fill="none" xmlns="http://www.w3.org/2000/svg">
<rect x="40" y="84" width="248" height="165" rx="10" fill="#FFD500"/>
<rect x="40" y="84" width="248" height="165" rx="10" stroke="black" stroke-width="8"/>
<circle cx="106.5" cy="119.5" r="10.5" fill="white"/>
<circle cx="106.5" cy="119.5" r="10.5" stroke="black" stroke-width="6"/>
<circle cx="106.5" cy="119.5" r="10.5" stroke="black" stroke-width="6"/>
<circle cx="217.5" cy="119.5" r="10.5" fill="white"/>
<circle cx="217.5" cy="119.5" r="10.5" stroke="black" stroke-width="6"/>
<circle cx="217.5" cy="119.5" r="10.5" stroke="black" stroke-width="6"/>
<path d="M44 93C44 90.2386 46.2386 88 49 88H77V245H49C46.2386 245 44 242.761 44 240V93Z" fill="#FBC700"/>
<circle cx="164.5" cy="13.5" r="10.5" fill="#60B9FE"/>
<circle cx="164.5" cy="13.5" r="10.5" stroke="black" stroke-width="6"/>
<circle cx="164.5" cy="13.5" r="10.5" stroke="black" stroke-width="6"/>
<path d="M60.2465 173.692V175.276C60.2465 176.068 60.0905 176.824 59.7785 177.544C59.4905 178.24 59.0825 178.864 58.5545 179.416C58.0265 179.968 57.4025 180.412 56.6825 180.748C55.9865 181.06 55.2305 181.216 54.4145 181.216C53.7185 181.216 53.0105 181.12 52.2905 180.928C51.5705 180.736 50.9225 180.4 50.3465 179.92C49.7705 179.44 49.2905 178.828 48.9065 178.084C48.5465 177.316 48.3665 176.344 48.3665 175.168V161.056C48.3665 160.216 48.5105 159.436 48.7985 158.716C49.0865 157.996 49.4945 157.372 50.0225 156.844C50.5505 156.316 51.1745 155.908 51.8945 155.62C52.6385 155.308 53.4545 155.152 54.3425 155.152C56.0705 155.152 57.4745 155.716 58.5545 156.844C59.0825 157.396 59.4905 158.056 59.7785 158.824C60.0905 159.568 60.2465 160.384 60.2465 161.272V162.712H56.5745V161.488C56.5745 160.768 56.3705 160.144 55.9625 159.616C55.5545 159.088 55.0025 158.824 54.3065 158.824C53.3945 158.824 52.7825 159.112 52.4705 159.688C52.1825 160.24 52.0385 160.948 52.0385 161.812V174.916C52.0385 175.66 52.1945 176.284 52.5065 176.788C52.8425 177.292 53.4305 177.544 54.2705 177.544C54.5105 177.544 54.7625 177.508 55.0265 177.436C55.3145 177.34 55.5785 177.196 55.8185 177.004C56.0345 176.812 56.2145 176.548 56.3585 176.212C56.5025 175.876 56.5745 175.456 56.5745 174.952V173.692H60.2465ZM61.5867 161.416C61.5867 160.384 61.7667 159.472 62.1267 158.68C62.4867 157.888 62.9667 157.228 63.5667 156.7C64.1427 156.196 64.7907 155.812 65.5107 155.548C66.2547 155.284 66.9987 155.152 67.7427 155.152C68.4867 155.152 69.2187 155.284 69.9387 155.548C70.6827 155.812 71.3547 156.196 71.9547 156.7C72.5307 157.228 72.9987 157.888 73.3587 158.68C73.7187 159.472 73.8987 160.384 73.8987 161.416V174.952C73.8987 176.032 73.7187 176.956 73.3587 177.724C72.9987 178.492 72.5307 179.128 71.9547 179.632C71.3547 180.16 70.6827 180.556 69.9387 180.82C69.2187 181.084 68.4867 181.216 67.7427 181.216C66.9987 181.216 66.2547 181.084 65.5107 180.82C64.7907 180.556 64.1427 180.16 63.5667 179.632C62.9667 179.128 62.4867 178.492 62.1267 177.724C61.7667 176.956 61.5867 176.032 61.5867 174.952V161.416ZM65.2587 174.952C65.2587 175.84 65.4987 176.5 65.9787 176.932C66.4827 177.34 67.0707 177.544 67.7427 177.544C68.4147 177.544 68.9907 177.34 69.4707 176.932C69.9747 176.5 70.2267 175.84 70.2267 174.952V161.416C70.2267 160.528 69.9747 159.88 69.4707 159.472C68.9907 159.04 68.4147 158.824 67.7427 158.824C67.0707 158.824 66.4827 159.04 65.9787 159.472C65.4987 159.88 65.2587 160.528 65.2587 161.416V174.952ZM75.6908 181V155.368H79.3628V177.328H86.6348V181H75.6908ZM87.575 181V155.368L91.247 155.368V177.328H98.519V181H87.575ZM99.4592 181V155.368H110.403V158.824H103.131V166.348H109.467V169.804H103.131V177.328H110.403V181H99.4592ZM123.007 173.692V175.276C123.007 176.068 122.851 176.824 122.539 177.544C122.251 178.24 121.843 178.864 121.315 179.416C120.787 179.968 120.163 180.412 119.443 180.748C118.747 181.06 117.991 181.216 117.175 181.216C116.479 181.216 115.771 181.12 115.051 180.928C114.331 180.736 113.683 180.4 113.107 179.92C112.531 179.44 112.051 178.828 111.667 178.084C111.307 177.316 111.127 176.344 111.127 175.168V161.056C111.127 160.216 111.271 159.436 111.559 158.716C111.847 157.996 112.255 157.372 112.783 156.844C113.311 156.316 113.935 155.908 114.655 155.62C115.399 155.308 116.215 155.152 117.103 155.152C118.831 155.152 120.235 155.716 121.315 156.844C121.843 157.396 122.251 158.056 122.539 158.824C122.851 159.568 123.007 160.384 123.007 161.272V162.712H119.335V161.488C119.335 160.768 119.131 160.144 118.723 159.616C118.315 159.088 117.763 158.824 117.067 158.824C116.155 158.824 115.543 159.112 115.231 159.688C114.943 160.24 114.799 160.948 114.799 161.812V174.916C114.799 175.66 114.955 176.284 115.267 176.788C115.603 177.292 116.191 177.544 117.031 177.544C117.271 177.544 117.523 177.508 117.787 177.436C118.075 177.34 118.339 177.196 118.579 177.004C118.795 176.812 118.975 176.548 119.119 176.212C119.263 175.876 119.335 175.456 119.335 174.952V173.692H123.007ZM126.976 181V158.824H122.728V155.368H134.896V158.824H130.648V181H126.976ZM135.185 181V155.368H138.857V181H135.185ZM140.84 181V155.368H144.368L149.912 170.812H149.984V155.368H153.656V181H150.2L144.584 165.592H144.512V181H140.84ZM155.325 161.416C155.325 160.384 155.505 159.472 155.865 158.68C156.225 157.888 156.705 157.228 157.305 156.7C157.881 156.196 158.529 155.812 159.249 155.548C159.993 155.284 160.737 155.152 161.481 155.152C162.225 155.152 162.957 155.284 163.677 155.548C164.421 155.812 165.093 156.196 165.693 156.7C166.269 157.228 166.737 157.888 167.097 158.68C167.457 159.472 167.637 160.384 167.637 161.416V162.712H163.965V161.416C163.965 160.528 163.713 159.88 163.209 159.472C162.729 159.04 162.153 158.824 161.481 158.824C160.809 158.824 160.221 159.04 159.717 159.472C159.237 159.88 158.997 160.528 158.997 161.416V174.952C158.997 175.84 159.237 176.5 159.717 176.932C160.221 177.34 160.809 177.544 161.481 177.544C162.153 177.544 162.729 177.34 163.209 176.932C163.713 176.5 163.965 175.84 163.965 174.952V170.128H161.049V166.888H167.637V174.952C167.637 176.032 167.457 176.956 167.097 177.724C166.737 178.492 166.269 179.128 165.693 179.632C165.093 180.16 164.421 180.556 163.677 180.82C162.957 181.084 162.225 181.216 161.481 181.216C160.737 181.216 159.993 181.084 159.249 180.82C158.529 180.556 157.881 180.16 157.305 179.632C156.705 179.128 156.225 178.492 155.865 177.724C155.505 176.956 155.325 176.032 155.325 174.952V161.416ZM174.668 181V155.368H178.196L182.912 168.94H182.984L187.664 155.368H191.228V181H187.556V165.412H187.484L183.848 176.428H182.012L178.412 165.412H178.34V181H174.668ZM193.232 181V155.368H204.176V158.824H196.904V166.348H203.24V169.804H196.904V177.328H204.176V181H193.232ZM205.116 181V155.368H208.644L213.36 168.94H213.432L218.112 155.368H221.676V181H218.004V165.412H217.932L214.296 176.428H212.46L208.86 165.412H208.788V181H205.116ZM223.464 161.416C223.464 160.384 223.644 159.472 224.004 158.68C224.364 157.888 224.844 157.228 225.444 156.7C226.02 156.196 226.668 155.812 227.388 155.548C228.132 155.284 228.876 155.152 229.62 155.152C230.364 155.152 231.096 155.284 231.816 155.548C232.56 155.812 233.232 156.196 233.832 156.7C234.408 157.228 234.876 157.888 235.236 158.68C235.596 159.472 235.776 160.384 235.776 161.416V174.952C235.776 176.032 235.596 176.956 235.236 177.724C234.876 178.492 234.408 179.128 233.832 179.632C233.232 180.16 232.56 180.556 231.816 180.82C231.096 181.084 230.364 181.216 229.62 181.216C228.876 181.216 228.132 181.084 227.388 180.82C226.668 180.556 226.02 180.16 225.444 179.632C224.844 179.128 224.364 178.492 224.004 177.724C223.644 176.956 223.464 176.032 223.464 174.952V161.416ZM227.136 174.952C227.136 175.84 227.376 176.5 227.856 176.932C228.36 177.34 228.948 177.544 229.62 177.544C230.292 177.544 230.868 177.34 231.348 176.932C231.852 176.5 232.104 175.84 232.104 174.952V161.416C232.104 160.528 231.852 159.88 231.348 159.472C230.868 159.04 230.292 158.824 229.62 158.824C228.948 158.824 228.36 159.04 227.856 159.472C227.376 159.88 227.136 160.528 227.136 161.416V174.952ZM241.24 158.824V166.816H243.328C243.976 166.816 244.492 166.732 244.876 166.564C245.26 166.372 245.56 166.108 245.776 165.772C245.968 165.436 246.1 165.028 246.172 164.548C246.244 164.044 246.28 163.468 246.28 162.82C246.28 162.172 246.244 161.608 246.172 161.128C246.1 160.624 245.956 160.192 245.74 159.832C245.284 159.16 244.42 158.824 243.148 158.824H241.24ZM237.568 181V155.368H243.472C247.792 155.368 249.952 157.876 249.952 162.892C249.952 164.404 249.712 165.688 249.232 166.744C248.776 167.8 247.96 168.652 246.784 169.3L250.744 181H246.856L243.436 170.056H241.24V181H237.568ZM251.565 181V155.368H255.237V181L251.565 181ZM257.364 181V155.368L268.308 155.368V158.824L261.036 158.824V166.348H267.372V169.804H261.036V177.328H268.308V181H257.364ZM281.128 162.748H277.456V161.92C277.456 161.08 277.252 160.36 276.844 159.76C276.46 159.136 275.8 158.824 274.864 158.824C274.36 158.824 273.952 158.92 273.64 159.112C273.328 159.304 273.076 159.544 272.884 159.832C272.692 160.144 272.56 160.504 272.488 160.912C272.416 161.296 272.38 161.704 272.38 162.136C272.38 162.64 272.392 163.06 272.416 163.396C272.464 163.732 272.56 164.032 272.704 164.296C272.848 164.56 273.052 164.788 273.316 164.98C273.604 165.172 273.988 165.364 274.468 165.556L277.276 166.672C278.092 166.984 278.752 167.356 279.256 167.788C279.76 168.196 280.156 168.676 280.444 169.228C280.708 169.804 280.888 170.464 280.984 171.208C281.08 171.928 281.128 172.756 281.128 173.692C281.128 174.772 281.02 175.78 280.804 176.716C280.588 177.628 280.24 178.408 279.76 179.056C279.256 179.728 278.596 180.256 277.78 180.64C276.964 181.024 275.968 181.216 274.792 181.216C273.904 181.216 273.076 181.06 272.308 180.748C271.54 180.436 270.88 180.004 270.328 179.452C269.776 178.9 269.332 178.264 268.996 177.544C268.684 176.8 268.528 175.996 268.528 175.132V173.764H272.2V174.916C272.2 175.588 272.392 176.2 272.776 176.752C273.184 177.28 273.856 177.544 274.792 177.544C275.416 177.544 275.896 177.46 276.232 177.292C276.592 177.1 276.868 176.836 277.06 176.5C277.252 176.164 277.36 175.768 277.384 175.312C277.432 174.832 277.456 174.304 277.456 173.728C277.456 173.056 277.432 172.504 277.384 172.072C277.336 171.64 277.24 171.292 277.096 171.028C276.928 170.764 276.7 170.548 276.412 170.38C276.148 170.212 275.788 170.032 275.332 169.84L272.704 168.76C271.12 168.112 270.052 167.26 269.5 166.204C268.972 165.124 268.708 163.78 268.708 162.172C268.708 161.212 268.84 160.3 269.104 159.436C269.368 158.572 269.764 157.828 270.292 157.204C270.796 156.58 271.432 156.088 272.2 155.728C272.992 155.344 273.928 155.152 275.008 155.152C275.92 155.152 276.748 155.32 277.492 155.656C278.26 155.992 278.92 156.436 279.472 156.988C280.576 158.14 281.128 159.46 281.128 160.948V162.748Z" fill="black"/>
<path d="M120.164 217.32C118.457 217.32 117.166 216.84 116.292 215.88C115.417 214.899 114.98 213.501 114.98 211.688V210.408H118.308V211.944C118.308 213.395 118.916 214.12 120.132 214.12C120.729 214.12 121.177 213.949 121.476 213.608C121.796 213.245 121.956 212.669 121.956 211.88C121.956 210.941 121.742 210.12 121.316 209.416C120.889 208.691 120.1 207.827 118.948 206.824C117.497 205.544 116.484 204.392 115.908 203.368C115.332 202.323 115.044 201.149 115.044 199.848C115.044 198.077 115.492 196.712 116.388 195.752C117.284 194.771 118.585 194.28 120.292 194.28C121.977 194.28 123.246 194.771 124.1 195.752C124.974 196.712 125.412 198.099 125.412 199.912V200.84H122.084V199.688C122.084 198.92 121.934 198.365 121.636 198.024C121.337 197.661 120.9 197.48 120.324 197.48C119.15 197.48 118.564 198.195 118.564 199.624C118.564 200.435 118.777 201.192 119.204 201.896C119.652 202.6 120.452 203.453 121.604 204.456C123.076 205.736 124.089 206.899 124.644 207.944C125.198 208.989 125.476 210.216 125.476 211.624C125.476 213.459 125.017 214.867 124.1 215.848C123.204 216.829 121.892 217.32 120.164 217.32ZM126.214 194.6H129.734V217H126.214V194.6ZM131.09 194.6H135.506L138.93 208.008H138.994V194.6H142.13V217H138.514L134.29 200.648H134.226V217H131.09V194.6ZM148.426 217.32C146.741 217.32 145.45 216.84 144.554 215.88C143.68 214.92 143.242 213.565 143.242 211.816V199.784C143.242 198.035 143.68 196.68 144.554 195.72C145.45 194.76 146.741 194.28 148.426 194.28C150.112 194.28 151.392 194.76 152.266 195.72C153.162 196.68 153.61 198.035 153.61 199.784V202.152H150.282V199.56C150.282 198.173 149.696 197.48 148.522 197.48C147.349 197.48 146.762 198.173 146.762 199.56V212.072C146.762 213.437 147.349 214.12 148.522 214.12C149.696 214.12 150.282 213.437 150.282 212.072V208.648H153.61V211.816C153.61 213.565 153.162 214.92 152.266 215.88C151.392 216.84 150.112 217.32 148.426 217.32ZM154.436 194.6H164.036V197.8H157.956V203.72H162.788V206.92H157.956V213.8H164.036V217H154.436V194.6ZM168.562 214.568C168.562 212.968 168.818 211.603 169.33 210.472C169.842 209.32 170.76 208.051 172.082 206.664C173.384 205.277 174.28 204.093 174.77 203.112C175.282 202.131 175.538 201.107 175.538 200.04C175.538 199.08 175.378 198.419 175.058 198.056C174.76 197.672 174.312 197.48 173.714 197.48C172.498 197.48 171.89 198.216 171.89 199.688V202.088H168.562V199.912C168.562 198.099 169.01 196.712 169.906 195.752C170.802 194.771 172.104 194.28 173.81 194.28C175.517 194.28 176.818 194.771 177.714 195.752C178.61 196.712 179.058 198.099 179.058 199.912C179.058 201.277 178.728 202.611 178.066 203.912C177.426 205.213 176.306 206.707 174.706 208.392C173.661 209.501 172.957 210.408 172.594 211.112C172.232 211.795 172.05 212.531 172.05 213.32V213.8H178.738V217H168.562V214.568ZM185.247 217.32C183.519 217.32 182.196 216.829 181.279 215.848C180.362 214.867 179.903 213.48 179.903 211.688V199.912C179.903 198.12 180.362 196.733 181.279 195.752C182.196 194.771 183.519 194.28 185.247 194.28C186.975 194.28 188.298 194.771 189.215 195.752C190.132 196.733 190.591 198.12 190.591 199.912V211.688C190.591 213.48 190.132 214.867 189.215 215.848C188.298 216.829 186.975 217.32 185.247 217.32ZM185.247 214.12C186.463 214.12 187.071 213.384 187.071 211.912V199.688C187.071 198.216 186.463 197.48 185.247 197.48C184.031 197.48 183.423 198.216 183.423 199.688V211.912C183.423 213.384 184.031 214.12 185.247 214.12ZM196.779 217.32C195.051 217.32 193.729 216.829 192.811 215.848C191.894 214.867 191.435 213.48 191.435 211.688V199.912C191.435 198.12 191.894 196.733 192.811 195.752C193.729 194.771 195.051 194.28 196.779 194.28C198.507 194.28 199.83 194.771 200.747 195.752C201.665 196.733 202.123 198.12 202.123 199.912V211.688C202.123 213.48 201.665 214.867 200.747 215.848C199.83 216.829 198.507 217.32 196.779 217.32ZM196.779 214.12C197.995 214.12 198.603 213.384 198.603 211.912V199.688C198.603 198.216 197.995 197.48 196.779 197.48C195.563 197.48 194.955 198.216 194.955 199.688V211.912C194.955 213.384 195.563 214.12 196.779 214.12ZM208.152 199.912H204.472V197.416C205.475 197.416 206.275 197.331 206.872 197.16C207.491 196.989 207.981 196.712 208.344 196.328C208.707 195.923 209.027 195.347 209.304 194.6H211.672V217H208.152V199.912Z" fill="black"/>
<line x1="167.545" y1="22.147" x2="213.545" y2="110.147" stroke="black" stroke-width="8"/>
<line x1="157.525" y1="21.8111" x2="112.567" y2="110.348" stroke="black" stroke-width="8"/>
</svg>
