<svg width="307" height="56" viewBox="0 0 307 56" fill="none" xmlns="http://www.w3.org/2000/svg">
<path d="M6.84 43.2002V36.8402H10.56C12.08 36.8402 13.26 36.2802 14.1 35.1602C14.98 34.0402 15.42 32.4802 15.42 30.4802C15.42 28.2802 14.96 26.6002 14.04 25.4402C13.12 24.2402 11.86 23.6402 10.26 23.6402H6.84V17.5202L10.08 17.5202C11.52 17.5202 12.64 17.0602 13.44 16.1402C14.24 15.2202 14.64 13.8202 14.64 11.9402C14.64 10.0602 14.26 8.66019 13.5 7.74019C12.74 6.82019 11.66 6.36019 10.26 6.36019H6.84V0.000193596H11.88C15.12 0.000193596 17.76 0.980194 19.8 2.9402C21.88 4.90019 22.92 7.56019 22.92 10.9202C22.92 13.0402 22.54 14.8602 21.78 16.3802C21.02 17.9002 20.02 19.0602 18.78 19.8602C17.58 20.6602 16.24 21.0602 14.76 21.0602V19.8002C16.4 19.8002 17.9 20.2802 19.26 21.2402C20.62 22.2002 21.72 23.5602 22.56 25.3202C23.4 27.0402 23.82 29.0802 23.82 31.4402C23.82 33.8002 23.34 35.8802 22.38 37.6802C21.42 39.4402 20.08 40.8002 18.36 41.7602C16.64 42.7202 14.64 43.2002 12.36 43.2002H6.84ZM4.47035e-08 43.2002L4.47035e-08 0.000193596L8.52 0.000193596L8.52 43.2002H4.47035e-08ZM38.152 43.2002C37.872 42.4802 37.672 41.7002 37.552 40.8602C37.472 39.9802 37.432 39.0602 37.432 38.1002H37.192L37.192 21.8402C37.192 20.4402 36.992 19.4602 36.592 18.9002C36.232 18.3002 35.632 18.0002 34.792 18.0002C33.952 18.0002 33.312 18.3202 32.872 18.9602C32.432 19.6002 32.212 20.5602 32.212 21.8402L24.952 21.8402C24.952 19.0002 25.892 16.6602 27.772 14.8202C29.652 12.9402 32.192 12.0002 35.392 12.0002C38.512 12.0002 40.912 12.8402 42.592 14.5202C44.272 16.2002 45.112 18.5602 45.112 21.6002L45.112 38.1002C45.112 38.9402 45.152 39.8002 45.232 40.6802C45.352 41.5202 45.552 42.3602 45.832 43.2002H38.152ZM30.832 43.8002C28.992 43.8002 27.452 43.1002 26.212 41.7002C24.972 40.3002 24.352 38.3802 24.352 35.9402C24.352 33.7402 24.832 31.9202 25.792 30.4802C26.752 29.0002 28.492 27.6202 31.012 26.3402L39.232 22.1402V28.3202L35.812 30.1802C34.532 30.8602 33.612 31.6002 33.052 32.4002C32.532 33.1602 32.272 34.0202 32.272 34.9802C32.272 35.9002 32.492 36.6002 32.932 37.0802C33.372 37.5602 33.952 37.8002 34.672 37.8002C35.392 37.8002 35.992 37.6002 36.472 37.2002C36.952 36.7602 37.192 36.2202 37.192 35.5802L37.732 38.8802C37.092 40.6002 36.192 41.8602 35.032 42.6602C33.872 43.4202 32.472 43.8002 30.832 43.8002ZM58.0102 43.8002C55.8102 43.8002 53.8302 43.1802 52.0702 41.9402C50.3102 40.7002 48.9102 38.9002 47.8702 36.5402C46.8702 34.1402 46.3702 31.2202 46.3702 27.7802C46.3702 24.3402 46.8902 21.4602 47.9302 19.1402C49.0102 16.7802 50.4502 15.0002 52.2502 13.8002C54.0902 12.6002 56.1102 12.0002 58.3102 12.0002C60.3502 12.0002 62.1902 12.4602 63.8302 13.3802C65.4702 14.3002 66.7502 15.7002 67.6702 17.5802C68.6302 19.4602 69.1102 21.8402 69.1102 24.7202L61.7902 24.7202C61.7902 22.3602 61.4702 20.7402 60.8302 19.8602C60.2302 18.9402 59.4702 18.4802 58.5502 18.4802C57.9102 18.4802 57.2902 18.7402 56.6902 19.2602C56.1302 19.7402 55.6702 20.6602 55.3102 22.0202C54.9502 23.3402 54.7702 25.2602 54.7702 27.7802C54.7702 30.3402 54.9502 32.3202 55.3102 33.7202C55.6702 35.0802 56.1302 36.0202 56.6902 36.5402C57.2902 37.0602 57.9102 37.3202 58.5502 37.3202C59.4702 37.3202 60.2302 36.8802 60.8302 36.0002C61.4702 35.0802 61.7902 33.4402 61.7902 31.0802L69.1102 31.0802C69.1102 33.9202 68.5902 36.2802 67.5502 38.1602C66.5502 40.0402 65.2102 41.4602 63.5302 42.4202C61.8502 43.3402 60.0102 43.8002 58.0102 43.8002ZM70.4283 43.2002L70.4283 0.000193596H78.7083L78.7083 43.2002H70.4283ZM84.7683 43.2002L78.0483 27.3002L84.4083 12.6002H92.9283L84.9483 28.6802L85.0683 25.8602L93.5283 43.2002H84.7683ZM111.414 43.8002C108.294 43.8002 105.974 43.0602 104.454 41.5802C102.974 40.0602 102.234 37.7602 102.234 34.6802V6.66019L110.514 3.00019V34.6802C110.514 35.5602 110.754 36.2202 111.234 36.6602C111.754 37.1002 112.534 37.3202 113.574 37.3202C113.974 37.3202 114.334 37.2802 114.654 37.2002C115.014 37.1202 115.354 37.0002 115.674 36.8402V43.0802C115.274 43.3202 114.694 43.5002 113.934 43.6202C113.174 43.7402 112.334 43.8002 111.414 43.8002ZM98.3344 19.0802V12.6002H115.434V19.0802H98.3344ZM127.533 43.8002C125.053 43.8002 122.853 43.1402 120.933 41.8202C119.053 40.5002 117.593 38.6402 116.553 36.2402C115.513 33.8402 114.993 31.0202 114.993 27.7802C114.993 24.5402 115.513 21.7402 116.553 19.3802C117.593 17.0202 119.053 15.2002 120.933 13.9202C122.813 12.6402 125.013 12.0002 127.533 12.0002C130.053 12.0002 132.253 12.6402 134.133 13.9202C136.013 15.2002 137.473 17.0202 138.513 19.3802C139.553 21.7402 140.073 24.5402 140.073 27.7802C140.073 31.0202 139.553 33.8402 138.513 36.2402C137.473 38.6402 136.013 40.5002 134.133 41.8202C132.253 43.1402 130.053 43.8002 127.533 43.8002ZM127.533 37.3202C128.333 37.3202 129.033 37.0202 129.633 36.4202C130.233 35.8202 130.693 34.8202 131.013 33.4202C131.373 32.0202 131.553 30.1402 131.553 27.7802C131.553 24.3402 131.173 21.9402 130.413 20.5802C129.693 19.1802 128.733 18.4802 127.533 18.4802C126.333 18.4802 125.353 19.1802 124.593 20.5802C123.873 21.9402 123.513 24.3402 123.513 27.7802C123.513 30.1402 123.673 32.0202 123.993 33.4202C124.353 34.8202 124.833 35.8202 125.433 36.4202C126.033 37.0202 126.733 37.3202 127.533 37.3202ZM158.589 43.8002C155.469 43.8002 153.149 43.0602 151.629 41.5802C150.149 40.0602 149.409 37.7602 149.409 34.6802V6.66019L157.689 3.00019V34.6802C157.689 35.5602 157.929 36.2202 158.409 36.6602C158.929 37.1002 159.709 37.3202 160.749 37.3202C161.149 37.3202 161.509 37.2802 161.829 37.2002C162.189 37.1202 162.529 37.0002 162.849 36.8402V43.0802C162.449 43.3202 161.869 43.5002 161.109 43.6202C160.349 43.7402 159.509 43.8002 158.589 43.8002ZM145.509 19.0802V12.6002H162.609V19.0802H145.509ZM163.958 43.2002V0.000193596L172.238 0.000193596V43.2002H163.958ZM178.358 43.2002V21.6002C178.358 20.5602 178.138 19.8002 177.698 19.3202C177.258 18.8402 176.618 18.6002 175.778 18.6002C175.018 18.6002 174.358 18.8002 173.798 19.2002C173.278 19.6002 172.878 20.1202 172.598 20.7602C172.358 21.4002 172.238 22.1202 172.238 22.9202L171.158 18.5402C171.958 16.4202 173.078 14.8002 174.518 13.6802C175.958 12.5602 177.718 12.0002 179.798 12.0002C181.918 12.0002 183.578 12.6802 184.778 14.0402C186.018 15.4002 186.638 17.3002 186.638 19.7402V43.2002H178.358ZM200.133 43.8002C197.693 43.8002 195.553 43.1402 193.713 41.8202C191.873 40.4602 190.433 38.5802 189.393 36.1802C188.393 33.7802 187.893 30.9802 187.893 27.7802C187.893 24.5402 188.413 21.7402 189.453 19.3802C190.493 17.0202 191.953 15.2002 193.833 13.9202C195.713 12.6402 197.933 12.0002 200.493 12.0002C202.933 12.0002 204.973 12.6002 206.613 13.8002C208.293 14.9602 209.573 16.6602 210.453 18.9002C211.333 21.1402 211.773 23.8602 211.773 27.0602C211.773 27.6202 211.753 28.1402 211.713 28.6202C211.713 29.1002 211.673 29.5402 211.593 29.9402L192.933 29.9402V24.6002L206.313 24.6002L204.633 26.4602C204.633 23.4602 204.273 21.3002 203.553 19.9802C202.833 18.6602 201.793 18.0002 200.433 18.0002C199.073 18.0002 198.033 18.7802 197.313 20.3402C196.593 21.8602 196.233 24.3402 196.233 27.7802C196.233 31.3002 196.573 33.8602 197.253 35.4602C197.933 37.0202 198.993 37.8002 200.433 37.8002C201.473 37.8002 202.273 37.4402 202.833 36.7202C203.393 36.0002 203.773 34.9202 203.973 33.4802H211.293C210.773 36.4802 209.593 38.9602 207.753 40.9202C205.913 42.8402 203.373 43.8002 200.133 43.8002ZM219.637 43.2002V0.000193596L231.577 0.000193596L240.697 40.5602H234.877L243.877 0.000193596L255.877 0.000193596V43.2002H247.597V5.88019L248.857 5.94019L240.637 43.2002H234.397L226.177 5.94019L227.437 5.88019V43.2002H219.637ZM272.204 43.2002C271.924 42.4802 271.724 41.7002 271.604 40.8602C271.524 39.9802 271.484 39.0602 271.484 38.1002H271.244V21.8402C271.244 20.4402 271.044 19.4602 270.644 18.9002C270.284 18.3002 269.684 18.0002 268.844 18.0002C268.004 18.0002 267.364 18.3202 266.924 18.9602C266.484 19.6002 266.264 20.5602 266.264 21.8402H259.004C259.004 19.0002 259.944 16.6602 261.824 14.8202C263.704 12.9402 266.244 12.0002 269.444 12.0002C272.564 12.0002 274.964 12.8402 276.644 14.5202C278.324 16.2002 279.164 18.5602 279.164 21.6002V38.1002C279.164 38.9402 279.204 39.8002 279.284 40.6802C279.404 41.5202 279.604 42.3602 279.884 43.2002H272.204ZM264.884 43.8002C263.044 43.8002 261.504 43.1002 260.264 41.7002C259.024 40.3002 258.404 38.3802 258.404 35.9402C258.404 33.7402 258.884 31.9202 259.844 30.4802C260.804 29.0002 262.544 27.6202 265.064 26.3402L273.284 22.1402V28.3202L269.864 30.1802C268.584 30.8602 267.664 31.6002 267.104 32.4002C266.584 33.1602 266.324 34.0202 266.324 34.9802C266.324 35.9002 266.544 36.6002 266.984 37.0802C267.424 37.5602 268.004 37.8002 268.724 37.8002C269.444 37.8002 270.044 37.6002 270.524 37.2002C271.004 36.7602 271.244 36.2202 271.244 35.5802L271.784 38.8802C271.144 40.6002 270.244 41.8602 269.084 42.6602C267.924 43.4202 266.524 43.8002 264.884 43.8002ZM296.742 43.8002C294.982 43.8002 293.362 43.2202 291.882 42.0602C290.402 40.9002 289.502 39.2402 289.182 37.0802H290.082V55.5002H281.802V12.6002H289.782V18.5402L289.302 18.4802C289.702 16.4002 290.622 14.8002 292.062 13.6802C293.542 12.5602 295.242 12.0002 297.162 12.0002C299.082 12.0002 300.722 12.6202 302.082 13.8602C303.482 15.1002 304.542 16.8802 305.262 19.2002C306.022 21.4802 306.402 24.2402 306.402 27.4802C306.402 30.8002 306.002 33.7002 305.202 36.1802C304.402 38.6202 303.282 40.5002 301.842 41.8202C300.402 43.1402 298.702 43.8002 296.742 43.8002ZM293.802 37.2002C295.122 37.2002 296.122 36.4402 296.802 34.9202C297.522 33.3602 297.882 30.9802 297.882 27.7802C297.882 24.5802 297.542 22.2602 296.862 20.8202C296.182 19.3402 295.182 18.6002 293.862 18.6002C292.542 18.6002 291.522 19.3802 290.802 20.9402C290.122 22.4602 289.782 24.8202 289.782 28.0202C289.782 31.1802 290.122 33.5002 290.802 34.9802C291.482 36.4602 292.482 37.2002 293.802 37.2002Z" fill="white" fill-opacity="0.33"/>
</svg>
