<svg width="213" height="60" viewBox="0 0 213 60" fill="none" xmlns="http://www.w3.org/2000/svg">
<rect width="213" height="60" fill="white"/>
<path d="M16.5647 44L16.5647 39.76H19.0447C20.058 39.76 20.8447 39.3867 21.4047 38.64C21.9914 37.8933 22.2847 36.8533 22.2847 35.52C22.2847 34.0533 21.978 32.9333 21.3647 32.16C20.7514 31.36 19.9114 30.96 18.8447 30.96H16.5647V26.88H18.7247C19.6847 26.88 20.4314 26.5733 20.9647 25.96C21.498 25.3467 21.7647 24.4133 21.7647 23.16C21.7647 21.9067 21.5114 20.9733 21.0047 20.36C20.498 19.7467 19.778 19.44 18.8447 19.44H16.5647V15.2L19.9247 15.2C22.0847 15.2 23.8447 15.8533 25.2047 17.16C26.5914 18.4667 27.2847 20.24 27.2847 22.48C27.2847 23.8933 27.0314 25.1067 26.5247 26.12C26.018 27.1333 25.3514 27.9067 24.5247 28.44C23.7247 28.9733 22.8314 29.24 21.8447 29.24V28.4C22.938 28.4 23.938 28.72 24.8447 29.36C25.7514 30 26.4847 30.9067 27.0447 32.08C27.6047 33.2267 27.8847 34.5867 27.8847 36.16C27.8847 37.7333 27.5647 39.12 26.9247 40.32C26.2847 41.4933 25.3914 42.4 24.2447 43.04C23.098 43.68 21.7647 44 20.2447 44H16.5647ZM12.0047 44L12.0047 15.2H17.6847L17.6847 44H12.0047ZM28.9928 44L28.9928 23.6H34.3128V28.64H34.5128L34.5128 44L28.9928 44ZM34.5128 32.4L33.8728 28.76C34.2461 26.76 34.8061 25.3333 35.5528 24.48C36.3261 23.6267 37.2595 23.2 38.3528 23.2C38.6461 23.2 38.9128 23.24 39.1528 23.32V28.8C39.0728 28.7733 38.9528 28.76 38.7928 28.76C38.6328 28.7333 38.4195 28.72 38.1528 28.72C37.0595 28.72 36.1795 28.9867 35.5128 29.52C34.8461 30.0533 34.5128 31.0133 34.5128 32.4ZM46.9812 44.4C45.3279 44.4 43.8612 43.96 42.5812 43.08C41.3279 42.2 40.3546 40.96 39.6612 39.36C38.9679 37.76 38.6212 35.88 38.6212 33.72C38.6212 31.56 38.9679 29.6933 39.6612 28.12C40.3546 26.5467 41.3279 25.3333 42.5812 24.48C43.8346 23.6267 45.3012 23.2 46.9812 23.2C48.6612 23.2 50.1279 23.6267 51.3812 24.48C52.6346 25.3333 53.6079 26.5467 54.3012 28.12C54.9946 29.6933 55.3412 31.56 55.3412 33.72C55.3412 35.88 54.9946 37.76 54.3012 39.36C53.6079 40.96 52.6346 42.2 51.3812 43.08C50.1279 43.96 48.6612 44.4 46.9812 44.4ZM46.9812 40.08C47.5146 40.08 47.9812 39.88 48.3812 39.48C48.7812 39.08 49.0879 38.4133 49.3012 37.48C49.5412 36.5467 49.6612 35.2933 49.6612 33.72C49.6612 31.4267 49.4079 29.8267 48.9012 28.92C48.4212 27.9867 47.7812 27.52 46.9812 27.52C46.1812 27.52 45.5279 27.9867 45.0212 28.92C44.5412 29.8267 44.3012 31.4267 44.3012 33.72C44.3012 35.2933 44.4079 36.5467 44.6212 37.48C44.8612 38.4133 45.1812 39.08 45.5812 39.48C45.9812 39.88 46.4479 40.08 46.9812 40.08ZM59.0775 44L54.7975 23.6H60.2375L62.3975 38.28H62.0375L64.4775 23.6H70.0775L72.5575 38.28H72.1975L74.3175 23.6H79.5975L75.3175 44H69.3175L66.9975 29.56H67.3975L65.0775 44H59.0775ZM85.8141 44.4C83.7607 44.4 82.1341 43.8133 80.9341 42.64C79.7607 41.4667 79.1207 39.8 79.0141 37.64H83.4541C83.5341 38.5467 83.7874 39.24 84.2141 39.72C84.6674 40.1733 85.2407 40.4 85.9341 40.4C86.4407 40.4 86.8407 40.2667 87.1341 40C87.4541 39.7333 87.6141 39.3467 87.6141 38.84C87.6141 38.36 87.4807 37.9467 87.2141 37.6C86.9741 37.2533 86.4274 36.8267 85.5741 36.32L83.2141 34.92C82.0941 34.2533 81.2407 33.44 80.6541 32.48C80.0674 31.52 79.7741 30.36 79.7741 29C79.7741 27.2933 80.3207 25.9067 81.4141 24.84C82.5074 23.7467 83.9341 23.2 85.6941 23.2C87.6141 23.2 89.1207 23.7467 90.2141 24.84C91.3074 25.9067 91.9074 27.4 92.0141 29.32H87.5741C87.5207 28.5467 87.3474 28 87.0541 27.68C86.7607 27.36 86.3874 27.2 85.9341 27.2C85.5074 27.2 85.1474 27.3333 84.8541 27.6C84.5607 27.84 84.4141 28.2 84.4141 28.68C84.4141 29.1067 84.5474 29.5067 84.8141 29.88C85.0807 30.2267 85.5607 30.6 86.2541 31L88.9341 32.56C89.9474 33.1467 90.7474 33.96 91.3341 35C91.9474 36.04 92.2541 37.2133 92.2541 38.52C92.2541 40.3067 91.6807 41.7333 90.5341 42.8C89.4141 43.8667 87.8407 44.4 85.8141 44.4ZM100.38 44.4C98.753 44.4 97.3264 43.96 96.0997 43.08C94.873 42.1733 93.913 40.92 93.2197 39.32C92.553 37.72 92.2197 35.8533 92.2197 33.72C92.2197 31.56 92.5664 29.6933 93.2597 28.12C93.953 26.5467 94.9264 25.3333 96.1797 24.48C97.433 23.6267 98.913 23.2 100.62 23.2C102.246 23.2 103.606 23.6 104.7 24.4C105.82 25.1733 106.673 26.3067 107.26 27.8C107.846 29.2933 108.14 31.1067 108.14 33.24C108.14 33.6133 108.126 33.96 108.1 34.28C108.1 34.6 108.073 34.8933 108.02 35.16H95.5797V31.6H104.5L103.38 32.84C103.38 30.84 103.14 29.4 102.66 28.52C102.18 27.64 101.486 27.2 100.58 27.2C99.673 27.2 98.9797 27.72 98.4997 28.76C98.0197 29.7733 97.7797 31.4267 97.7797 33.72C97.7797 36.0667 98.0064 37.7733 98.4597 38.84C98.913 39.88 99.6197 40.4 100.58 40.4C101.273 40.4 101.806 40.16 102.18 39.68C102.553 39.2 102.806 38.48 102.94 37.52H107.82C107.473 39.52 106.686 41.1733 105.46 42.48C104.233 43.76 102.54 44.4 100.38 44.4ZM120.503 44.4C118.423 44.4 116.876 43.9067 115.863 42.92C114.876 41.9067 114.383 40.3733 114.383 38.32V19.64L119.903 17.2V38.32C119.903 38.9067 120.063 39.3467 120.383 39.64C120.729 39.9333 121.249 40.08 121.943 40.08C122.209 40.08 122.449 40.0533 122.663 40C122.903 39.9467 123.129 39.8667 123.343 39.76V43.92C123.076 44.08 122.689 44.2 122.183 44.28C121.676 44.36 121.116 44.4 120.503 44.4ZM111.783 27.92V23.6L123.183 23.6V27.92H111.783ZM124.082 44V15.2L129.602 15.2V44H124.082ZM133.682 44V29.6C133.682 28.9067 133.535 28.4 133.242 28.08C132.949 27.76 132.522 27.6 131.962 27.6C131.455 27.6 131.015 27.7333 130.642 28C130.295 28.2667 130.029 28.6133 129.842 29.04C129.682 29.4667 129.602 29.9467 129.602 30.48L128.882 27.56C129.415 26.1467 130.162 25.0667 131.122 24.32C132.082 23.5733 133.255 23.2 134.642 23.2C136.055 23.2 137.162 23.6533 137.962 24.56C138.789 25.4667 139.202 26.7333 139.202 28.36V44H133.682ZM148.198 44.4C146.572 44.4 145.145 43.96 143.918 43.08C142.692 42.1733 141.732 40.92 141.038 39.32C140.372 37.72 140.038 35.8533 140.038 33.72C140.038 31.56 140.385 29.6933 141.078 28.12C141.772 26.5467 142.745 25.3333 143.998 24.48C145.252 23.6267 146.732 23.2 148.438 23.2C150.065 23.2 151.425 23.6 152.518 24.4C153.638 25.1733 154.492 26.3067 155.078 27.8C155.665 29.2933 155.958 31.1067 155.958 33.24C155.958 33.6133 155.945 33.96 155.918 34.28C155.918 34.6 155.892 34.8933 155.838 35.16L143.398 35.16V31.6H152.318L151.198 32.84C151.198 30.84 150.958 29.4 150.478 28.52C149.998 27.64 149.305 27.2 148.398 27.2C147.492 27.2 146.798 27.72 146.318 28.76C145.838 29.7733 145.598 31.4267 145.598 33.72C145.598 36.0667 145.825 37.7733 146.278 38.84C146.732 39.88 147.438 40.4 148.398 40.4C149.092 40.4 149.625 40.16 149.998 39.68C150.372 39.2 150.625 38.48 150.758 37.52L155.638 37.52C155.292 39.52 154.505 41.1733 153.278 42.48C152.052 43.76 150.358 44.4 148.198 44.4ZM160.962 44V23.6H166.282V28.64H166.482V44L160.962 44ZM166.482 32.4L165.842 28.76C166.215 26.76 166.775 25.3333 167.522 24.48C168.295 23.6267 169.228 23.2 170.322 23.2C170.615 23.2 170.882 23.24 171.122 23.32V28.8C171.042 28.7733 170.922 28.76 170.762 28.76C170.602 28.7333 170.388 28.72 170.122 28.72C169.028 28.72 168.148 28.9867 167.482 29.52C166.815 30.0533 166.482 31.0133 166.482 32.4ZM178.95 44.4C177.297 44.4 175.83 43.96 174.55 43.08C173.297 42.2 172.323 40.96 171.63 39.36C170.937 37.76 170.59 35.88 170.59 33.72C170.59 31.56 170.937 29.6933 171.63 28.12C172.323 26.5467 173.297 25.3333 174.55 24.48C175.803 23.6267 177.27 23.2 178.95 23.2C180.63 23.2 182.097 23.6267 183.35 24.48C184.603 25.3333 185.577 26.5467 186.27 28.12C186.963 29.6933 187.31 31.56 187.31 33.72C187.31 35.88 186.963 37.76 186.27 39.36C185.577 40.96 184.603 42.2 183.35 43.08C182.097 43.96 180.63 44.4 178.95 44.4ZM178.95 40.08C179.483 40.08 179.95 39.88 180.35 39.48C180.75 39.08 181.057 38.4133 181.27 37.48C181.51 36.5467 181.63 35.2933 181.63 33.72C181.63 31.4267 181.377 29.8267 180.87 28.92C180.39 27.9867 179.75 27.52 178.95 27.52C178.15 27.52 177.497 27.9867 176.99 28.92C176.51 29.8267 176.27 31.4267 176.27 33.72C176.27 35.2933 176.377 36.5467 176.59 37.48C176.83 38.4133 177.15 39.08 177.55 39.48C177.95 39.88 178.417 40.08 178.95 40.08ZM188.308 44V15.2H193.828V44H188.308ZM195.732 44V15.2L201.252 15.2V44H195.732Z" fill="black" fill-opacity="0.8"/>
</svg>
