<svg width="837" height="942" viewBox="0 0 837 942" fill="none" xmlns="http://www.w3.org/2000/svg">
<path d="M77.2472 401.277L82.8263 399.416L88.4054 401.277H104.523L110.722 399.416L113.821 403.758L118.78 407.48H136.137L137.997 409.342V414.305L136.137 419.267L139.857 422.369H144.196V427.332L146.676 431.055L147.915 433.536L154.734 437.879L160.313 442.221L164.653 444.703L168.372 449.666L170.852 450.906V452.147L171.471 452.768M171.471 452.768H178.91L183.869 449.045V445.323H181.39L178.91 442.842V440.36L181.39 437.879L188.209 436.638L190.068 432.916V418.027L185.729 414.925V403.138L188.209 394.453L191.308 393.212L195.647 389.49L198.127 391.971L196.887 394.453L201.846 397.555H209.905L214.244 400.036L218.584 404.999L214.244 406.24V419.888L207.425 421.129V426.092H219.203V421.129L222.303 419.888L223.543 416.786V413.064H235.941L239.66 416.786L245.239 417.406V407.48H247.719L249.578 403.138L251.438 400.036L245.239 399.416L243.999 394.453L245.239 390.73V387.629L249.578 385.767H261.356V375.842H258.257L254.538 378.323H242.14L238.42 375.842L235.941 373.36L234.701 368.397L235.941 362.814L238.42 361.573L242.14 357.851L245.239 355.369L247.719 353.508L251.438 350.406L254.538 349.166L258.257 345.443H263.216L268.175 341.721H271.275L274.374 337.999H276.234L282.433 333.036V328.693M171.471 452.768L175.811 460.212L173.951 464.555H171.471L167.752 466.416L165.892 468.897V486.888M159.074 224.471H153.494L147.915 226.332L140.477 233.776V237.499L137.997 244.323L134.278 249.906L131.798 256.73L128.699 260.452L123.739 262.934L118.16 267.276L113.201 270.378L110.722 275.962L107.002 284.647H105.143L102.043 290.23L99.5635 297.675H80.3467L76.0074 302.017H69.1886L67.3289 297.675L62.3697 292.091L58.0304 290.23L54.3111 294.573L49.9718 297.675L47.1069 303.878L45.6325 307.601L40.0535 311.943L36.3341 318.767L31.9948 322.49V331.795L33.8545 334.897L38.8137 337.999H45.6325L49.9718 339.86V361.573L54.3111 367.156L62.3697 369.017H65.4692V379.564L72.9079 388.249V391.351L76.0074 397.555V406.24L72.9079 411.823L69.1886 413.684H62.3697V408.721H60.51L58.0304 411.823H54.3111L48.732 413.684L45.6325 416.166H40.0535L36.3341 415.545L33.0939 411.823H10.673L9.05865 415.545V421.749L7.01199 426.916L1 429.193V434.156L3.47958 440.981L7.19896 444.082L12.1581 449.045L16.4974 454.008L22.0765 456.49H25.7958L31.9948 460.212H36.3341L42.533 456.49L48.732 454.008H54.3111L56.1708 452.147L60.51 450.906H62.3697L60.51 454.008L58.0304 456.49L54.3111 463.934L48.732 467.656L45.6325 469.518L38.8137 470.138H33.8545L30.1351 472.619H25.7958L22.0765 469.518L18.3571 472.619V478.203L19.5969 481.305L23.9362 486.888L25.7958 489.37L30.1351 491.231L31.9948 495.573L36.3341 497.744L42.533 504.879L45.6325 507.36L49.9718 509.842L54.3111 514.184L58.0304 516.045L62.3697 519.768L65.4692 522.249L69.1886 524.11H76.0074L83.4462 522.249L87.7855 519.768L93.3645 516.045L99.5635 514.184L105.143 511.083L110.102 507.36L112.581 501.777V495.573L110.102 491.231V486.888H114.441V479.443H120.02L118.16 481.305V486.888H123.12L121.88 489.37V495.573L128.699 497.744M200.607 148.786L201.226 149.406L197.507 153.128L190.068 156.23L183.869 160.573L179.53 166.156L175.811 170.499L179.53 179.184V192.212L175.811 195.934L165.892 204.619L159.074 213.304V224.471M244.619 197.795L242.14 200.276L242.759 205.239L245.859 211.443L245.239 214.545L241.52 215.165L237.8 221.369L232.841 223.23H229.122L226.022 226.332V230.675L223.543 233.776L220.443 235.017H204.946L200.607 236.878L198.747 239.98L196.887 236.878L195.027 231.295L191.308 230.675L187.589 228.813H180.77L178.29 230.054L172.711 228.813H165.272L159.693 225.091L159.074 224.471M201.226 149.406L197.507 145.684M200.607 148.786L197.507 145.684H186.349L182.01 143.823V135.137H175.811V132.035L172.091 126.452L165.892 121.489L162.173 116.526L165.892 113.424V104.119H162.173V97.2947L165.892 94.8132L168.372 90.4706H159.074V84.8873H162.173V79.3039H155.974V71.2391H162.173V67.4646H165.892L168.372 62.039H175.811L176.431 56.6133L172.711 51.8658H168.372V47.7965L159.693 45.0837L155.974 38.3016H147.915L140.477 32.8759L142.689 24.0592L147.915 19.3117H151.508L155.974 11.8514V7.78211H172.711V3.03463H190.068L195.647 1H200.607L205.566 3.03463H208.045L214.864 1H216.724L217.964 7.78211L222.923 11.8514L227.882 19.3117H232.841L237.8 24.0592L245.239 28.8066L249.578 32.8759L252.058 38.3016L256.397 41.0144L263.836 43.0491L266.935 47.7965V51.8658H281.193L288.012 47.7965L297.93 41.0144L302.889 36.267L306.609 32.8759H315.287L318.387 38.3016L323.346 43.0491L328.305 45.0837H333.884V47.7965L338.843 51.8658V56.6133L336.984 64.7518L336.364 71.2391L333.884 73.7206L333.264 75.6032L326.532 76.2814V79.3039L325.175 81.0289H320.866V87.3687L318.387 94.8132H305.369L306.609 100.019V104.119L305.369 108.461V113.424L312.188 116.526H318.387V137.619L315.287 143.823H312.188L308.468 145.684H300.41V137.619L295.451 143.823L292.971 141.341L287.116 137.826M300.41 186.628L303.509 189.73H306.609V187.249L304.129 184.767L302.889 183.526L301.65 181.665L298.55 179.804L299.79 177.323L301.65 172.36L299.79 170.499L297.93 168.017L298.55 165.536L299.79 161.813L298.55 159.332L294.211 154.989L292.971 151.267V145.684L286.772 137.619L287.116 137.826M302.889 183.526H304.749L309.708 178.563L310.948 180.424L312.808 185.387L315.907 188.489L319.627 192.832L323.346 195.934H333.884L336.364 197.175L338.843 201.517L341.323 203.378L344.422 208.341L354.341 212.063L358.68 215.165L361.78 218.267L362.399 220.749L358.68 224.471L354.961 226.952L353.101 229.434L349.382 233.156L347.522 236.258V240.601L346.282 244.323L344.422 247.425V253.008L343.183 256.11L338.843 260.452V267.276M338.843 267.276L344.422 270.999L349.382 272.86H354.341L358.68 275.341L363.639 280.925L370.458 284.647L375.417 288.989L378.517 291.471L382.856 293.952L386.575 295.193L391.535 297.054H398.973L402.693 302.638H413.851L415.71 305.74V310.702H428.728L431.208 315.045L433.068 312.564V310.702H439.267L441.746 312.564H446.395M338.843 267.276L336.984 267.897L333.264 266.036H328.305L323.346 264.175H320.866L317.147 262.314L312.808 257.971L309.088 257.351L303.509 253.628L301.65 250.526L303.509 246.184L300.41 244.323L296.69 241.221L293.591 238.739L291.111 235.638L289.252 229.434L283.673 228.193V235.638L281.193 238.739H274.994L271.895 235.638L273.134 228.193V226.332L274.994 221.989V218.888L271.895 216.406L268.175 214.545M569.445 339.24L565.725 343.582H563.246V344.823H550.848L548.368 346.064L543.409 344.823L539.69 343.582L537.83 339.24H534.731L532.251 343.582H529.151L523.572 339.24H520.473L514.894 337.378L509.315 336.138L508.075 337.378L505.595 339.24L500.636 337.378V332.415L497.537 329.934L495.057 332.415L491.338 333.656H485.759V332.415L480.8 329.934L479.56 327.453H476.46L470.261 324.351L468.402 320.008V315.665H465.922L459.723 312.564L457.244 310.702H454.144L451.045 312.564H446.395M590.521 318.147L591.761 315.665V306.36L593.001 301.397L590.521 299.536V292.091H581.843L576.883 293.952L573.784 295.814H570.707L569.445 301.397V303.878L567.232 307.601V315.045L565.725 318.147L567.232 323.73L570.707 327.453V333.656L569.445 339.24M569.445 339.24L571.708 337.999L573.164 340.359L575.024 343.582L573.164 347.304M565.725 318.147L570.707 322.008H578.761L581.843 319.891L588.662 319.185L590.521 318.147M619.036 333.656H612.837L608.498 329.934H595.48V327.453L591.761 323.73L590.521 318.147M775.87 326.832L778.35 322.49L780.829 321.249L782.689 319.388L784.549 318.147L790.128 316.906H795.087V312.564L793.227 307.601V302.638L795.087 297.675L796.327 294.573L793.227 292.712H784.549L782.689 296.434L778.35 297.675H772.771L769.671 299.536L762.232 300.777L760.993 302.638H756.653L752.934 307.601H747.975L741.156 312.564L739.916 316.906L737.437 319.388L735.577 324.351L730.618 325.591L729.378 326.832H712.021L706.442 324.351H699.623L695.904 326.832H689.085L683.506 329.934H676.687L671.728 332.415H640.113L635.154 329.934H630.814L626.475 333.656H612.837M626.475 333.656H619.036M683.506 329.934V310.702H674.207L671.728 306.36L674.207 299.536L678.546 301.397H683.506L687.225 299.536H690.944L699.003 298.295L702.722 293.952V288.989H705.822L710.781 283.406V280.925H715.12V277.823L721.319 274.101L723.799 272.239H728.758L734.957 269.758L736.197 268.517L741.776 267.276L745.495 263.554L751.074 259.832V252.388L755.413 251.147L762.852 252.388L765.332 255.489H769.671L773.391 257.351L778.35 258.591L781.449 255.489L785.788 254.249L788.888 251.147L791.367 249.906L792.607 248.665H802.526L803.765 249.906H806.245L807.485 251.147L806.245 255.489L807.485 257.351L811.824 261.073L813.064 263.554L814.304 267.276V269.758L812.444 273.48L811.824 275.341L816.783 273.48L818.643 274.101L821.123 276.582L823.602 277.823L824.222 281.545H828.561L831.041 280.925L834.76 283.406L836 286.508V295.193L831.661 298.295L829.181 299.536L825.462 302.638L823.602 305.74L824.222 310.702L825.462 313.804L829.181 316.906V323.11H826.702L823.602 320.008L821.123 318.767L818.643 316.906L815.543 315.665L809.964 316.906H805.005L799.426 318.767L789.508 328.693L784.549 333.036L778.35 335.517L773.391 338.619L772.151 342.341L770.291 345.443L771.531 349.166L773.391 354.129L775.25 357.23L772.151 361.573L769.051 363.434V367.777L766.572 369.017L764.092 371.499L762.232 374.601L760.373 375.221L758.513 376.617M723.799 422.99H726.898L731.857 423.61H736.197L738.676 424.851H745.495L747.355 420.508V416.786L749.835 412.443L751.074 406.86L752.934 403.758L754.794 401.277L756.653 399.416L757.893 396.934L760.373 393.832L761.612 388.869V387.629L758.513 385.147L756.653 383.286L757.893 377.082L758.513 376.617M687.845 432.916H688.465L689.705 434.777L691.564 440.981L692.804 442.842V452.147L694.044 456.49L695.904 460.832L697.763 464.555V471.379H698.383L699.003 477.582V484.407H700.863L701.483 482.545H703.962L706.442 483.786L709.541 485.647L710.781 482.545L716.36 477.582V471.999L715.12 468.277V458.971L716.36 456.49L718.84 453.388L722.559 452.147L723.799 450.286V440.36L722.559 434.777V424.851L723.799 422.99M723.799 422.99L721.319 421.749V419.267H712.021V409.962M623.376 369.39L623.996 369.638L621.516 371.499V373.98L618.417 377.082L619.656 380.804L622.136 382.045L627.095 383.286H629.575L633.294 385.767H643.212L648.172 384.527H651.891L655.61 383.286H661.809L664.909 386.388H671.108C672.761 385.974 676.315 385.023 677.307 384.527C678.298 384.03 678.546 384.32 678.546 384.527H685.365L688.465 388.869L692.322 389.972L692.804 390.11L695.904 391.971V393.832L692.804 394.453H689.705L688.465 396.314V400.036L687.225 403.758L685.365 408.101L681.646 409.962L679.786 412.443V414.305L673.587 417.406L671.108 418.027L667.388 420.508L664.909 421.749L660.569 424.851L658.71 427.332V434.156L659.33 439.119L663.049 442.842L663.669 447.184L664.909 447.805L668.008 451.527L669.248 453.388H676.687V447.805L677.307 442.842H679.786V437.879L681.646 434.777L684.125 432.916H688.465M684.125 432.916H687.845M614.697 353.508H615.317L618.417 357.851L619.656 360.953V365.916L620.896 368.397L623.376 369.39M598.58 351.647L602.299 354.749L606.638 357.851L610.358 359.091H611.598L612.837 353.508H615.317M612.837 353.508H614.697M345.042 741.861V738.139L341.323 729.453L340.083 722.629L341.323 719.527V714.564L338.223 707.74V692.231L341.323 687.268V685.407L345.042 679.824L348.142 675.481L352.481 672.999H358.06L359.92 675.481H361.78L364.259 674.24L368.598 670.518V667.416L370.458 664.314V657.49H389.055L394.014 655.629L398.353 653.768L402.693 651.286L403.932 649.425V633.916L408.892 630.814L418.19 627.712L423.149 625.231L426.249 623.37L431.208 618.407L433.068 614.684L436.167 612.823L439.886 608.481L441.746 605.379L446.705 602.277L449.805 599.175H452.284L454.764 596.694L459.103 594.212L466.542 586.768L470.261 581.805L473.981 576.221L477.08 573.12L480.18 568.777L483.899 565.055L485.139 560.092L486.379 558.231V555.129L488.858 552.027L491.338 549.546H496.297L500.636 552.027H503.116L508.075 552.647L511.794 551.407H515.514V549.546L514.274 543.962L515.514 544.582L516.754 546.444L519.233 547.064L520.473 548.925L522.333 547.064L524.812 542.101L527.292 538.999L533.491 536.518V531.555L536.59 530.314L538.45 525.351L536.59 519.768L534.731 516.045V507.981L538.45 504.879V502.397L540.93 499.916L545.889 497.434L550.848 496.814L555.187 495.573L559.526 493.092L564.486 490.61L566.965 487.508L568.825 484.407V481.925L568.205 479.443L565.725 475.721L565.105 473.24L565.725 471.379L567.585 475.721L569.445 478.823L573.784 481.305L570.707 485.027V489.37L573.784 494.332L577.503 497.434H582.463L585.562 489.37V497.434H593.621L597.96 499.916V489.37L593.621 485.027L597.96 483.786V481.305L595.48 475.721V471.379L594.86 465.175L592.381 460.832V456.49L594.86 450.286L588.662 444.082V438.499L585.562 436.638L584.322 435.397L582.463 431.055V427.953L585.562 426.092L588.662 423.61V421.129L587.422 418.027V411.203H578.743L576.264 409.342L573.784 408.101L570.707 404.999L569.445 401.897V396.934L578.743 390.73V388.249L582.463 385.767L588.662 384.527H594.86L595.48 382.045L592.381 378.323L588.662 375.221L584.322 375.842L579.983 371.499L577.503 365.916L575.024 364.675L570.707 360.953V357.851L575.024 353.508L581.223 347.304H587.929M555.187 495.573L553.327 496.105M550.848 496.814L553.327 496.105M264.456 597.314L265.076 592.971L268.175 591.731L270.655 589.249L272.514 586.768L275.614 584.286V582.425L272.514 578.703L270.655 576.221L274.374 568.777L275.614 567.536L279.333 568.777L281.813 569.397L284.912 567.536V564.434L286.772 560.712L288.012 557.61V550.786L292.971 552.027H300.41L302.889 555.129L304.749 558.851H308.468L309.708 557.61H314.667L315.287 559.471L319.627 560.712L322.726 561.953H327.065V558.851H330.165L331.405 560.712L333.264 563.194L334.504 566.916L333.264 567.536V576.221L334.504 579.323V584.286L337.604 586.768H341.323L344.112 588.009L346.902 589.249L350.001 590.49L353.721 592.971L354.961 594.212V597.935L357.44 602.897H360.54L362.399 606.62L364.259 610.962L366.119 612.823H376.037L379.137 613.444L385.336 612.823V610.962L390.915 608.481H394.014L398.353 605.379L402.693 606.62V594.212L403.932 591.731H406.412V595.453H408.892V597.935L418.19 597.314V595.453H426.249V584.286H431.208V576.221L433.068 573.12H439.886L441.746 576.221L444.226 578.703L446.705 581.805L452.284 582.425H462.203V576.221H466.542L470.261 572.499L477.08 573.12M345.042 741.861L341.323 744.963L335.744 743.722L333.264 746.824L330.165 750.546H316.527L313.428 755.509L308.468 756.75H301.03L297.31 758.611L295.451 763.574L292.971 766.676L289.872 767.296H286.772L283.673 764.814M345.042 741.861V754.268L343.183 760.472V766.676L341.323 770.398L340.083 775.981L338.223 777.842L335.744 780.944L333.264 782.805L330.165 788.389H326.445V792.731L328.925 794.592V805.139L326.445 807L330.165 810.102V836.157L328.925 837.398H319.007L316.527 839.259L314.667 841.74V849.185L310.948 850.426L307.229 856.009L305.369 859.731L307.229 864.694L310.948 865.935H319.007L320.246 870.278L316.527 868.416H303.509L297.31 870.278L295.451 872.139L291.111 874H288.012L283.673 879.583V888.889L281.193 892.611L276.234 896.333L271.275 899.435L268.175 900.676L265.076 902.537H257.637L252.678 897.574M252.678 897.574L250.818 896.333L248.339 893.852L246.479 891.37L243.999 887.648H242.14L240.28 881.444L239.04 879.583L234.701 874L232.841 872.139V865.935L230.981 861.592V859.731H232.841L230.981 850.426V847.944L228.502 845.463L226.642 839.259L222.923 833.055V831.194L220.443 824.37L217.344 822.509L215.484 816.926V813.203L209.905 803.898L208.045 800.176L205.566 794.592H203.706L199.367 788.389L197.507 784.046L194.408 778.463L191.308 773.5L189.448 769.777L188.209 764.814M252.678 897.574L256.397 892.611V887.648L255.157 884.546V881.444L253.298 877.102L255.777 872.139L256.397 868.416L260.736 866.555L261.976 861.592H257.637L256.397 856.009V841.74L255.157 837.398H253.298L249.578 839.259L246.479 837.398L243.999 833.055V828.092L242.14 822.509V816.926L240.28 813.203L235.941 811.963L234.701 807H230.981L228.502 802.037L232.841 798.935L230.981 794.592M188.209 764.814L186.349 760.472H184.489V750.546L183.249 744.963V740L181.39 735.657V733.796L177.05 730.074V720.768L173.331 719.527V713.944L171.471 711.462L170.232 709.601L167.752 706.499L165.272 705.259L164.567 703.988M188.209 764.814L193.168 767.916L197.507 770.398L199.987 774.74L203.706 777.842L208.045 782.805L213.004 785.287L215.484 788.389L220.443 790.25L224.782 792.731H228.502L230.981 794.592M155.974 681.685V686.027H158.454V687.888L160.313 692.851L162.173 695.333V699.675L164.567 703.988M128.699 497.744L126.219 499.295L123.12 501.777V511.083L126.219 514.184L128.079 519.768L131.178 524.11L128.079 528.453L126.219 537.138L123.12 544.582V554.508L126.219 560.092L128.079 563.194V587.388L131.178 590.49V598.555L134.278 605.379V609.101L136.757 613.444V617.166L139.237 622.129V626.472L141.097 630.814V634.536L142.956 641.981V645.703L144.816 650.666V657.49L146.676 662.453L149.155 664.935V672.379L153.494 677.342L155.974 681.685M155.974 681.685L157.834 681.064L160.313 677.962H169.612M123.12 544.582H128.079L128.699 539.62L132.418 538.379L136.757 541.481H143.576V531.555H145.436V526.592L149.155 528.453H154.114L157.214 526.592V514.184L149.155 511.083L150.395 509.842H154.114L160.313 504.879L162.793 501.777L166.512 499.295M128.699 497.744L131.178 496.194M230.981 794.592H235.941L240.28 798.935H243.999L246.479 794.592L250.818 792.731H260.736L263.216 789.629H268.795L269.415 786.527V782.805L263.216 780.944V777.842L265.076 774.74V767.916H268.795L270.655 763.574L272.514 761.713H276.234L279.953 762.333L283.673 764.814M245.859 723.87L245.97 723.538L247.099 720.148L252.058 718.907H256.397L260.117 720.148V727.592H257.637H253.298L252.588 726.007L252.058 723.87L249.578 723.538L247.099 725.329L246.479 727.592L248.339 730.074V733.796L249.578 736.277H253.298L256.397 732.555L257.637 731.314L260.736 733.796L263.216 735.657L270.655 731.935L273.754 731.314L276.234 731.935H278.713L279.953 735.657L281.193 738.139L283.673 740H288.012L289.872 743.722V748.685H295.451V750.546L291.111 755.509V760.472L286.772 761.713L283.673 764.814M264.456 597.314L265.076 599.796V610.962L264.456 612.823L263.216 618.407L266.935 621.509L265.076 623.37V625.231L260.736 627.712L260.117 630.814L260.736 633.916V644.462L260.117 651.286H257.637V655.629H260.117L264.456 657.49V663.073L263.216 667.416L260.117 668.657H253.298L252.058 669.898V679.203L249.578 682.925V687.268L252.058 690.37L253.298 694.712L249.578 696.574H242.14L242.759 700.296L244.619 702.777L242.759 705.259L241.52 706.499V710.222L242.759 712.083L244.619 715.805H245.859V719.527L245.97 723.538M264.456 597.314H260.736L260.117 595.453L258.877 594.212L256.397 595.453L253.298 599.796L249.578 602.277H245.859L244.619 605.379V610.962H241.52L239.66 615.925H231.601L229.742 621.509V626.472H226.642L221.063 625.231L218.584 626.472L214.864 625.231L210.525 623.37H208.665L206.805 627.712L208.665 630.814V637.638H198.127L196.267 641.36H193.168L190.688 639.499L186.969 641.36L185.729 645.703L180.77 646.944V651.286L177.05 650.046H173.331L170.232 651.286V655.629L173.331 659.972H177.05V667.416L174.571 669.898L169.612 677.962M169.612 677.962L170.232 681.064V699.675L169.612 700.296L167.132 700.916L164.567 703.988M344.112 588.009L343.803 587.871L341.323 586.768M379.137 613.444V604.759L381.616 600.416L387.195 597.314L390.915 592.351L395.254 587.388L397.733 583.666V568.777L395.254 562.573V559.471L390.915 553.888L389.055 550.166V547.064L393.394 543.962L400.213 547.064L405.172 550.166L411.991 553.888L416.33 550.166L414.471 543.962H405.172V517.286H407.652L411.991 511.703H427.488C426.455 511.496 425.009 510.834 427.488 509.842C430.464 506.368 432.448 503.018 433.068 501.777L434.307 498.055L436.787 494.332L438.647 490.61V481.305L441.746 480.064L443.606 478.203L448.565 472.619L451.664 471.733M166.512 499.295H168.372M166.512 499.295H160.313L154.114 496.194L155.354 490.61L157.214 489.37L162.793 486.888H165.892M343.803 587.871V577.462L346.902 575.601V568.777L348.142 564.434H350.621L352.481 567.536H358.06V560.092L355.581 557.61L352.481 553.888L348.142 550.786V547.064L351.861 544.582V541.481H348.142V537.138H353.721V531.555L348.142 528.453L350.621 524.11V522.87L350.001 519.768L346.902 514.184L353.721 507.36L352.84 505.598M415.71 426.092V427.953L411.371 429.193H393.394L390.295 426.092H384.096L382.856 434.156V438.499H390.295L392.774 440.36L394.634 441.601L396.494 442.221L399.593 444.703V448.425L396.494 450.906L390.295 457.11H386.575V464.555L382.856 465.795L379.757 468.277L378.517 471.379H372.318L369.838 472.619L367.978 476.342V478.823L365.499 483.166H362.399L360.54 485.647V491.851L358.06 494.332V503.638L353.101 505.499L352.84 505.598M415.71 426.092H427.488L431.208 419.888L433.068 417.406M255.157 300.156L258.877 304.499V310.082L263.836 315.045V319.388L266.316 323.11L261.976 326.832L258.877 331.795L261.976 333.656L267.555 330.554L273.134 326.832H276.234L282.433 328.693L285.532 329.934L292.971 333.036H296.071L302.27 334.277L308.468 341.721V349.166L305.369 350.406V355.369L302.27 361.573L300.41 364.675L298.55 369.017H294.831L292.971 373.36H288.012L285.532 375.842V380.184L288.012 382.045V387.629L285.532 390.73H283.673V394.453L285.532 396.934V406.24L288.012 407.48C289.045 408.101 291.855 410.086 294.831 413.064C297.806 416.042 301.03 414.305 302.27 413.064H305.369V407.48L302.27 401.897H300.41L298.55 396.934V393.212L294.831 387.629V380.184L298.55 378.323L302.27 375.842H305.369V382.666L307.849 383.906H315.907L320.246 387.629H328.305L331.405 383.906L334.504 382.045L335.744 380.184H345.042V387.629H348.762L353.101 385.767H360.54L359.3 390.73L360.54 393.212H365.499L367.978 390.73L372.318 385.767H379.757L382.856 387.629L386.575 390.73L391.535 393.212L396.494 394.453L399.593 396.934L402.693 400.036H405.792L411.371 399.416L415.71 401.897V426.092M433.068 417.406H436.167L438.647 419.888V424.23L441.746 427.953L446.705 434.156V436.638H450.425V442.221L451.664 446.564L454.764 450.906L459.103 454.008H461.583V460.212L456.624 461.453L454.764 462.694L451.664 464.555V471.733M433.068 417.406L434.307 413.064L436.167 409.962L434.307 406.86V404.999H437.407L438.647 400.036L436.167 396.934L432.448 394.453L431.208 389.49V386.388L434.307 382.045L437.407 379.564L441.746 377.703L447.945 373.98L451.045 371.499L454.144 368.397H457.244L460.963 369.638L467.162 368.397L470.261 365.916L465.922 361.573L461.583 360.953L457.244 357.851L454.144 354.749L453.524 352.267L452.284 349.786H456.004V346.684L453.524 343.582L449.805 341.721L454.144 337.378H460.963V331.175L456.004 327.453L452.284 324.351L449.805 320.008L446.705 315.045L446.395 312.564M553.327 496.105V495.573L552.088 494.332L550.848 491.851L549.608 490.61H545.889L544.029 488.129L542.169 485.027L539.07 483.166L535.35 481.305L530.391 478.203L527.292 475.721L522.953 473.86L518.613 472.619L516.134 470.138L511.175 468.277L509.935 471.379V481.305L507.455 485.027L500.636 483.166L498.157 481.305H490.098C489.106 481.305 488.445 482.545 488.238 483.166H484.519L480.8 480.064L484.519 476.962V471.379H479.56L470.261 472.619L464.062 475.721L458.483 473.86L452.904 471.379L451.664 471.733M530.391 478.203L532.871 475.721V471.379L529.151 466.416L527.292 464.555L524.192 462.694L522.953 460.832L521.713 459.592V457.731L522.953 455.869V454.008H516.134L512.414 452.147L511.175 450.906L507.455 449.045V439.119L509.935 436.018H511.175L513.654 437.879H518.613L519.853 436.018L522.953 432.916H529.151L530.391 429.814L532.871 426.712L537.83 423.61L540.31 426.712L544.029 428.573L546.509 427.953V420.508H552.088L553.327 417.406H555.187L557.667 414.305V411.823L559.526 410.582V406.86L561.386 403.758H563.866V394.453L560.766 388.869V381.425M731.857 918.667L731.762 918.834M731.762 918.834L729.378 923.009L728.138 926.731L729.378 932.315V936.657L733.717 938.518V941H736.197L737.437 938.518H739.296V932.315L736.197 929.213V925.491L734.957 924.25L733.717 921.768L731.762 918.834ZM251.438 245.563L253.918 247.425V257.971C253.711 259.005 253.174 261.321 252.678 262.314L255.777 264.795L258.257 267.897C258.464 268.104 258.877 268.765 258.877 269.758V276.582L261.976 279.684L264.456 286.508V290.851L263.216 295.814L260.736 298.295H258.257L255.157 300.156L249.578 304.499L245.859 300.156V291.471L243.379 286.508L242.14 287.128L240.28 291.471L237.8 293.332L231.601 287.128V291.471L226.642 293.332L224.782 300.156L220.443 296.434V287.128L217.964 284.027L214.864 279.684L211.765 274.721L208.045 269.758V264.175L205.566 261.073L203.706 255.489V251.767H195.647L188.829 248.665L185.109 245.563V248.665H180.77L178.29 245.563V240.601L176.431 233.776L172.711 228.813M251.247 245.563V243.082L251.438 239.98L252.058 236.878L255.157 233.156L256.397 228.813L258.257 226.332L261.976 223.23C262.183 222.61 262.844 221.121 263.836 220.128L266.935 217.026V213.925L261.976 212.684H258.257L255.777 210.202L253.918 207.721L252.678 202.758L249.578 200.276L244.619 197.795M244.619 197.795L240.28 194.693V189.11L235.941 182.906H224.782V174.221L220.443 168.017V164.915L214.864 159.332H211.765V151.267H214.864L217.964 145.684L216.104 141.341H211.765L208.045 145.684H203.706L200.607 148.786M165.892 486.888H171.471L174.571 484.407V489.37L178.91 494.332L185.109 495.573L192.548 497.744L195.647 501.777H199.367L206.805 504.879H218.584L221.683 503.638L223.543 509.842L227.262 512.944L229.742 511.083H231.601L239.66 509.842L241.52 503.638L244.619 499.295L245.859 495.573L253.298 494.332H264.456L265.076 497.744L260.736 501.777L270.655 504.879H275.614L281.813 503.638L284.912 499.295L288.012 497.744H292.971L294.831 499.295H297.93L304.749 497.744L312.188 495.573L315.287 494.332H319.627L320.866 493.712L323.966 497.434H327.065L330.165 496.194L331.405 497.744L337.604 499.295V496.194H344.422L348.142 501.157L351.861 503.638L352.84 505.598M216.724 141.341V128.934C217.55 129.347 219.451 129.926 220.443 128.934C221.435 127.941 226.642 123.35 222.923 126.452C224.163 125.211 226.89 122.606 227.882 122.11L231.601 120.248L232.221 117.767H235.321C235.941 117.767 239.66 116.526 240.28 117.767C240.776 118.76 242.966 121.076 243.999 122.11C245.859 122.73 248.339 123.971 249.578 124.591M249.578 124.591C250.818 125.211 253.918 128.313 255.157 128.934C258.257 129.554 260.736 129.554 261.976 129.554C263.216 129.554 263.836 128.934 265.076 128.934C266.316 128.934 268.175 126.452 268.795 126.452C269.291 126.452 271.068 126.866 271.895 127.073L272.514 127.693C274.374 129.554 274.994 131.415 275.614 132.035C276.234 132.656 276.854 135.137 276.234 135.758C277.474 137.619 279.333 138.239 279.953 138.239C280.449 138.239 282.226 137.826 283.053 137.619L286.152 136.378L287.116 137.826M249.578 124.591V122.11L242.14 113.424L237.8 110.87H232.841L235.941 104.119L232.841 102.053L229.122 100.019L226.022 94.8132H222.923V90.4706L217.964 87.3687H214.864L213.92 83.0635V75.6032H228.166L236.307 71.5339L239.698 69.4993H249.196V65.43L251.231 60.0043H255.301L256.658 56.6133V55.2568L255.301 56.6133L251.231 48.4747L251.909 47.1183H255.301L260.728 48.4747L265.477 51.1876H266.834M287.392 138.239L287.116 137.826M438.027 404.999H449.185L451.664 402.517L454.764 404.999L458.483 407.48L463.442 409.342L465.302 413.684H469.641L473.361 407.48L475.84 404.999L478.32 410.582H481.419L483.279 409.342L486.999 407.48H495.677L500.016 404.999V397.555H507.455L512.414 401.277L514.274 404.999L517.373 407.48L520.473 411.823H522.333L524.812 409.342V407.48L526.672 402.517L531.631 403.758H535.35C537.83 403.758 538.863 402.104 539.07 401.277V391.971L543.409 388.869L549.608 383.906L551.468 381.425H560.766M560.766 381.425V375.842L566.345 373.98L569.445 371.499L568.205 368.397L563.866 365.295L562.626 364.054L560.766 361.573V359.091L563.866 357.23L566.345 355.369L570.685 352.267L573.164 346.064M587.422 347.304L591.141 348.545H593.621V344.823H596.72L598.58 347.304V352.267M267.869 214.545L268.795 210.823L270.655 210.202L271.895 208.341L270.655 203.378V199.656L272.514 194.073L275.614 189.73L279.953 186.628L284.912 185.387L288.012 184.147L291.731 185.387L296.071 187.249L300.41 186.628M300.41 186.628L301.65 184.147L304.129 184.767M614.697 353.508L616.557 351.027H619.036V344.203L621.516 341.721V337.999L619.036 334.897V333.656M623.376 369.638V369.39M692.322 389.972L693.424 388.869C694.664 388.042 698.259 385.892 702.722 383.906C707.186 381.921 705.822 381.838 704.582 382.045V378.323H702.722L700.863 375.221L699.003 370.879L693.424 367.156C692.391 366.536 689.829 365.295 687.845 365.295V360.332C688.671 359.505 690.696 357.603 692.184 356.61C693.672 355.617 691.564 356.196 690.325 356.61H676.067L672.347 359.091L670.488 362.814H666.768L664.909 365.295H661.189L658.09 362.814L653.131 360.332H648.791L643.832 359.091H632.054C630.566 359.091 628.541 359.919 627.715 360.332L625.235 362.814L623.376 365.295V369.39M686.605 406.24L690.325 409.962L693.424 417.406M693.424 417.406L692.184 421.749V426.092L690.325 429.193L687.845 432.916M693.424 417.406L695.904 414.925L702.722 413.064L704.582 409.962L708.921 408.721L712.021 409.962M712.021 409.962V405.619L715.74 401.277V394.453L718.22 391.351L721.319 385.147L722.559 383.906M722.559 383.906L725.039 378.943V375.842L721.319 373.98L722.559 369.017L726.898 365.916L729.378 362.814L730.618 360.953L734.337 362.814C737.313 361.325 740.949 355.576 742.396 352.888L745.495 347.925L747.975 343.582L752.934 340.48H754.174L756.653 337.999L762.232 333.036L767.192 329.934L772.771 326.832H775.87M722.559 383.906H729.378L733.097 378.943V373.98L735.577 372.119H739.916L745.495 373.98H747.975L751.074 372.119L754.174 370.879H756.653L758.513 372.119V376.617M758.513 377.082V376.617M775.87 326.832V336.758M703.342 762.333L706.442 753.027V745.583L711.401 738.759L713.881 741.861V756.75L711.401 762.333V792.111L703.342 785.907V805.139L694.664 798.935L697.763 792.111V785.907L700.863 780.324V768.537L703.342 762.333ZM694.664 820.028H697.763L699.623 825.611L700.863 831.194H694.664V820.028ZM688.465 798.935V802.657L690.325 803.277L691.564 802.657V800.176L690.944 798.935H688.465ZM734.337 780.944L735.577 782.805L738.676 780.944L738.056 778.463L736.197 777.222H734.337V780.944ZM747.355 743.101V746.203L748.595 748.064H750.454V743.722L748.595 743.101H747.355ZM703.342 867.176V873.379L705.202 874.62H708.921L710.161 872.139V867.176H703.342ZM710.161 893.852V898.194L715.74 900.055L718.22 898.194L715.74 893.852H710.161ZM728.138 887.648L731.857 886.407V893.852H728.138V887.648ZM724.419 898.194H729.378V908.741H726.898V909.981L725.658 911.222H720.699L719.46 908.741V903.157H724.419V898.194ZM132.418 894.472V900.055H136.137L138.617 898.194V896.333L136.137 894.472H132.418ZM150.395 843.602L151.635 842.361V841.12H155.354V844.842L153.494 846.083H150.395V843.602ZM151.635 820.648V823.75L153.494 824.99L154.734 824.37V820.648H151.635ZM123.739 794.592V798.935L124.979 799.555L128.079 798.935L127.459 795.213L124.979 793.972L123.739 794.592ZM132.418 800.796V804.518L134.278 805.759L135.517 804.518V801.416L132.418 800.796ZM126.839 806.379L126.219 808.861L123.739 812.583V816.926L127.459 817.546L129.318 816.926V807.62L127.459 806.379H126.839ZM119.4 822.509V824.99L123.12 825.611L122.206 822.509H119.4ZM121.26 828.713L122.206 831.194H124.979L123.739 828.713H121.26ZM108.242 819.407L108.862 825.611L111.961 824.99L110.722 819.407H108.242Z" stroke="white" stroke-width="2"/>
</svg>
