<svg width="1180" height="484" viewBox="0 0 1180 484" fill="none" xmlns="http://www.w3.org/2000/svg">
    <rect width="1180" height="484" fill="black" />
    <path  d="M1093.46 141.015L1079.73 145.569L1079.73 145.748L1093.47 150.27L1093.47 153.748L1076.01 147.609L1076.01 143.705L1093.46 137.546L1093.46 141.015ZM1093.48 159.208L1076.02 159.223L1076.02 156.061L1093.48 156.047L1093.48 159.208ZM1076.03 162.647L1093.48 162.632L1093.49 173.985L1090.84 173.987L1090.83 165.797L1086.09 165.801L1086.1 173.403L1083.45 173.405L1083.44 165.803L1078.68 165.807L1078.69 174.065L1076.04 174.067L1076.03 162.647ZM1076.04 180.898L1093.49 175.958L1093.49 179.358L1080.67 182.514L1080.67 182.676L1093.5 186.023L1093.5 189.117L1080.67 192.494L1080.67 192.647L1093.51 195.782L1093.51 199.182L1076.05 194.271L1076.05 191.151L1088.29 187.647L1088.29 187.51L1076.04 184.018L1076.04 180.898ZM1093.52 207.328L1093.52 211.197L1080.88 216.389L1080.88 216.594L1093.53 221.765L1093.53 225.635L1076.08 225.649L1076.08 222.615L1088.07 222.605L1088.07 222.443L1076.12 217.629L1076.12 215.362L1088.08 210.528L1088.08 210.366L1076.07 210.376L1076.06 207.342L1093.52 207.328ZM1093.54 227.885L1093.54 231.456L1085.82 235.732L1085.82 235.902L1093.55 240.166L1093.55 243.737L1082.6 237.397L1076.09 237.402L1076.09 234.249L1082.6 234.243L1093.54 227.885ZM1076.1 251.944L1093.56 251.929L1093.56 258.475C1093.56 259.816 1093.31 260.941 1092.81 261.85C1092.31 262.766 1091.63 263.456 1090.75 263.923C1089.88 264.395 1088.9 264.632 1087.79 264.633C1086.67 264.634 1085.67 264.399 1084.8 263.928C1083.93 263.457 1083.25 262.762 1082.75 261.842C1082.25 260.922 1082.01 259.788 1082 258.442L1082 254.104L1084.6 254.102L1084.6 258.013C1084.6 258.798 1084.74 259.44 1085.01 259.939C1085.29 260.439 1085.66 260.808 1086.14 261.046C1086.62 261.29 1087.17 261.412 1087.78 261.411C1088.4 261.411 1088.95 261.288 1089.42 261.044C1089.89 260.805 1090.26 260.432 1090.52 259.926C1090.79 259.426 1090.92 258.781 1090.92 257.991L1090.92 255.093L1076.1 255.106L1076.1 251.944ZM1076.11 267.389L1093.57 267.375L1093.57 273.92C1093.57 275.261 1093.34 276.386 1092.88 277.296C1092.41 278.211 1091.76 278.902 1090.92 279.368C1090.08 279.841 1089.11 280.077 1088 280.078C1086.88 280.079 1085.91 279.841 1085.08 279.365C1084.26 278.894 1083.63 278.198 1083.18 277.278C1082.73 276.358 1082.51 275.228 1082.51 273.887L1082.51 269.225L1085.13 269.223L1085.14 273.458C1085.14 274.242 1085.25 274.884 1085.46 275.384C1085.68 275.884 1086 276.253 1086.43 276.491C1086.85 276.735 1087.37 276.857 1087.99 276.857C1088.61 276.856 1089.14 276.733 1089.58 276.489C1090.02 276.244 1090.36 275.872 1090.58 275.371C1090.82 274.871 1090.93 274.226 1090.93 273.436L1090.93 270.539L1076.12 270.551L1076.11 267.389ZM1084.03 276.4L1076.12 280.727L1076.12 277.199L1084.03 272.948L1084.03 276.4ZM1084.87 298.588C1082.99 298.589 1081.38 298.238 1080.03 297.535C1078.7 296.837 1077.67 295.884 1076.96 294.674C1076.25 293.47 1075.9 292.104 1075.89 290.575C1075.89 289.047 1076.25 287.677 1076.96 286.467C1077.67 285.261 1078.7 284.306 1080.03 283.6C1081.37 282.9 1082.98 282.55 1084.85 282.548C1086.73 282.547 1088.34 282.895 1089.68 283.592C1091.02 284.296 1092.05 285.249 1092.76 286.453C1093.47 287.663 1093.83 289.032 1093.83 290.56C1093.83 292.089 1093.47 293.456 1092.76 294.661C1092.06 295.872 1091.03 296.827 1089.69 297.527C1088.36 298.233 1086.75 298.586 1084.87 298.588ZM1084.86 295.409C1086.19 295.408 1087.3 295.199 1088.21 294.784C1089.13 294.374 1089.82 293.805 1090.28 293.078C1090.75 292.35 1090.99 291.512 1090.99 290.563C1090.99 289.614 1090.75 288.776 1090.28 288.049C1089.81 287.322 1089.12 286.752 1088.21 286.338C1087.3 285.93 1086.18 285.726 1084.86 285.727C1083.53 285.728 1082.41 285.934 1081.5 286.343C1080.59 286.759 1079.9 287.331 1079.43 288.058C1078.96 288.786 1078.73 289.624 1078.73 290.573C1078.73 291.522 1078.97 292.36 1079.43 293.087C1079.91 293.814 1080.6 294.381 1081.51 294.79C1082.42 295.204 1083.54 295.41 1084.86 295.409ZM1076.14 301.584L1093.6 301.57L1093.61 312.752L1090.96 312.754L1090.95 304.734L1086.21 304.738L1086.22 311.991L1083.57 311.993L1083.56 304.74L1076.14 304.746L1076.14 301.584ZM1093.61 318.794L1076.16 318.809L1076.15 315.647L1093.61 315.632L1093.61 318.794ZM1076.16 322.233L1093.61 322.218L1093.62 325.38L1078.81 325.393L1078.82 333.08L1076.17 333.082L1076.16 322.233ZM1076.17 335.827L1093.63 335.812L1093.63 347.164L1090.98 347.167L1090.98 338.976L1086.24 338.98L1086.25 346.582L1083.59 346.585L1083.59 338.982L1078.82 338.986L1078.83 347.245L1076.18 347.247L1076.17 335.827Z" fill="#FFFEFE"/ fill="white" />
  </svg>