<svg width="270" height="60" viewBox="0 0 270 60" fill="none" xmlns="http://www.w3.org/2000/svg">
<path d="M21.36 34.28C19.8133 34.28 18.2533 34.08 16.68 33.68C15.1067 33.2533 13.68 32.72 12.4 32.08C11.9733 33.6 11.5733 35.2667 11.2 37.08C10.8267 38.8933 10.48 40.84 10.16 42.92C9.86667 44.4133 9.57333 45.3867 9.28 45.84C8.98667 46.2933 8.61333 46.52 8.16 46.52C7.70667 46.52 7.34667 46.3067 7.08 45.88C6.81333 45.4267 6.68 44.5867 6.68 43.36C6.68 43.12 6.74667 42.56 6.88 41.68C7.01333 40.8 7.18667 39.72 7.4 38.44C7.64 37.1333 7.89333 35.7333 8.16 34.24C8.42667 32.72 8.69333 31.2 8.96 29.68C8.32 28.9867 8 28.3333 8 27.72C8 27.4267 8.08 27.1467 8.24 26.88C8.4 26.5867 8.73333 26.44 9.24 26.44C9.32 26.44 9.41333 26.4533 9.52 26.48C9.81333 24.88 10.0533 23.4533 10.24 22.2C10.4533 20.92 10.5733 20 10.6 19.44C10.6533 18.48 10.84 17.8133 11.16 17.44C11.48 17.04 11.8533 16.84 12.28 16.84C12.6267 16.84 12.9067 16.9867 13.12 17.28C13.3333 17.5467 13.44 18.2267 13.44 19.32C13.44 20.0133 13.3867 20.9467 13.28 22.12C14.5867 19.4533 15.9467 17.56 17.36 16.44C18.8 15.32 20.4 14.76 22.16 14.76C23.76 14.76 25.1333 15.2 26.28 16.08C27.4267 16.9333 28.3067 18.1467 28.92 19.72C29.5333 21.2933 29.84 23.1467 29.84 25.28C29.84 28.2933 29.1067 30.5467 27.64 32.04C26.1733 33.5333 24.08 34.28 21.36 34.28ZM13.44 28.76C14.4533 29.3467 15.5867 29.8933 16.84 30.4C18.0933 30.88 19.3867 31.12 20.72 31.12C22.88 31.12 24.4533 30.64 25.44 29.68C26.4533 28.6933 26.96 27.1067 26.96 24.92C26.96 22.3867 26.56 20.5867 25.76 19.52C24.96 18.4533 23.8667 17.92 22.48 17.92C20.9067 17.92 19.3333 18.8 17.76 20.56C16.1867 22.2933 14.7467 25.0267 13.44 28.76ZM40.3447 47.4C38.7714 47.4 37.5314 46.8 36.6247 45.6C35.718 44.4 35.2647 42.84 35.2647 40.92C35.2647 40.2267 35.358 39.4933 35.5447 38.72C35.758 37.92 36.0247 37.2 36.3447 36.56C36.158 36.3733 36.0114 36.12 35.9047 35.8C35.798 35.4533 35.7447 35.0267 35.7447 34.52C35.7447 32.9467 36.0114 31.5067 36.5447 30.2C37.078 28.8933 37.7847 27.76 38.6647 26.8C39.5447 25.8133 40.518 25.0533 41.5847 24.52C42.678 23.9867 43.7847 23.72 44.9047 23.72C46.7447 23.72 48.238 24.3867 49.3847 25.72C50.5314 27.0267 51.1047 29.0267 51.1047 31.72C51.1047 33.1333 50.8914 34.5733 50.4647 36.04C50.0647 37.5067 49.5047 38.92 48.7847 40.28C48.0914 41.64 47.278 42.8533 46.3447 43.92C45.438 44.9867 44.4647 45.84 43.4247 46.48C42.4114 47.0933 41.3847 47.4 40.3447 47.4ZM38.9847 35.2C39.1447 35.4133 39.2247 35.6933 39.2247 36.04C39.2247 36.44 39.1447 36.84 38.9847 37.24C38.8514 37.64 38.7047 38.1867 38.5447 38.88C38.3847 39.5733 38.3047 40.56 38.3047 41.84C38.3047 43.12 38.8114 43.76 39.8247 43.76C40.9447 43.76 41.9847 43.32 42.9447 42.44C43.9047 41.5333 44.758 40.3733 45.5047 38.96C46.2514 37.5467 46.8247 36.04 47.2247 34.44C47.6514 32.8133 47.8647 31.28 47.8647 29.84C47.8647 28.9067 47.6914 28.2533 47.3447 27.88C46.998 27.48 46.3714 27.28 45.4647 27.28C44.5314 27.28 43.558 27.6 42.5447 28.24C41.558 28.8533 40.7314 29.6933 40.0647 30.76C39.398 31.8267 39.0647 33.0267 39.0647 34.36C39.0647 34.6533 39.038 34.9333 38.9847 35.2ZM61.9019 47.88C61.3152 47.88 60.8619 47.7067 60.5419 47.36C60.2485 47.04 60.1019 46.6667 60.1019 46.24C60.1019 45.8667 60.2619 45.52 60.5819 45.2C60.9285 44.8533 61.3952 44.5467 61.9819 44.28C63.0485 43.72 64.0485 43.16 64.9819 42.6C65.9419 42.04 66.7152 41.44 67.3019 40.8C67.8885 40.16 68.1819 39.48 68.1819 38.76C68.1819 38.1467 67.9819 37.68 67.5819 37.36C67.1819 37.0133 66.6352 36.84 65.9419 36.84C65.5419 36.84 64.9819 36.92 64.2619 37.08C63.5419 37.2133 62.7552 37.3733 61.9019 37.56C61.0752 37.72 60.2619 37.88 59.4619 38.04C58.6619 38.1733 57.9819 38.24 57.4219 38.24C56.4085 38.24 55.6485 38 55.1419 37.52C54.6352 37.0133 54.3819 36.3333 54.3819 35.48C54.3819 35.0533 54.6352 34.4133 55.1419 33.56C55.6485 32.7067 56.3152 31.76 57.1419 30.72C57.9952 29.6533 58.9285 28.5867 59.9419 27.52C60.9552 26.4533 61.9819 25.4667 63.0219 24.56C64.0885 23.6533 65.0752 22.92 65.9819 22.36C66.9152 21.8 67.6885 21.52 68.3019 21.52C68.9152 21.52 69.3819 21.72 69.7019 22.12C70.0219 22.52 70.1819 23.0267 70.1819 23.64C70.1819 24.12 70.1019 24.5333 69.9419 24.88C69.7819 25.2 69.4485 25.4533 68.9419 25.64C68.4619 25.8267 67.7152 25.9333 66.7019 25.96C65.6619 26.7867 64.5552 27.7333 63.3819 28.8C62.2352 29.84 61.1819 30.92 60.2219 32.04C59.2885 33.1333 58.6085 34.1867 58.1819 35.2C59.0619 34.9067 60.1285 34.6533 61.3819 34.44C62.6619 34.2 63.9552 34.08 65.2619 34.08C67.3152 34.08 68.8352 34.5467 69.8219 35.48C70.8352 36.3867 71.3419 37.5867 71.3419 39.08C71.3419 40.04 71.0352 41.04 70.4219 42.08C69.8352 43.0933 69.0619 44.04 68.1019 44.92C67.1419 45.8 66.1152 46.5067 65.0219 47.04C63.9285 47.6 62.8885 47.88 61.9019 47.88ZM72.9137 34.2C72.1937 34.1467 71.8604 33.68 71.9137 32.8C71.9404 32.5867 72.0871 32.3333 72.3537 32.04C72.6204 31.72 72.9271 31.5467 73.2737 31.52C74.1004 31.44 75.1138 31.32 76.3138 31.16C77.5404 30.9733 78.8871 30.76 80.3538 30.52C80.6204 29.2133 80.9404 27.84 81.3138 26.4C81.6871 24.96 82.1004 23.56 82.5538 22.2C83.0071 20.8133 83.4871 19.56 83.9938 18.44C84.5004 17.32 85.0338 16.44 85.5938 15.8C85.8871 15.5067 86.1538 15.3067 86.3938 15.2C86.6338 15.0667 86.8471 15 87.0338 15C87.4071 15 87.7004 15.16 87.9138 15.48C88.1538 15.8 88.2738 16.16 88.2738 16.56C88.2738 16.7733 88.2338 16.9867 88.1538 17.2C87.6204 18.6933 87.0471 20.5333 86.4338 22.72C85.8204 24.9067 85.1671 27.2933 84.4738 29.88C86.9271 29.48 89.3804 29.0533 91.8338 28.6C94.2871 28.1467 96.3938 27.7333 98.1538 27.36C98.6604 27.1467 99.0471 27.1867 99.3138 27.48C99.6071 27.7733 99.7538 28.0667 99.7538 28.36C99.7538 28.7333 99.6471 29.0133 99.4338 29.2C99.2471 29.3867 99.0471 29.5467 98.8338 29.68L98.7938 29.72C98.2604 29.9333 97.4604 30.1867 96.3938 30.48C95.3271 30.7467 94.1004 31.04 92.7138 31.36C91.3271 31.6533 89.8471 31.9467 88.2738 32.24C86.7271 32.5333 85.1938 32.8 83.6738 33.04C83.0604 35.3867 82.4338 37.8 81.7938 40.28C81.1804 42.7333 80.5671 45.1467 79.9538 47.52C79.6871 48.48 79.3804 49.08 79.0338 49.32C78.7138 49.5867 78.3671 49.72 77.9938 49.72C77.5671 49.72 77.1938 49.56 76.8738 49.24C76.5804 48.92 76.5404 48.2667 76.7538 47.28L79.6738 33.64C78.0738 33.88 76.6604 34.0533 75.4338 34.16C74.2338 34.2667 73.3937 34.28 72.9137 34.2ZM126.361 44.8C126.334 45.2267 126.161 45.5733 125.841 45.84C125.521 46.1067 125.147 46.24 124.721 46.24C124.241 46.24 123.841 46.08 123.521 45.76C123.201 45.44 123.041 44.9467 123.041 44.28C123.041 42.5467 123.121 40.6667 123.281 38.64C123.441 36.5867 123.641 34.56 123.881 32.56C124.121 30.5333 124.361 28.6667 124.601 26.96C123.721 28.2133 122.761 29.6 121.721 31.12C120.707 32.64 119.667 34.1467 118.601 35.64C117.534 37.1333 116.494 38.5067 115.481 39.76C114.467 40.9867 113.547 41.9867 112.721 42.76C111.894 43.5067 111.214 43.88 110.681 43.88C109.694 43.88 108.841 43.4933 108.121 42.72C107.401 41.92 107.041 40.92 107.041 39.72C107.041 39.24 107.094 38.5867 107.201 37.76C107.307 36.9067 107.427 36.0133 107.561 35.08C107.694 34.1467 107.814 33.28 107.921 32.48C108.027 31.6533 108.081 31.04 108.081 30.64C108.081 30.2667 108.041 29.9467 107.961 29.68C107.907 29.3867 107.774 29.24 107.561 29.24C107.241 29.24 106.801 29.6 106.241 30.32C105.681 31.0133 105.054 31.9067 104.361 33C103.694 34.0933 103.001 35.2533 102.281 36.48C101.587 37.7067 100.934 38.8667 100.321 39.96C99.7073 41.0267 99.1873 41.8667 98.7606 42.48C98.414 43.0667 98.094 43.4933 97.8006 43.76C97.5073 44.0267 97.1473 44.16 96.7206 44.16C96.214 44.16 95.7473 43.8933 95.3206 43.36C94.9206 42.8267 94.7206 42.1733 94.7206 41.4C94.7206 40.9467 94.8006 40.24 94.9606 39.28C95.1206 38.2933 95.3206 37.2133 95.5606 36.04C95.8273 34.8667 96.0806 33.72 96.3206 32.6C96.5873 31.4533 96.814 30.48 97.0006 29.68C97.214 28.7733 97.4806 28.16 97.8006 27.84C98.1206 27.52 98.4673 27.36 98.8406 27.36C99.3473 27.36 99.7473 27.5467 100.041 27.92C100.361 28.2667 100.521 28.8133 100.521 29.56C100.521 29.6933 100.441 30.0533 100.281 30.64C100.121 31.2 99.9206 31.8933 99.6806 32.72C99.4673 33.52 99.2273 34.36 98.9606 35.24C98.7206 36.12 98.5206 36.9333 98.3606 37.68C98.9473 36.6933 99.5606 35.6267 100.201 34.48C100.867 33.3333 101.534 32.2 102.201 31.08C102.867 29.9333 103.534 28.8933 104.201 27.96C104.867 27 105.521 26.24 106.161 25.68C106.801 25.12 107.414 24.84 108.001 24.84C108.694 24.84 109.334 25.0533 109.921 25.48C110.534 25.9067 111.027 26.48 111.401 27.2C111.774 27.92 111.961 28.72 111.961 29.6C111.961 30.2133 111.854 31.08 111.641 32.2C111.427 33.2933 111.201 34.48 110.961 35.76C110.747 37.04 110.614 38.2533 110.561 39.4C110.561 39.6667 110.641 39.8 110.801 39.8C110.934 39.8 111.094 39.7067 111.281 39.52C112.054 38.6667 112.907 37.64 113.841 36.44C114.774 35.2133 115.721 33.92 116.681 32.56C117.667 31.2 118.641 29.8667 119.601 28.56C120.561 27.2267 121.454 26.0267 122.281 24.96C123.134 23.8667 123.881 23 124.521 22.36C125.187 21.72 125.707 21.4 126.081 21.4C126.881 21.4 127.494 21.6267 127.921 22.08C128.347 22.5333 128.561 23.2933 128.561 24.36C128.561 25.2133 128.494 26.32 128.361 27.68C128.254 29.04 128.107 30.52 127.921 32.12C127.761 33.72 127.574 35.3333 127.361 36.96C127.174 38.56 126.987 40.0533 126.801 41.44C126.614 42.8 126.467 43.92 126.361 44.8ZM136.108 48.04C135.094 48.04 134.254 47.5733 133.588 46.64C132.948 45.68 132.628 44.44 132.628 42.92C132.628 41.5067 132.974 40.1067 133.668 38.72C134.388 37.3333 135.334 36 136.508 34.72C137.681 33.44 138.961 32.2667 140.348 31.2C141.734 30.1067 143.121 29.16 144.508 28.36C145.921 27.56 147.214 26.9333 148.388 26.48C149.561 26.0267 150.494 25.8 151.188 25.8C151.561 25.8 151.868 25.88 152.108 26.04C152.348 26.1733 152.468 26.4267 152.468 26.8C152.468 27.04 152.374 27.2667 152.188 27.48C152.214 27.48 152.241 27.48 152.268 27.48C152.854 27.48 153.148 27.8267 153.148 28.52C153.148 28.76 153.054 29.2533 152.868 30C152.681 30.72 152.468 31.6267 152.228 32.72C151.988 33.8133 151.774 35.0267 151.588 36.36C151.401 37.6667 151.308 39 151.308 40.36C151.308 41.5067 151.748 42.08 152.628 42.08C153.614 42.08 154.614 41.8533 155.628 41.4C156.641 40.9467 157.628 40.4 158.588 39.76C159.548 39.0933 160.428 38.44 161.228 37.8C162.028 37.1333 162.708 36.5733 163.268 36.12C163.828 35.6667 164.228 35.44 164.468 35.44C164.681 35.44 164.868 35.5067 165.028 35.64C165.188 35.7733 165.268 35.9867 165.268 36.28C165.268 36.5467 165.001 37.0267 164.468 37.72C163.934 38.4133 163.228 39.2 162.348 40.08C161.468 40.96 160.481 41.8133 159.388 42.64C158.294 43.4667 157.174 44.1467 156.028 44.68C154.881 45.2133 153.788 45.48 152.748 45.48C151.948 45.48 151.214 45.24 150.548 44.76C149.908 44.2533 149.388 43.4 148.988 42.2C148.614 41 148.428 39.3467 148.428 37.24V36.24C147.121 38.4 145.748 40.3733 144.308 42.16C142.894 43.9467 141.481 45.3733 140.068 46.44C138.681 47.5067 137.361 48.04 136.108 48.04ZM150.428 28.68C150.294 28.7333 150.108 28.8133 149.868 28.92C148.641 29.48 147.361 30.1733 146.028 31C144.721 31.8267 143.441 32.7467 142.188 33.76C140.961 34.7733 139.854 35.8267 138.868 36.92C137.881 38.0133 137.094 39.12 136.508 40.24C135.921 41.36 135.628 42.4533 135.628 43.52C135.628 43.8667 135.694 44.1333 135.828 44.32C135.988 44.5067 136.254 44.6 136.628 44.6C137.161 44.6 137.854 44.2667 138.708 43.6C139.561 42.9067 140.494 42 141.508 40.88C142.548 39.76 143.588 38.52 144.628 37.16C145.668 35.8 146.654 34.4267 147.588 33.04C148.548 31.6533 149.374 30.3733 150.068 29.2C150.174 29.0133 150.294 28.84 150.428 28.68ZM164.445 47.76C164.018 47.76 163.658 47.5867 163.365 47.24C163.071 46.8933 162.925 46.4133 162.925 45.8C162.925 45.3467 163.018 44.6 163.205 43.56C163.418 42.4933 163.645 41.2533 163.885 39.84C164.151 38.4267 164.378 36.96 164.565 35.44C164.751 33.8933 164.845 32.4133 164.845 31C164.845 30.3067 165.018 29.8 165.365 29.48C165.738 29.1333 166.151 28.96 166.605 28.96C167.031 28.96 167.351 29.2267 167.565 29.76C167.778 30.2933 167.818 31.36 167.685 32.96C168.911 30.24 170.258 28.0533 171.725 26.4C173.218 24.72 174.698 23.52 176.165 22.8C177.631 22.0533 178.951 21.68 180.125 21.68C180.898 21.68 181.458 21.84 181.805 22.16C182.178 22.4533 182.365 22.7867 182.365 23.16C182.365 23.6667 182.151 24.0667 181.725 24.36C181.325 24.6267 180.618 24.9467 179.605 25.32C178.431 25.7733 177.351 26.3067 176.365 26.92C175.405 27.5067 174.485 28.28 173.605 29.24C172.751 30.2 171.911 31.4267 171.085 32.92C170.258 34.3867 169.431 36.2 168.605 38.36C167.778 40.52 166.898 43.12 165.965 46.16C165.805 46.7467 165.591 47.16 165.325 47.4C165.085 47.64 164.791 47.76 164.445 47.76ZM201.19 49.12C199.457 49.12 197.857 48.7067 196.39 47.88C194.95 47.0533 193.643 45.9867 192.47 44.68C191.323 43.3733 190.297 41.9733 189.39 40.48C188.51 38.96 187.75 37.5333 187.11 36.2C186.657 38.36 186.297 40.1067 186.03 41.44C185.79 42.7733 185.59 43.7867 185.43 44.48C185.297 45.1733 185.163 45.64 185.03 45.88C184.897 46.12 184.723 46.24 184.51 46.24C183.923 46.24 183.363 45.92 182.83 45.28C182.297 44.64 182.03 43.8133 182.03 42.8C182.03 41.7333 182.217 40.32 182.59 38.56C182.963 36.7733 183.457 34.8 184.07 32.64C184.71 30.4533 185.443 28.2 186.27 25.88C187.097 23.5333 187.95 21.2533 188.83 19.04C189.737 16.8 190.643 14.76 191.55 12.92C192.003 12.0133 192.39 11.4267 192.71 11.16C193.057 10.8933 193.47 10.76 193.95 10.76C194.723 10.76 195.11 11.12 195.11 11.84C195.11 12.1067 195.03 12.4 194.87 12.72C194.737 13.04 194.59 13.4 194.43 13.8C193.95 14.9733 193.417 16.2933 192.83 17.76C192.27 19.2267 191.697 20.76 191.11 22.36C190.55 23.96 190.017 25.5467 189.51 27.12C189.003 28.6933 188.563 30.1467 188.19 31.48C189.337 30.68 190.683 29.88 192.23 29.08C193.777 28.28 195.377 27.56 197.03 26.92C198.683 26.2533 200.243 25.72 201.71 25.32C203.177 24.92 204.39 24.72 205.35 24.72C205.857 24.72 206.243 24.88 206.51 25.2C206.803 25.4933 206.95 25.8267 206.95 26.2C206.95 26.4933 206.857 26.7867 206.67 27.08C206.51 27.3467 206.163 27.5867 205.63 27.8C203.87 28.4133 202.123 29.04 200.39 29.68C198.657 30.2933 196.843 30.96 194.95 31.68C193.083 32.3733 191.043 33.2 188.83 34.16C189.523 35.3333 190.337 36.6 191.27 37.96C192.203 39.2933 193.203 40.56 194.27 41.76C195.337 42.9333 196.43 43.9067 197.55 44.68C198.67 45.4267 199.79 45.8 200.91 45.8C202.377 45.8 203.79 45.4933 205.15 44.88C206.51 44.2667 207.763 43.52 208.91 42.64C210.083 41.76 211.11 40.9067 211.99 40.08C212.87 39.2267 213.563 38.56 214.07 38.08C214.337 37.84 214.577 37.68 214.79 37.6C215.03 37.4933 215.243 37.44 215.43 37.44C215.803 37.44 216.057 37.64 216.19 38.04C216.35 38.4133 216.217 38.8267 215.79 39.28C215.47 39.6533 214.977 40.2267 214.31 41C213.643 41.7733 212.83 42.6267 211.87 43.56C210.937 44.4667 209.897 45.3467 208.75 46.2C207.63 47.0533 206.417 47.7467 205.11 48.28C203.83 48.84 202.523 49.12 201.19 49.12ZM229.685 29.76C229.685 30.6133 229.418 31.4533 228.885 32.28C228.351 33.08 227.645 33.8533 226.765 34.6C225.885 35.32 224.911 36 223.845 36.64C222.778 37.28 221.711 37.84 220.645 38.32C219.578 38.8 218.605 39.1867 217.725 39.48C217.511 40.52 217.405 41.44 217.405 42.24C217.405 42.7467 217.525 43.1067 217.765 43.32C218.005 43.5333 218.378 43.64 218.885 43.64C220.005 43.64 221.191 43.44 222.445 43.04C223.698 42.64 224.978 42.12 226.285 41.48C227.591 40.84 228.845 40.16 230.045 39.44C231.245 38.72 232.338 38.04 233.325 37.4C234.338 36.76 235.178 36.24 235.845 35.84C236.511 35.44 236.951 35.24 237.165 35.24C237.485 35.24 237.725 35.3467 237.885 35.56C238.071 35.7467 238.165 35.9733 238.165 36.24C238.165 36.4533 237.831 36.8667 237.165 37.48C236.525 38.0933 235.658 38.8133 234.565 39.64C233.471 40.44 232.245 41.2667 230.885 42.12C229.525 42.9733 228.111 43.7733 226.645 44.52C225.205 45.2667 223.805 45.8667 222.445 46.32C221.111 46.7733 219.911 47 218.845 47C217.458 47 216.378 46.48 215.605 45.44C214.831 44.4 214.445 42.7867 214.445 40.6C214.445 39.1333 214.631 37.6533 215.005 36.16C215.405 34.6667 215.938 33.24 216.605 31.88C217.298 30.4933 218.058 29.2667 218.885 28.2C219.738 27.1067 220.631 26.2533 221.565 25.64C222.498 25 223.405 24.68 224.285 24.68C225.965 24.68 227.285 25.1467 228.245 26.08C229.205 27.0133 229.685 28.24 229.685 29.76ZM218.565 36.4C219.391 35.8933 220.245 35.36 221.125 34.8C222.005 34.24 222.818 33.6667 223.565 33.08C224.311 32.4933 224.911 31.88 225.365 31.24C225.845 30.5733 226.085 29.8933 226.085 29.2C226.085 28.2133 225.551 27.72 224.485 27.72C223.818 27.72 223.111 28.1467 222.365 29C221.645 29.8267 220.951 30.9067 220.285 32.24C219.618 33.5733 219.045 34.96 218.565 36.4ZM251.649 26.88C252.369 25.1467 253.049 23.36 253.689 21.52C254.355 19.68 254.955 17.8 255.489 15.88C255.649 15.3467 255.889 14.92 256.209 14.6C256.555 14.2533 256.955 14.08 257.409 14.08C257.729 14.08 257.995 14.2 258.209 14.44C258.449 14.68 258.569 15 258.569 15.4C258.569 15.9067 258.369 16.7867 257.969 18.04C257.595 19.2933 257.115 20.88 256.529 22.8C255.969 24.72 255.395 26.9333 254.809 29.44C254.249 31.92 253.769 34.6667 253.369 37.68C252.995 40.6933 252.809 43.9067 252.809 47.32C252.809 48.0667 252.649 48.68 252.329 49.16C252.009 49.6667 251.622 49.92 251.169 49.92C250.902 49.92 250.649 49.8533 250.409 49.72C250.169 49.5867 249.955 49.2667 249.769 48.76C249.609 48.28 249.475 47.52 249.369 46.48C249.262 45.4133 249.209 43.9733 249.209 42.16C249.209 40.7733 249.289 39.2667 249.449 37.64C248.222 39.8533 246.889 41.7867 245.449 43.44C244.035 45.0667 242.662 46.32 241.329 47.2C240.022 48.08 238.902 48.52 237.969 48.52C236.822 48.52 235.889 48.1333 235.169 47.36C234.475 46.6133 234.129 45.4933 234.129 44C234.129 42.6933 234.435 41.3467 235.049 39.96C235.662 38.5733 236.475 37.2133 237.489 35.88C238.502 34.52 239.622 33.24 240.849 32.04C242.075 30.84 243.302 29.7867 244.529 28.88C245.782 27.9467 246.942 27.2267 248.009 26.72C249.075 26.1867 249.942 25.92 250.609 25.92C250.875 25.92 251.115 26.0133 251.329 26.2C251.542 26.3867 251.649 26.6133 251.649 26.88ZM251.129 28.12C250.942 28.3067 250.715 28.4933 250.449 28.68C250.182 28.8667 249.889 29.0667 249.569 29.28C248.395 30.1067 247.102 31.0667 245.689 32.16C244.302 33.2267 242.969 34.4 241.689 35.68C240.435 36.9333 239.409 38.2533 238.609 39.64C237.809 41.0267 237.409 42.4533 237.409 43.92C237.409 44.56 237.729 44.88 238.369 44.88C239.249 44.88 240.209 44.4667 241.249 43.64C242.315 42.7867 243.409 41.6133 244.529 40.12C245.649 38.6 246.769 36.8267 247.889 34.8C249.009 32.7467 250.089 30.52 251.129 28.12ZM261.79 47.6C261.203 47.6 260.63 47.4133 260.07 47.04C259.537 46.6667 259.27 46.0533 259.27 45.2C259.27 44.5067 259.443 43.9467 259.79 43.52C260.137 43.0933 260.537 42.7867 260.99 42.6C261.443 42.3867 261.843 42.28 262.19 42.28C262.537 42.28 262.923 42.36 263.35 42.52C263.803 42.68 264.19 42.96 264.51 43.36C264.83 43.7333 264.99 44.2933 264.99 45.04C264.99 45.7867 264.67 46.4 264.03 46.88C263.39 47.36 262.643 47.6 261.79 47.6Z" fill="white"/>
<path fill-rule="evenodd" clip-rule="evenodd" d="M39.3173 7.07509C39.4189 5.71342 39.9092 4.40982 40.7295 3.32072C41.5499 2.23162 42.6653 1.40328 43.942 0.9351C45.2188 0.466917 46.6025 0.378777 47.9273 0.681257C49.2521 0.983736 50.4616 1.66399 51.4107 2.64038C52.3598 3.61678 53.0082 4.84784 53.2781 6.18586C53.5479 7.52387 53.4278 8.912 52.9321 10.1837C52.4364 11.4554 51.5862 12.5566 50.4835 13.3552C49.3808 14.1538 48.0724 14.6158 46.7154 14.6859L45.9868 24.4699C45.9693 24.7045 45.8598 24.9225 45.6824 25.0761C45.505 25.2297 45.2742 25.3062 45.0408 25.2888C44.8074 25.2714 44.5904 25.1616 44.4377 24.9834C44.285 24.8053 44.2091 24.5734 44.2265 24.3388L44.9551 14.5566C43.2689 14.2143 41.7656 13.265 40.7275 11.8871C39.6895 10.5092 39.188 8.79739 39.3175 7.07332L39.3173 7.07509Z" fill="white"/>
</svg>
